{
.appVersion = "1264";
copyright = "Copyright 2019 The Tomorrow Project Authors (https://github.com/MonicaRizzolli/Tomorrow)";
customParameters = (
{
name = licenseURL;
value = "http://scripts.sil.org/OFL";
},
{
name = license;
value = "This Font Software is licensed under the SIL Open Font License, Version 1.1. This license is available with a FAQ at: http://scripts.sil.org/OFL";
},
{
name = vendorID;
value = JUST;
},
{
name = panose;
value = (
0,
0,
9,
0,
0,
0,
0,
0,
0,
0
);
},
{
name = unicodeRanges;
value = (
0,
1,
2,
29
);
},
{
name = codePageRanges;
value = (
1252,
1250,
1254,
1257,
1258,
"bit 29"
);
},
{
name = fsType;
value = (
);
},
{
name = blueScale;
value = 0.037;
},
{
name = glyphOrder;
value = (
.notdef,
CR,
space,
A,
Aacute,
Abreve,
uni1EAE,
uni1EB6,
uni1EB0,
uni1EB2,
uni1EB4,
Acircumflex,
uni1EA4,
uni1EAC,
uni1EA6,
uni1EA8,
uni1EAA,
uni0200,
Adieresis,
uni1EA0,
Agrave,
uni1EA2,
uni0202,
Amacron,
Aogonek,
Aring,
Aringacute,
Atilde,
AE,
AEacute,
B,
C,
Cacute,
Ccaron,
Ccedilla,
Ccircumflex,
Cdotaccent,
D,
uni01C4,
Eth,
Dcaron,
Dcroat,
uni01C5,
E,
Eacute,
Ebreve,
Ecaron,
Ecircumflex,
uni1EBE,
uni1EC6,
uni1EC0,
uni1EC2,
uni1EC4,
uni0204,
Edieresis,
Edotaccent,
uni1EB8,
Egrave,
uni1EBA,
uni0206,
Emacron,
Eogonek,
uni1EBC,
F,
G,
Gbreve,
Gcaron,
Gcircumflex,
uni0122,
Gdotaccent,
H,
Hbar,
Hcircumflex,
I,
Iacute,
Ibreve,
Icircumflex,
uni0208,
Idieresis,
Idotaccent,
uni1ECA,
Igrave,
uni1EC8,
uni020A,
Imacron,
Iogonek,
Itilde,
J,
Jcircumflex,
K,
uni0136,
L,
uni01C7,
Lacute,
Lcaron,
uni013B,
Ldot,
uni01C8,
Lslash,
M,
N,
uni01CA,
Nacute,
Ncaron,
uni0145,
Eng,
uni01CB,
Ntilde,
O,
Oacute,
Obreve,
Ocircumflex,
uni1ED0,
uni1ED8,
uni1ED2,
uni1ED4,
uni1ED6,
uni020C,
Odieresis,
uni022A,
uni0230,
uni1ECC,
Ograve,
uni1ECE,
Ohorn,
uni1EDA,
uni1EE2,
uni1EDC,
uni1EDE,
uni1EE0,
Ohungarumlaut,
uni020E,
Omacron,
uni01EA,
Oslash,
Oslashacute,
Otilde,
uni022C,
OE,
P,
Thorn,
Q,
R,
Racute,
Rcaron,
uni0156,
uni0210,
uni0212,
S,
Sacute,
Scaron,
Scedilla,
Scircumflex,
uni0218,

glyphs = (
{
glyphname = .notdef;
layers = (
{
hints = (
{
horizontal = 1;
place = "{83, 127}";
type = Stem;
},
{
horizontal = 1;
place = "{312, 211}";
type = Stem;
},
{
place = "{37, 666}";
type = Stem;
}
);
layerId = "04043E30-D2B9-406E-ABC7-C215F4DFD662";
paths = (
{
closed = 1;
nodes = (
"210.94 312 LINE",
"365.94 312 LINE",
"403.14 523 LINE",
"248.14 523 LINE"
);
},
{
closed = 1;
nodes = (
"464.93 312 LINE",
"619.93 312 LINE",
"657.13 523 LINE",
"502.13 523 LINE"
);
},
{
closed = 1;
nodes = (
"36.98 -11 LINE",
"172.98 -11 LINE",
"182.32 42 LINE",
"231.55 83 LINE",
"519.55 83 LINE",
"554.31 42 LINE",
"544.97 -11 LINE",
"680.97 -11 LINE",
"703 114 LINE",
"610.93 210 LINE",
"183.93 210 LINE",
"59.01 114 LINE"
);
}
);
width = 722;
}
);
note = .notdef;
},
{
glyphname = A;
layers = (
{
hints = (
{
horizontal = 1;
place = "{109, 181}";
type = Stem;
},
{
horizontal = 1;
place = "{568, 169}";
type = Stem;
},
{
place = "{544.66, 269.02}";
type = Stem;
}
);
layerId = "04043E30-D2B9-406E-ABC7-C215F4DFD662";
paths = (
{
closed = 1;
nodes = (
"10.43 0 LINE",
"314.99 0 LINE",
"351.47 109 LINE",
"538.93 109 LINE",
"536.99 0 LINE",
"828.99 0 LINE",
"798.38 737 LINE",
"308.15 737 LINE"
);
},
{
closed = 1;
nodes = (
"412.09 290 LINE",
"505.14 568 LINE",
"547.14 568 LINE",
"542.18 290 LINE"
);
}
);
width = 840;
}
);
leftKerningGroup = A;
note = A;
rightKerningGroup = A;
unicode = 0041;
},
{
glyphname = Aacute;
layers = (
{
hints = (
{
horizontal = 1;
place = "{109, 181}";
type = Stem;
},
{
horizontal = 1;
place = "{568, 169}";
type = Stem;
},
{
horizontal = 1;
place = "{789, 163}";
type = Stem;
},
{
place = "{544.66, 269.02}";
type = Stem;
}
);
layerId = "04043E30-D2B9-406E-ABC7-C215F4DFD662";
paths = (
{
closed = 1;
nodes = (
"478.5 789 LINE",
"636.5 789 LINE",
"827.23 952 LINE",
"586.23 952 LINE"
);
},
{
closed = 1;
nodes = (
"10.43 0 LINE",
"314.99 0 LINE",
"351.47 109 LINE",
"538.93 109 LINE",
"536.99 0 LINE",
"828.99 0 LINE",
"798.38 737 LINE",
"308.15 737 LINE"
);
},
{
closed = 1;
nodes = (
"412.09 290 LINE",
"505.14 568 LINE",
"547.14 568 LINE",
"542.18 290 LINE"
);
}
);
width = 840;
}
);
leftKerningGroup = A;
note = Aacute;
rightKerningGroup = A;
unicode = 00C1;
},
{
glyphname = Abreve;
layers = (
{
hints = (
{
horizontal = 1;
place = "{109, 181}";
type = Stem;
},
{
horizontal = 1;
place = "{568, 169}";
type = Stem;
},
{
horizontal = 1;
place = "{789, 163}";
type = Stem;
},
{
place = "{544.66, 269.02}";
type = Stem;
},
{
horizontal = 1;
place = "{789, 111}";
type = Stem;
}
);
layerId = "04043E30-D2B9-406E-ABC7-C215F4DFD662";
paths = (
{
closed = 1;
nodes = (
"419.5 789 LINE",
"697.5 789 LINE",
"816.01 877 LINE",
"829.22 952 LINE",
"633.22 952 LINE",
"624.06 900 LINE",
"522.06 900 LINE",
"531.22 952 LINE",
"345.22 952 LINE",
"332.01 877 LINE"
);
},
{
closed = 1;
nodes = (
"10.43 0 LINE",
"314.99 0 LINE",
"351.47 109 LINE",
"538.93 109 LINE",
"536.99 0 LINE",
"828.99 0 LINE",
"798.38 737 LINE",
"308.15 737 LINE"
);
},
{
closed = 1;
nodes = (
"412.09 290 LINE",
"505.14 568 LINE",
"547.14 568 LINE",
"542.18 290 LINE"
);
}
);
width = 840;
}
);
leftKerningGroup = A;
note = Abreve;
rightKerningGroup = A;
unicode = 0102;
},
{
glyphname = uni1EAE;
layers = (
{
hints = (
{
horizontal = 1;
place = "{109, 181}";
type = Stem;
},
{
horizontal = 1;
place = "{568, 169}";
type = Stem;
},
{
horizontal = 1;
place = "{789, 163}";
type = Stem;
},
{
horizontal = 1;
place = "{984.8, 163}";
type = Stem;
},
{
place = "{544.66, 269.02}";
type = Stem;
},
{
horizontal = 1;
place = "{789, 111}";
type = Stem;
}
);
layerId = "04043E30-D2B9-406E-ABC7-C215F4DFD662";
paths = (
{
closed = 1;
nodes = (
"501.48 984.79 LINE",
"659.48 984.79 LINE",
"850.21 1147.79 LINE",
"609.21 1147.79 LINE"
);
},
{
closed = 1;
nodes = (
"419.49 789 LINE",
"697.49 789 LINE",
"816 877 LINE",
"829.21 952 LINE",
"633.21 952 LINE",
"624.05 900 LINE",
"522.05 900 LINE",
"531.21 952 LINE",
"345.21 952 LINE",
"332 877 LINE"
);
},
{
closed = 1;
nodes = (
"10.42 0 LINE",
"314.98 0 LINE",
"351.46 109 LINE",
"538.92 109 LINE",
"536.98 0 LINE",
"828.98 0 LINE",
"798.37 737 LINE",
"308.14 737 LINE"
);
},
{
closed = 1;
nodes = (
"412.08 290 LINE",
"505.13 568 LINE",
"547.13 568 LINE",
"542.17 290 LINE"
);
}
);
width = 840;
}
);
leftKerningGroup = A;
note = uni1EAE;
rightKerningGroup = A;
unicode = 1EAE;
},
{
glyphname = uni1EB6;
layers = (
{
hints = (
{
horizontal = 1;
place = "{-209, 158}";
type = Stem;
},
{
horizontal = 1;
place = "{109, 181}";
type = Stem;
},
{
horizontal = 1;
place = "{568, 169}";
type = Stem;
},
{
horizontal = 1;
place = "{789, 163}";
type = Stem;
},
{
place = "{544.66, 269.02}";
type = Stem;
},
{
horizontal = 1;
place = "{789, 111}";
type = Stem;
}
);
layerId = "04043E30-D2B9-406E-ABC7-C215F4DFD662";
paths = (
{
closed = 1;
nodes = (
"419.5 789 LINE",
"697.5 789 LINE",
"816.01 877 LINE",
"829.22 952 LINE",
"633.22 952 LINE",
"624.06 900 LINE",
"522.06 900 LINE",
"531.22 952 LINE",
"345.22 952 LINE",
"332.01 877 LINE"
);
},
{
closed = 1;
nodes = (
"10.43 0 LINE",
"314.99 0 LINE",
"351.47 109 LINE",
"538.93 109 LINE",
"536.99 0 LINE",
"828.99 0 LINE",
"798.38 737 LINE",
"308.15 737 LINE"
);
},
{
closed = 1;
nodes = (
"412.09 290 LINE",
"505.14 568 LINE",
"547.14 568 LINE",
"542.18 290 LINE"
);
},
{
closed = 1;
nodes = (
"253.65 -209 LINE",
"526.65 -209 LINE",
"554.5 -51 LINE",
"281.5 -51 LINE"
);
}
);
width = 840;
}
);
leftKerningGroup = A;
note = uni1EB6;
rightKerningGroup = A;
unicode = 1EB6;
},
{
glyphname = uni1EB0;
layers = (
{
hints = (
{
horizontal = 1;
place = "{109, 181}";
type = Stem;
},
{
horizontal = 1;
place = "{568, 169}";
type = Stem;
},
{
horizontal = 1;
place = "{789, 163}";
type = Stem;
},
{
horizontal = 1;
place = "{985, 163}";
type = Stem;
},
{
place = "{544.66, 269.02}";
type = Stem;
},
{
horizontal = 1;
place = "{789, 111}";
type = Stem;
}
);
layerId = "04043E30-D2B9-406E-ABC7-C215F4DFD662";
paths = (
{
closed = 1;
nodes = (
"504.31 985 LINE",
"666.31 985 LINE",
"586.06 1148 LINE",
"371.06 1148 LINE"
);
},
{
closed = 1;
nodes = (
"419.5 789 LINE",
"697.5 789 LINE",
"816.01 877 LINE",
"829.22 952 LINE",
"633.22 952 LINE",
"624.06 900 LINE",
"522.06 900 LINE",
"531.22 952 LINE",
"345.22 952 LINE",
"332.01 877 LINE"
);
},
{
closed = 1;
nodes = (
"10.43 0 LINE",
"314.99 0 LINE",
"351.47 109 LINE",
"538.93 109 LINE",
"536.99 0 LINE",
"828.99 0 LINE",
"798.38 737 LINE",
"308.15 737 LINE"
);
},
{
closed = 1;
nodes = (
"412.09 290 LINE",
"505.14 568 LINE",
"547.14 568 LINE",
"542.18 290 LINE"
);
}
);
width = 840;
}
);
leftKerningGroup = A;
note = uni1EB0;
rightKerningGroup = A;
unicode = 1EB0;
},
{
glyphname = uni1EB2;
layers = (
{
hints = (
{
horizontal = 1;
place = "{109, 181}";
type = Stem;
},
{
horizontal = 1;
place = "{568, 169}";
type = Stem;
},
{
horizontal = 1;
place = "{789, 163}";
type = Stem;
},
{
horizontal = 1;
place = "{984.99, 106}";
type = Stem;
},
{
horizontal = 1;
place = "{1115.99, 107}";
type = Stem;
},
{
place = "{544.66, 269.02}";
type = Stem;
},
{
horizontal = 1;
place = "{1023.99, 67}";
type = Stem;
},
{
horizontal = 1;
place = "{1180.99, 42}";
type = Stem;
},
{
horizontal = 1;
place = "{1156.99, 66}";
type = Stem;
},
{
horizontal = 1;
place = "{789, 111}";
type = Stem;
}
);
layerId = "04043E30-D2B9-406E-ABC7-C215F4DFD662";
paths = (
{
closed = 1;
nodes = (
"501.72 984.98 LINE",
"669.72 984.98 LINE",
"676.59 1023.98 LINE",
"718.59 1023.98 LINE",
"773.28 1061.98 LINE",
"794.27 1180.98 LINE",
"752.67 1222.98 LINE",
"519.67 1222.98 LINE",
"457.28 1180.98 LINE",
"445.82 1115.98 LINE",
"595.82 1115.98 LINE",
"603.05 1156.98 LINE",
"635.05 1156.98 LINE",
"623.41 1090.98 LINE",
"559.41 1090.98 LINE",
"515.29 1061.98 LINE"
);
},
{
closed = 1;
nodes = (
"419.5 789 LINE",
"697.5 789 LINE",
"816.01 877 LINE",
"829.22 952 LINE",
"633.22 952 LINE",
"624.06 900 LINE",
"522.06 900 LINE",
"531.22 952 LINE",
"345.22 952 LINE",
"332.01 877 LINE"
);
},
{
closed = 1;
nodes = (
"10.43 0 LINE",
"314.99 0 LINE",
"351.47 109 LINE",
"538.93 109 LINE",
"536.99 0 LINE",
"828.99 0 LINE",
"798.38 737 LINE",
"308.15 737 LINE"
);
},
{
closed = 1;
nodes = (
"412.09 290 LINE",
"505.14 568 LINE",
"547.14 568 LINE",
"542.18 290 LINE"
);
}
);
width = 840;
}
);
leftKerningGroup = A;
note = uni1EB2;
rightKerningGroup = A;
unicode = 1EB2;
},
{
glyphname = uni1EB4;
layers = (
{
hints = (
{
horizontal = 1;
place = "{109, 181}";
type = Stem;
},
{
horizontal = 1;
place = "{568, 169}";
type = Stem;
},
{
horizontal = 1;
place = "{789, 163}";
type = Stem;
},
{
horizontal = 1;
place = "{983, 161}";
type = Stem;
},
{
place = "{544.66, 269.02}";
type = Stem;
},
{
horizontal = 1;
place = "{983, 113}";
type = Stem;
},
{
horizontal = 1;
place = "{989, 162}";
type = Stem;
},
{
horizontal = 1;
place = "{1037, 114}";
type = Stem;
},
{
horizontal = 1;
place = "{789, 111}";
type = Stem;
}
);
layerId = "04043E30-D2B9-406E-ABC7-C215F4DFD662";
paths = (
{
closed = 1;
nodes = (
"566.85 983 LINE",
"763.85 983 LINE",
"860.53 1055 LINE",
"876.23 1144 LINE",
"724.23 1144 LINE",
"718.41 1111 LINE",
"699.76 1096 LINE",
"681.76 1096 LINE",
"642.46 1151 LINE",
"444.46 1151 LINE",
"348.42 1077 LINE",
"332.91 989 LINE",
"484.91 989 LINE",
"490.55 1021 LINE",
"509.37 1037 LINE",
"526.37 1037 LINE"
);
},
{
closed = 1;
nodes = (
"419.5 789 LINE",
"697.5 789 LINE",
"816.01 877 LINE",
"829.22 952 LINE",
"633.22 952 LINE",
"624.06 900 LINE",
"522.06 900 LINE",
"531.22 952 LINE",
"345.22 952 LINE",
"332.01 877 LINE"
);
},
{
closed = 1;
nodes = (
"10.43 0 LINE",
"314.99 0 LINE",
"351.47 109 LINE",
"538.93 109 LINE",
"536.99 0 LINE",
"828.99 0 LINE",
"798.38 737 LINE",
"308.15 737 LINE"
);
},
{
closed = 1;
nodes = (
"412.09 290 LINE",
"505.14 568 LINE",
"547.14 568 LINE",
"542.18 290 LINE"
);
}
);
width = 840;
}
);
leftKerningGroup = A;
note = uni1EB4;
rightKerningGroup = A;
unicode = 1EB4;
},
{
glyphname = Acircumflex;
layers = (
{
hints = (
{
horizontal = 1;
place = "{109, 181}";
type = Stem;
},
{
horizontal = 1;
place = "{568, 169}";
type = Stem;
},
{
horizontal = 1;
place = "{789, 163}";
type = Stem;
},
{
place = "{544.66, 269.02}";
type = Stem;
},
{
horizontal = 1;
place = "{865, 87}";
type = Stem;
}
);
layerId = "04043E30-D2B9-406E-ABC7-C215F4DFD662";
paths = (
{
closed = 1;
nodes = (
"288.5 789 LINE",
"480.5 789 LINE",
"569.89 865 LINE",
"632.49 789 LINE",
"819.49 789 LINE",
"725.23 952 LINE",
"440.23 952 LINE"
);
},
{
closed = 1;
nodes = (
"10.43 0 LINE",
"314.99 0 LINE",
"351.47 109 LINE",
"538.93 109 LINE",
"536.99 0 LINE",
"828.99 0 LINE",
"798.38 737 LINE",
"308.15 737 LINE"
);
},
{
closed = 1;
nodes = (
"412.09 290 LINE",
"505.14 568 LINE",
"547.14 568 LINE",
"542.18 290 LINE"
);
}
);
width = 840;
}
);
leftKerningGroup = A;
note = Acircumflex;
rightKerningGroup = A;
unicode = 00C2;
},
{
glyphname = uni1EA4;
layers = (
{
hints = (
{
horizontal = 1;
place = "{109, 181}";
type = Stem;
},
{
horizontal = 1;
place = "{568, 169}";
type = Stem;
},
{
horizontal = 1;
place = "{876.72, 163}";
type = Stem;
},
{
place = "{544.66, 269.02}";
type = Stem;
},
{
horizontal = 1;
place = "{789, 163}";
type = Stem;
},
{
horizontal = 1;
place = "{865, 87}";
type = Stem;
}
);
layerId = "04043E30-D2B9-406E-ABC7-C215F4DFD662";
paths = (
{
closed = 1;
nodes = (
"854.08 876.71 LINE",
"1012.08 876.71 LINE",
"1202.81 1039.71 LINE",
"961.81 1039.71 LINE"
);
},
{
closed = 1;
nodes = (
"288.49 789 LINE",
"480.49 789 LINE",
"569.88 865 LINE",
"632.48 789 LINE",
"819.48 789 LINE",
"725.22 952 LINE",
"440.22 952 LINE"
);
},
{
closed = 1;
nodes = (
"10.42 0 LINE",
"314.98 0 LINE",
"351.46 109 LINE",
"538.92 109 LINE",
"536.98 0 LINE",
"828.98 0 LINE",
"798.37 737 LINE",
"308.14 737 LINE"
);
},
{
closed = 1;
nodes = (
"412.08 290 LINE",
"505.13 568 LINE",
"547.13 568 LINE",
"542.17 290 LINE"
);
}
);
width = 840;
}
);
leftKerningGroup = A;
note = uni1EA4;
rightKerningGroup = A;
unicode = 1EA4;
},
{
glyphname = uni1EAC;
layers = (
{
hints = (
{
horizontal = 1;
place = "{-209, 158}";
type = Stem;
},
{
horizontal = 1;
place = "{109, 181}";
type = Stem;
},
{
horizontal = 1;
place = "{568, 169}";
type = Stem;
},
{
horizontal = 1;
place = "{789, 163}";
type = Stem;
},
{
place = "{544.66, 269.02}";
type = Stem;
},
{
horizontal = 1;
place = "{865, 87}";
type = Stem;
}
);
layerId = "04043E30-D2B9-406E-ABC7-C215F4DFD662";
paths = (
{
closed = 1;
nodes = (
"288.5 789 LINE",
"480.5 789 LINE",
"569.89 865 LINE",
"632.49 789 LINE",
"819.49 789 LINE",
"725.23 952 LINE",
"440.23 952 LINE"
);
},
{
closed = 1;
nodes = (
"10.43 0 LINE",
"314.99 0 LINE",
"351.47 109 LINE",
"538.93 109 LINE",
"536.99 0 LINE",
"828.99 0 LINE",
"798.38 737 LINE",
"308.15 737 LINE"
);
},
{
closed = 1;
nodes = (
"412.09 290 LINE",
"505.14 568 LINE",
"547.14 568 LINE",
"542.18 290 LINE"
);
},
{
closed = 1;
nodes = (
"253.65 -209 LINE",
"526.65 -209 LINE",
"554.5 -51 LINE",
"281.5 -51 LINE"
);
}
);
width = 840;
}
);
leftKerningGroup = A;
note = uni1EAC;
rightKerningGroup = A;
unicode = 1EAC;
},
{
glyphname = uni1EA6;
layers = (
{
hints = (
{
horizontal = 1;
place = "{109, 181}";
type = Stem;
},
{
horizontal = 1;
place = "{568, 169}";
type = Stem;
},
{
horizontal = 1;
place = "{876.53, 163}";
type = Stem;
},
{
place = "{544.66, 269.02}";
type = Stem;
},
{
horizontal = 1;
place = "{789, 163}";
type = Stem;
},
{
horizontal = 1;
place = "{865, 87}";
type = Stem;
}
);
layerId = "04043E30-D2B9-406E-ABC7-C215F4DFD662";
paths = (
{
closed = 1;
nodes = (
"160.5 876.52 LINE",
"322.5 876.52 LINE",
"242.25 1039.52 LINE",
"27.25 1039.52 LINE"
);
},
{
closed = 1;
nodes = (
"288.5 789 LINE",
"480.5 789 LINE",
"569.89 865 LINE",
"632.49 789 LINE",
"819.49 789 LINE",
"725.23 952 LINE",
"440.23 952 LINE"
);
},
{
closed = 1;
nodes = (
"10.43 0 LINE",
"314.99 0 LINE",
"351.47 109 LINE",
"538.93 109 LINE",
"536.99 0 LINE",
"828.99 0 LINE",
"798.38 737 LINE",
"308.15 737 LINE"
);
},
{
closed = 1;
nodes = (
"412.09 290 LINE",
"505.14 568 LINE",
"547.14 568 LINE",
"542.18 290 LINE"
);
}
);
width = 840;
}
);
leftKerningGroup = A;
note = uni1EA6;
rightKerningGroup = A;
unicode = 1EA6;
},
{
glyphname = uni1EA8;
layers = (
{
hints = (
{
horizontal = 1;
place = "{109, 181}";
type = Stem;
},
{
horizontal = 1;
place = "{568, 169}";
type = Stem;
},
{
horizontal = 1;
place = "{876.65, 106}";
type = Stem;
},
{
horizontal = 1;
place = "{1007.65, 107}";
type = Stem;
},
{
place = "{544.66, 269.02}";
type = Stem;
},
{
horizontal = 1;
place = "{915.65, 67}";
type = Stem;
},
{
horizontal = 1;
place = "{1072.65, 42}";
type = Stem;
},
{
horizontal = 1;
place = "{789, 163}";
type = Stem;
},
{
horizontal = 1;
place = "{1048.65, 66}";
type = Stem;
},
{
horizontal = 1;
place = "{865, 87}";
type = Stem;
}
);
layerId = "04043E30-D2B9-406E-ABC7-C215F4DFD662";
paths = (
{
closed = 1;
nodes = (
"816.95 876.64 LINE",
"984.95 876.64 LINE",
"991.83 915.64 LINE",
"1033.83 915.64 LINE",
"1088.52 953.64 LINE",
"1109.5 1072.64 LINE",
"1067.9 1114.64 LINE",
"834.9 1114.64 LINE",
"772.51 1072.64 LINE",
"761.05 1007.64 LINE",
"911.05 1007.64 LINE",
"918.28 1048.64 LINE",
"950.28 1048.64 LINE",
"938.64 982.64 LINE",
"874.64 982.64 LINE",
"830.54 953.64 LINE"
);
},
{
closed = 1;
nodes = (
"288.51 789 LINE",
"480.51 789 LINE",
"569.9 865 LINE",
"632.5 789 LINE",
"819.5 789 LINE",
"725.24 952 LINE",
"440.24 952 LINE"
);
},
{
closed = 1;
nodes = (
"10.44 0 LINE",
"315 0 LINE",
"351.48 109 LINE",
"538.94 109 LINE",
"537 0 LINE",
"829 0 LINE",
"798.39 737 LINE",
"308.16 737 LINE"
);
},
{
closed = 1;
nodes = (
"412.1 290 LINE",
"505.15 568 LINE",
"547.15 568 LINE",
"542.19 290 LINE"
);
}
);
width = 840;
}
);
leftKerningGroup = A;
note = uni1EA8;
rightKerningGroup = A;
unicode = 1EA8;
},
{
glyphname = uni1EAA;
layers = (
{
hints = (
{
horizontal = 1;
place = "{109, 181}";
type = Stem;
},
{
horizontal = 1;
place = "{568, 169}";
type = Stem;
},
{
horizontal = 1;
place = "{789, 163}";
type = Stem;
},
{
horizontal = 1;
place = "{983, 161}";
type = Stem;
},
{
place = "{544.66, 269.02}";
type = Stem;
},
{
horizontal = 1;
place = "{983, 113}";
type = Stem;
},
{
horizontal = 1;
place = "{989, 162}";
type = Stem;
},
{
horizontal = 1;
place = "{1037, 114}";
type = Stem;
},
{
horizontal = 1;
place = "{865, 87}";
type = Stem;
}
);
layerId = "04043E30-D2B9-406E-ABC7-C215F4DFD662";
paths = (
{
closed = 1;
nodes = (
"567.7 983 LINE",
"764.7 983 LINE",
"861.39 1055 LINE",
"877.08 1144 LINE",
"725.08 1144 LINE",
"719.26 1111 LINE",
"700.62 1096 LINE",
"682.62 1096 LINE",
"643.32 1151 LINE",
"445.32 1151 LINE",
"349.29 1077 LINE",
"333.78 989 LINE",
"485.78 989 LINE",
"491.41 1021 LINE",
"510.23 1037 LINE",
"527.23 1037 LINE"
);
},
{
closed = 1;
nodes = (
"288.51 789 LINE",
"480.51 789 LINE",
"569.9 865 LINE",
"632.5 789 LINE",
"819.5 789 LINE",
"725.24 952 LINE",
"440.24 952 LINE"
);
},
{
closed = 1;
nodes = (
"10.44 0 LINE",
"315 0 LINE",
"351.48 109 LINE",
"538.94 109 LINE",
"537 0 LINE",
"829 0 LINE",
"798.39 737 LINE",
"308.16 737 LINE"
);
},
{
closed = 1;
nodes = (
"412.1 290 LINE",
"505.15 568 LINE",
"547.15 568 LINE",
"542.19 290 LINE"
);
}
);
width = 840;
}
);
leftKerningGroup = A;
note = uni1EAA;
rightKerningGroup = A;
unicode = 1EAA;
},
{
glyphname = uni0200;
layers = (
{
hints = (
{
horizontal = 1;
place = "{109, 181}";
type = Stem;
},
{
horizontal = 1;
place = "{568, 169}";
type = Stem;
},
{
horizontal = 1;
place = "{789, 163}";
type = Stem;
},
{
place = "{544.66, 269.02}";
type = Stem;
}
);
layerId = "04043E30-D2B9-406E-ABC7-C215F4DFD662";
paths = (
{
closed = 1;
nodes = (
"323.5 789 LINE",
"485.5 789 LINE",
"405.24 952 LINE",
"190.24 952 LINE"
);
},
{
closed = 1;
nodes = (
"610.5 789 LINE",
"772.5 789 LINE",
"692.24 952 LINE",
"477.24 952 LINE"
);
},
{
closed = 1;
nodes = (
"10.44 0 LINE",
"315 0 LINE",
"351.48 109 LINE",
"538.94 109 LINE",
"537 0 LINE",
"829 0 LINE",
"798.39 737 LINE",
"308.16 737 LINE"
);
},
{
closed = 1;
nodes = (
"412.1 290 LINE",
"505.15 568 LINE",
"547.15 568 LINE",
"542.19 290 LINE"
);
}
);
width = 840;
}
);
leftKerningGroup = A;
note = uni0200;
rightKerningGroup = A;
unicode = 0200;
},
{
glyphname = Adieresis;
layers = (
{
hints = (
{
horizontal = 1;
place = "{109, 181}";
type = Stem;
},
{
horizontal = 1;
place = "{568, 169}";
type = Stem;
},
{
horizontal = 1;
place = "{789, 158}";
type = Stem;
},
{
place = "{544.66, 269.02}";
type = Stem;
}
);
layerId = "04043E30-D2B9-406E-ABC7-C215F4DFD662";
paths = (
{
closed = 1;
nodes = (
"279.45 789 LINE",
"527.45 789 LINE",
"555.3 947 LINE",
"307.3 947 LINE"
);
},
{
closed = 1;
nodes = (
"585.85 789 LINE",
"833.85 789 LINE",
"861.7 947 LINE",
"613.7 947 LINE"
);
},
{
closed = 1;
nodes = (
"10.42 0 LINE",
"314.98 0 LINE",
"351.46 109 LINE",
"538.92 109 LINE",
"536.98 0 LINE",
"828.98 0 LINE",
"798.37 737 LINE",
"308.14 737 LINE"
);
},
{
closed = 1;
nodes = (
"412.08 290 LINE",
"505.13 568 LINE",
"547.13 568 LINE",
"542.17 290 LINE"
);
}
);
width = 840;
}
);
leftKerningGroup = A;
note = Adieresis;
rightKerningGroup = A;
unicode = 00C4;
},
{
glyphname = uni1EA0;
layers = (
{
hints = (
{
horizontal = 1;
place = "{-209, 158}";
type = Stem;
},
{
horizontal = 1;
place = "{109, 181}";
type = Stem;
},
{
horizontal = 1;
place = "{568, 169}";
type = Stem;
},
{
place = "{544.66, 269.02}";
type = Stem;
}
);
layerId = "04043E30-D2B9-406E-ABC7-C215F4DFD662";
paths = (
{
closed = 1;
nodes = (
"10.43 0 LINE",
"314.99 0 LINE",
"351.47 109 LINE",
"538.93 109 LINE",
"536.99 0 LINE",
"828.99 0 LINE",
"798.38 737 LINE",
"308.15 737 LINE"
);
},
{
closed = 1;
nodes = (
"412.09 290 LINE",
"505.14 568 LINE",
"547.14 568 LINE",
"542.18 290 LINE"
);
},
{
closed = 1;
nodes = (
"253.65 -209 LINE",
"526.65 -209 LINE",
"554.5 -51 LINE",
"281.5 -51 LINE"
);
}
);
width = 840;
}
);
leftKerningGroup = A;
note = uni1EA0;
rightKerningGroup = A;
unicode = 1EA0;
},
{
glyphname = Agrave;
layers = (
{
hints = (
{
horizontal = 1;
place = "{109, 181}";
type = Stem;
},
{
horizontal = 1;
place = "{568, 169}";
type = Stem;
},
{
horizontal = 1;
place = "{789, 163}";
type = Stem;
},
{
place = "{544.66, 269.02}";
type = Stem;
}
);
layerId = "04043E30-D2B9-406E-ABC7-C215F4DFD662";
paths = (
{
closed = 1;
nodes = (
"478.5 789 LINE",
"640.5 789 LINE",
"560.24 952 LINE",
"345.24 952 LINE"
);
},
{
closed = 1;
nodes = (
"10.44 0 LINE",
"315 0 LINE",
"351.48 109 LINE",
"538.94 109 LINE",
"537 0 LINE",
"829 0 LINE",
"798.39 737 LINE",
"308.16 737 LINE"
);
},
{
closed = 1;
nodes = (
"412.1 290 LINE",
"505.15 568 LINE",
"547.15 568 LINE",
"542.19 290 LINE"
);
}
);
width = 840;
}
);
leftKerningGroup = A;
note = Agrave;
rightKerningGroup = A;
unicode = 00C0;
},
{
glyphname = uni1EA2;
layers = (
{
hints = (
{
horizontal = 1;
place = "{109, 181}";
type = Stem;
},
{
horizontal = 1;
place = "{568, 169}";
type = Stem;
},
{
horizontal = 1;
place = "{789, 106}";
type = Stem;
},
{
horizontal = 1;
place = "{920, 107}";
type = Stem;
},
{
place = "{544.66, 269.02}";
type = Stem;
},
{
horizontal = 1;
place = "{828, 67}";
type = Stem;
},
{
horizontal = 1;
place = "{985, 42}";
type = Stem;
},
{
horizontal = 1;
place = "{961, 66}";
type = Stem;
}
);
layerId = "04043E30-D2B9-406E-ABC7-C215F4DFD662";
paths = (
{
closed = 1;
nodes = (
"472.5 789 LINE",
"640.5 789 LINE",
"647.37 828 LINE",
"689.37 828 LINE",
"744.06 866 LINE",
"765.04 985 LINE",
"723.46 1027 LINE",
"490.46 1027 LINE",
"428.05 985 LINE",
"416.59 920 LINE",
"566.59 920 LINE",
"573.82 961 LINE",
"605.82 961 LINE",
"594.18 895 LINE",
"530.18 895 LINE",
"486.08 866 LINE"
);
},
{
closed = 1;
nodes = (
"10.44 0 LINE",
"315 0 LINE",
"351.48 109 LINE",
"538.94 109 LINE",
"537 0 LINE",
"829 0 LINE",
"798.39 737 LINE",
"308.16 737 LINE"
);
},
{
closed = 1;
nodes = (
"412.1 290 LINE",
"505.15 568 LINE",
"547.15 568 LINE",
"542.19 290 LINE"
);
}
);
width = 840;
}
);
leftKerningGroup = A;
note = uni1EA2;
rightKerningGroup = A;
unicode = 1EA2;
},
{
glyphname = uni0202;
layers = (
{
hints = (
{
horizontal = 1;
place = "{109, 181}";
type = Stem;
},
{
horizontal = 1;
place = "{568, 169}";
type = Stem;
},
{
horizontal = 1;
place = "{789, 163}";
type = Stem;
},
{
place = "{544.66, 269.02}";
type = Stem;
},
{
horizontal = 1;
place = "{841, 111}";
type = Stem;
}
);
layerId = "04043E30-D2B9-406E-ABC7-C215F4DFD662";
paths = (
{
closed = 1;
nodes = (
"309.5 789 LINE",
"505.5 789 LINE",
"514.66 841 LINE",
"616.66 841 LINE",
"607.5 789 LINE",
"803.5 789 LINE",
"816.72 864 LINE",
"729.24 952 LINE",
"441.24 952 LINE",
"322.73 864 LINE"
);
},
{
closed = 1;
nodes = (
"10.45 0 LINE",
"315.01 0 LINE",
"351.49 109 LINE",
"538.95 109 LINE",
"537.01 0 LINE",
"829.01 0 LINE",
"798.4 737 LINE",
"308.17 737 LINE"
);
},
{
closed = 1;
nodes = (
"412.11 290 LINE",
"505.16 568 LINE",
"547.16 568 LINE",
"542.2 290 LINE"
);
}
);
width = 840;
}
);
leftKerningGroup = A;
note = uni0202;
rightKerningGroup = A;
unicode = 0202;
},
{
glyphname = Amacron;
layers = (
{
hints = (
{
horizontal = 1;
place = "{109, 181}";
type = Stem;
},
{
horizontal = 1;
place = "{568, 169}";
type = Stem;
},
{
horizontal = 1;
place = "{789, 149}";
type = Stem;
},
{
place = "{544.66, 269.02}";
type = Stem;
}
);
layerId = "04043E30-D2B9-406E-ABC7-C215F4DFD662";
paths = (
{
closed = 1;
nodes = (
"278.5 789 LINE",
"834.5 789 LINE",
"860.77 938 LINE",
"304.77 938 LINE"
);
},
{
closed = 1;
nodes = (
"10.44 0 LINE",
"315 0 LINE",
"351.48 109 LINE",
"538.94 109 LINE",
"537 0 LINE",
"829 0 LINE",
"798.39 737 LINE",
"308.16 737 LINE"
);
},
{
closed = 1;
nodes = (
"412.1 290 LINE",
"505.15 568 LINE",
"547.15 568 LINE",
"542.19 290 LINE"
);
}
);
width = 840;
}
);
leftKerningGroup = A;
note = Amacron;
rightKerningGroup = A;
unicode = 0100;
},
{
glyphname = Aogonek;
layers = (
{
hints = (
{
horizontal = 1;
place = "{-191, 127}";
type = Stem;
},
{
horizontal = 1;
place = "{109, 181}";
type = Stem;
},
{
horizontal = 1;
place = "{568, 169}";
type = Stem;
},
{
place = "{544.66, 269.02}";
type = Stem;
},
{
place = "{537.97, 83.25}";
type = Stem;
}
);
layerId = "04043E30-D2B9-406E-ABC7-C215F4DFD662";
paths = (
{
closed = 1;
nodes = (
"10.43 0 LINE",
"314.99 0 LINE",
"351.47 109 LINE",
"538.93 109 LINE",
"536.99 0 LINE",
"486.1 -33 LINE",
"470.4 -122 LINE",
"541.24 -191 LINE",
"638.24 -191 LINE",
"660.62 -64 LINE",
"632.62 -64 LINE",
"619.1 -50 LINE",
"623.33 -26 LINE",
"657.91 0 LINE",
"828.98 0 LINE",
"798.37 737 LINE",
"308.14 737 LINE"
);
},
{
closed = 1;
nodes = (
"412.08 290 LINE",
"505.13 568 LINE",
"547.13 568 LINE",
"542.17 290 LINE"
);
}
);
width = 840;
}
);
leftKerningGroup = A;
note = Aogonek;
rightKerningGroup = A;
unicode = 0104;
},
{
glyphname = Aring;
layers = (
{
hints = (
{
horizontal = 1;
place = "{109, 181}";
type = Stem;
},
{
horizontal = 1;
place = "{568, 169}";
type = Stem;
},
{
horizontal = 1;
place = "{789, 97}";
type = Stem;
},
{
horizontal = 1;
place = "{932, 97}";
type = Stem;
},
{
place = "{544.66, 269.02}";
type = Stem;
}
);
layerId = "04043E30-D2B9-406E-ABC7-C215F4DFD662";
paths = (
{
closed = 1;
nodes = (
"489 789 LINE",
"624 789 LINE",
"713.39 865 LINE",
"728.9 953 LINE",
"666.3 1029 LINE",
"531.3 1029 LINE",
"441.91 953 LINE",
"426.4 865 LINE"
);
},
{
closed = 1;
nodes = (
"564.61 886 LINE",
"553.08 900 LINE",
"556.06 917 LINE",
"572.71 932 LINE",
"589.71 932 LINE",
"602.05 917 LINE",
"599.07 900 LINE",
"581.61 886 LINE"
);
},
{
closed = 1;
nodes = (
"10.44 0 LINE",
"315 0 LINE",
"351.48 109 LINE",
"538.94 109 LINE",
"537 0 LINE",
"829 0 LINE",
"798.39 737 LINE",
"308.16 737 LINE"
);
},
{
closed = 1;
nodes = (
"412.1 290 LINE",
"505.15 568 LINE",
"547.15 568 LINE",
"542.19 290 LINE"
);
}
);
width = 840;
}
);
leftKerningGroup = A;
note = Aring;
rightKerningGroup = A;
unicode = 00C5;
},
{
glyphname = Aringacute;
layers = (
{
hints = (
{
horizontal = 1;
place = "{109, 181}";
type = Stem;
},
{
horizontal = 1;
place = "{568, 169}";
type = Stem;
},
{
horizontal = 1;
place = "{789, 97}";
type = Stem;
},
{
horizontal = 1;
place = "{932, 97}";
type = Stem;
},
{
horizontal = 1;
place = "{1061.1, 163}";
type = Stem;
},
{
place = "{544.66, 269.02}";
type = Stem;
}
);
layerId = "04043E30-D2B9-406E-ABC7-C215F4DFD662";
paths = (
{
closed = 1;
nodes = (
"525.02 1061.09 LINE",
"683.02 1061.09 LINE",
"873.76 1224.09 LINE",
"632.76 1224.09 LINE"
);
},
{
closed = 1;
nodes = (
"489 789 LINE",
"624 789 LINE",
"713.39 865 LINE",
"728.9 953 LINE",
"666.3 1029 LINE",
"531.3 1029 LINE",
"441.91 953 LINE",
"426.4 865 LINE"
);
},
{
closed = 1;
nodes = (
"564.61 886 LINE",
"553.08 900 LINE",
"556.06 917 LINE",
"572.71 932 LINE",
"589.71 932 LINE",
"602.05 917 LINE",
"599.07 900 LINE",
"581.61 886 LINE"
);
},
{
closed = 1;
nodes = (
"10.44 0 LINE",
"315 0 LINE",
"351.48 109 LINE",
"538.94 109 LINE",
"537 0 LINE",
"829 0 LINE",
"798.39 737 LINE",
"308.16 737 LINE"
);
},
{
closed = 1;
nodes = (
"412.1 290 LINE",
"505.15 568 LINE",
"547.15 568 LINE",
"542.19 290 LINE"
);
}
);
width = 840;
}
);
leftKerningGroup = A;
note = Aringacute;
rightKerningGroup = A;
unicode = 01FA;
},
{
glyphname = Atilde;
layers = (
{
hints = (
{
horizontal = 1;
place = "{109, 181}";
type = Stem;
},
{
horizontal = 1;
place = "{568, 169}";
type = Stem;
},
{
horizontal = 1;
place = "{789, 161}";
type = Stem;
},
{
place = "{544.66, 269.02}";
type = Stem;
},
{
horizontal = 1;
place = "{789, 113}";
type = Stem;
},
{
horizontal = 1;
place = "{795, 162}";
type = Stem;
},
{
horizontal = 1;
place = "{843, 114}";
type = Stem;
}
);
layerId = "04043E30-D2B9-406E-ABC7-C215F4DFD662";
paths = (
{
closed = 1;
nodes = (
"534.5 789 LINE",
"731.5 789 LINE",
"828.19 861 LINE",
"843.87 950 LINE",
"691.87 950 LINE",
"686.05 917 LINE",
"667.42 902 LINE",
"649.42 902 LINE",
"610.12 957 LINE",
"412.12 957 LINE",
"316.07 883 LINE",
"300.56 795 LINE",
"452.56 795 LINE",
"458.2 827 LINE",
"477.02 843 LINE",
"494.02 843 LINE"
);
},
{
closed = 1;
nodes = (
"10.44 0 LINE",
"315 0 LINE",
"351.48 109 LINE",
"538.94 109 LINE",
"537 0 LINE",
"829 0 LINE",
"798.39 737 LINE",
"308.16 737 LINE"
);
},
{
closed = 1;
nodes = (
"412.1 290 LINE",
"505.15 568 LINE",
"547.15 568 LINE",
"542.19 290 LINE"
);
}
);
width = 840;
}
);
leftKerningGroup = A;
note = Atilde;
rightKerningGroup = A;
unicode = 00C3;
},
{
glyphname = AE;
layers = (
{
hints = (
{
horizontal = 1;
place = "{0, 197}";
type = Stem;
},
{
horizontal = 1;
place = "{289, 159}";
type = Stem;
},
{
horizontal = 1;
place = "{540, 197}";
type = Stem;
},
{
place = "{543.66, 264.45}";
type = Stem;
},
{
horizontal = 1;
place = "{109, 181}";
type = Stem;
},
{
place = "{536.97, 282.05}";
type = Stem;
},
{
place = "{543.66, 275.36}";
type = Stem;
},
{
horizontal = 1;
place = "{568, 169}";
type = Stem;
}
);
layerId = "04043E30-D2B9-406E-ABC7-C215F4DFD662";
paths = (
{
closed = 1;
nodes = (
"10.43 0 LINE",
"313.99 0 LINE",
"350.47 109 LINE",
"537.93 109 LINE",
"535.99 0 LINE",
"1128.57 0 LINE",
"1163.3 197 LINE",
"821 197 LINE",
"817 289 LINE",
"1136.51 289 LINE",
"1164.55 448 LINE",
"810.07 448 LINE",
"806.07 540 LINE",
"1223.76 540 LINE",
"1258.49 737 LINE",
"308.1 737 LINE"
);
},
{
closed = 1;
nodes = (
"411.04 290 LINE",
"504.09 568 LINE",
"546.09 568 LINE",
"541.13 290 LINE"
);
}
);
width = 1168;
}
);
leftKerningGroup = A;
note = AE;
rightKerningGroup = AE;
unicode = 00C6;
},
{
glyphname = AEacute;
layers = (
{
hints = (
{
horizontal = 1;
place = "{0, 197}";
type = Stem;
},
{
horizontal = 1;
place = "{289, 159}";
type = Stem;
},
{
horizontal = 1;
place = "{540, 197}";
type = Stem;
},
{
horizontal = 1;
place = "{789, 163}";
type = Stem;
},
{
place = "{543.66, 264.45}";
type = Stem;
},
{
horizontal = 1;
place = "{109, 181}";
type = Stem;
},
{
place = "{536.97, 282.05}";
type = Stem;
},
{
place = "{543.66, 275.36}";
type = Stem;
},
{
horizontal = 1;
place = "{568, 169}";
type = Stem;
}
);
layerId = "04043E30-D2B9-406E-ABC7-C215F4DFD662";
paths = (
{
closed = 1;
nodes = (
"487.11 789 LINE",
"645.11 789 LINE",
"835.85 952 LINE",
"594.85 952 LINE"
);
},
{
closed = 1;
nodes = (
"10.43 0 LINE",
"313.99 0 LINE",
"350.47 109 LINE",
"537.93 109 LINE",
"535.99 0 LINE",
"1128.57 0 LINE",
"1163.3 197 LINE",
"821 197 LINE",
"817 289 LINE",
"1136.51 289 LINE",
"1164.55 448 LINE",
"810.07 448 LINE",
"806.07 540 LINE",
"1223.76 540 LINE",
"1258.49 737 LINE",
"308.1 737 LINE"
);
},
{
closed = 1;
nodes = (
"411.04 290 LINE",
"504.09 568 LINE",
"546.09 568 LINE",
"541.13 290 LINE"
);
}
);
width = 1168;
}
);
leftKerningGroup = A;
note = AEacute;
rightKerningGroup = AE;
unicode = 01FC;
},
{
glyphname = B;
layers = (
{
hints = (
{
horizontal = 1;
place = "{0, 153}";
type = Stem;
},
{
horizontal = 1;
place = "{309, 153}";
type = Stem;
},
{
horizontal = 1;
place = "{584, 153}";
type = Stem;
},
{
place = "{45, 821}";
type = Stem;
}
);
layerId = "04043E30-D2B9-406E-ABC7-C215F4DFD662";
paths = (
{
closed = 1;
nodes = (
"45 0 LINE",
"664.5 0 LINE",
"792.25 95 LINE",
"833.85 331 LINE",
"766.5 397 LINE",
"830.78 444 LINE",
"865.69 642 LINE",
"771.44 737 LINE",
"174.94 737 LINE"
);
},
{
closed = 1;
nodes = (
"416.35 462 LINE",
"437.86 584 LINE",
"581.44 584 LINE",
"559.93 462 LINE"
);
},
{
closed = 1;
nodes = (
"361.86 153 LINE",
"389.36 309 LINE",
"539.96 309 LINE",
"512.45 153 LINE"
);
}
);
width = 810;
}
);
leftKerningGroup = B;
note = B;
rightKerningGroup = B;
unicode = 0042;
},
{
glyphname = C;
layers = (
{
hints = (
{
horizontal = 1;
place = "{0, 153}";
type = Stem;
},
{
horizontal = 1;
place = "{584, 153}";
type = Stem;
},
{
place = "{51, 814}";
type = Stem;
}
);
layerId = "04043E30-D2B9-406E-ABC7-C215F4DFD662";
paths = (
{
closed = 1;
nodes = (
"145 0 LINE",
"644 0 LINE",
"771.75 95 LINE",
"810 312 LINE",
"512 312 LINE",
"483.97 153 LINE",
"350.97 153 LINE",
"426.97 584 LINE",
"557.96 584 LINE",
"530.46 428 LINE",
"827.46 428 LINE",
"865.19 642 LINE",
"770.94 737 LINE",
"274.94 737 LINE",
"147.19 642 LINE",
"50.75 95 LINE"
);
}
);
width = 789;
}
);
note = C;
rightKerningGroup = C;
unicode = 0043;
},
{
glyphname = Cacute;
layers = (
{
hints = (
{
horizontal = 1;
place = "{0, 153}";
type = Stem;
},
{
horizontal = 1;
place = "{584, 153}";
type = Stem;
},
{
horizontal = 1;
place = "{789, 163}";
type = Stem;
},
{
place = "{51, 814}";
type = Stem;
}
);
layerId = "04043E30-D2B9-406E-ABC7-C215F4DFD662";
paths = (
{
closed = 1;
nodes = (
"455.11 789 LINE",
"613.11 789 LINE",
"803.85 952 LINE",
"562.85 952 LINE"
);
},
{
closed = 1;
nodes = (
"145 0 LINE",
"644 0 LINE",
"771.75 95 LINE",
"810 312 LINE",
"512 312 LINE",
"483.97 153 LINE",
"350.97 153 LINE",
"426.97 584 LINE",
"557.96 584 LINE",
"530.46 428 LINE",
"827.46 428 LINE",
"865.19 642 LINE",
"770.94 737 LINE",
"274.94 737 LINE",
"147.19 642 LINE",
"50.75 95 LINE"
);
}
);
width = 789;
}
);
note = Cacute;
rightKerningGroup = C;
unicode = 0106;
},
{
glyphname = Ccaron;
layers = (
{
hints = (
{
horizontal = 1;
place = "{0, 153}";
type = Stem;
},
{
horizontal = 1;
place = "{584, 153}";
type = Stem;
},
{
horizontal = 1;
place = "{789, 163}";
type = Stem;
},
{
place = "{51, 814}";
type = Stem;
}
);
layerId = "04043E30-D2B9-406E-ABC7-C215F4DFD662";
paths = (
{
closed = 1;
nodes = (
"393.11 789 LINE",
"678.11 789 LINE",
"829.85 952 LINE",
"637.85 952 LINE",
"548.45 876 LINE",
"485.86 952 LINE",
"298.86 952 LINE"
);
},
{
closed = 1;
nodes = (
"145.01 0 LINE",
"644.01 0 LINE",
"771.76 95 LINE",
"810.01 312 LINE",
"512.01 312 LINE",
"483.98 153 LINE",
"350.98 153 LINE",
"426.98 584 LINE",
"557.97 584 LINE",
"530.47 428 LINE",
"827.47 428 LINE",
"865.2 642 LINE",
"770.95 737 LINE",
"274.95 737 LINE",
"147.2 642 LINE",
"50.76 95 LINE"
);
}
);
width = 789;
}
);
note = Ccaron;
rightKerningGroup = C;
unicode = 010C;
},
{
glyphname = Ccedilla;
layers = (
{
hints = (
{
horizontal = 1;
place = "{0, 153}";
type = Stem;
},
{
horizontal = 1;
place = "{584, 153}";
type = Stem;
},
{
place = "{51, 814}";
type = Stem;
}
);
layerId = "04043E30-D2B9-406E-ABC7-C215F4DFD662";
paths = (
{
closed = 1;
nodes = (
"50.75 95 LINE",
"145 0 LINE",
"283 0 LINE",
"240.96 -125 LINE",
"414.96 -125 LINE",
"500 0 LINE",
"644 0 LINE",
"771.75 95 LINE",
"810 312 LINE",
"512 312 LINE",
"483.97 153 LINE",
"350.97 153 LINE",
"426.97 584 LINE",
"557.96 584 LINE",
"530.46 428 LINE",
"827.46 428 LINE",
"865.19 642 LINE",
"770.94 737 LINE",
"274.94 737 LINE",
"147.19 642 LINE"
);
}
);
width = 789;
}
);
note = Ccedilla;
rightKerningGroup = C;
unicode = 00C7;
},
{
glyphname = Ccircumflex;
layers = (
{
hints = (
{
horizontal = 1;
place = "{0, 153}";
type = Stem;
},
{
horizontal = 1;
place = "{584, 153}";
type = Stem;
},
{
horizontal = 1;
place = "{789, 163}";
type = Stem;
},
{
place = "{51, 814}";
type = Stem;
},
{
horizontal = 1;
place = "{865, 87}";
type = Stem;
}
);
layerId = "04043E30-D2B9-406E-ABC7-C215F4DFD662";
paths = (
{
closed = 1;
nodes = (
"265.11 789 LINE",
"457.11 789 LINE",
"546.51 865 LINE",
"609.1 789 LINE",
"796.1 789 LINE",
"701.85 952 LINE",
"416.85 952 LINE"
);
},
{
closed = 1;
nodes = (
"145 0 LINE",
"644 0 LINE",
"771.75 95 LINE",
"810 312 LINE",
"512 312 LINE",
"483.97 153 LINE",
"350.97 153 LINE",
"426.97 584 LINE",
"557.96 584 LINE",
"530.46 428 LINE",
"827.46 428 LINE",
"865.19 642 LINE",
"770.94 737 LINE",
"274.94 737 LINE",
"147.19 642 LINE",
"50.75 95 LINE"
);
}
);
width = 789;
}
);
note = Ccircumflex;
rightKerningGroup = C;
unicode = 0108;
},
{
glyphname = Cdotaccent;
layers = (
{
hints = (
{
horizontal = 1;
place = "{0, 153}";
type = Stem;
},
{
horizontal = 1;
place = "{584, 153}";
type = Stem;
},
{
horizontal = 1;
place = "{789, 158}";
type = Stem;
},
{
place = "{51, 814}";
type = Stem;
}
);
layerId = "04043E30-D2B9-406E-ABC7-C215F4DFD662";
paths = (
{
closed = 1;
nodes = (
"396.61 789 LINE",
"669.61 789 LINE",
"697.46 947 LINE",
"424.46 947 LINE"
);
},
{
closed = 1;
nodes = (
"144.99 0 LINE",
"643.99 0 LINE",
"771.74 95 LINE",
"809.99 312 LINE",
"511.99 312 LINE",
"483.96 153 LINE",
"350.96 153 LINE",
"426.96 584 LINE",
"557.95 584 LINE",
"530.45 428 LINE",
"827.45 428 LINE",
"865.18 642 LINE",
"770.93 737 LINE",
"274.93 737 LINE",
"147.18 642 LINE",
"50.74 95 LINE"
);
}
);
width = 789;
}
);
note = Cdotaccent;
rightKerningGroup = C;
unicode = 010A;
},
{
glyphname = D;
layers = (
{
hints = (
{
horizontal = 1;
place = "{0, 153}";
type = Stem;
},
{
horizontal = 1;
place = "{584, 153}";
type = Stem;
},
{
place = "{45, 837}";
type = Stem;
}
);
layerId = "04043E30-D2B9-406E-ABC7-C215F4DFD662";
paths = (
{
closed = 1;
nodes = (
"45 0 LINE",
"612.5 0 LINE",
"804.94 150 LINE",
"881.81 586 LINE",
"742.44 737 LINE",
"174.94 737 LINE"
);
},
{
closed = 1;
nodes = (
"361.86 153 LINE",
"437.86 584 LINE",
"591.44 584 LINE",
"515.45 153 LINE"
);
}
);
width = 813;
}
);
leftKerningGroup = B;
note = D;
rightKerningGroup = D;
unicode = 0044;
},
{
glyphname = uni01C4;
layers = (
{
hints = (
{
horizontal = 1;
place = "{0, 153}";
type = Stem;
},
{
horizontal = 1;
place = "{584, 153}";
type = Stem;
},
{
horizontal = 1;
place = "{789, 163}";
type = Stem;
},
{
place = "{45, 1566}";
type = Stem;
},
{
horizontal = 1;
place = "{0, 197}";
type = Stem;
},
{
horizontal = 1;
place = "{540, 197}";
type = Stem;
}
);
layerId = "04043E30-D2B9-406E-ABC7-C215F4DFD662";
paths = (
{
closed = 1;
nodes = (
"1170.94 789 LINE",
"1455.94 789 LINE",
"1607.67 952 LINE",
"1415.67 952 LINE",
"1326.28 876 LINE",
"1263.68 952 LINE",
"1076.68 952 LINE"
);
},
{
closed = 1;
nodes = (
"45 0 LINE",
"612.5 0 LINE",
"804.94 150 LINE",
"881.81 586 LINE",
"742.44 737 LINE",
"174.94 737 LINE"
);
},
{
closed = 1;
nodes = (
"839.81 0 LINE",
"1480.81 0 LINE",
"1515.54 197 LINE",
"1208.54 197 LINE",
"1574.08 529 LINE",
"1610.74 737 LINE",
"984.74 737 LINE",
"950.01 540 LINE",
"1245.01 540 LINE",
"876.48 208 LINE"
);
},
{
closed = 1;
nodes = (
"361.86 153 LINE",
"437.86 584 LINE",
"591.44 584 LINE",
"515.45 153 LINE"
);
}
);
width = 1514;
}
);
note = uni01C4;
unicode = 01C4;
},
{
glyphname = Eth;
layers = (
{
hints = (
{
horizontal = 1;
place = "{0, 153}";
type = Stem;
},
{
horizontal = 1;
place = "{305, 138}";
type = Stem;
},
{
horizontal = 1;
place = "{584, 153}";
type = Stem;
},
{
place = "{44, 838}";
type = Stem;
}
);
layerId = "04043E30-D2B9-406E-ABC7-C215F4DFD662";
paths = (
{
closed = 1;
nodes = (
"44.27 305 LINE",
"98.77 305 LINE",
"45 0 LINE",
"612.5 0 LINE",
"804.94 150 LINE",
"881.81 586 LINE",
"742.44 737 LINE",
"174.94 737 LINE",
"123.11 443 LINE",
"68.61 443 LINE"
);
},
{
closed = 1;
nodes = (
"361.87 153 LINE",
"388.67 305 LINE",
"473.26 305 LINE",
"497.59 443 LINE",
"412.99 443 LINE",
"437.86 584 LINE",
"591.44 584 LINE",
"515.45 153 LINE"
);
}
);
width = 811;
}
);
note = Eth;
rightKerningGroup = D;
unicode = 00D0;
},
{
glyphname = Dcaron;
layers = (
{
hints = (
{
horizontal = 1;
place = "{0, 153}";
type = Stem;
},
{
horizontal = 1;
place = "{584, 153}";
type = Stem;
},
{
horizontal = 1;
place = "{789, 163}";
type = Stem;
},
{
place = "{45, 837}";
type = Stem;
}
);
layerId = "04043E30-D2B9-406E-ABC7-C215F4DFD662";
paths = (
{
closed = 1;
nodes = (
"382.61 789 LINE",
"667.61 789 LINE",
"819.35 952 LINE",
"627.35 952 LINE",
"537.95 876 LINE",
"475.36 952 LINE",
"288.36 952 LINE"
);
},
{
closed = 1;
nodes = (
"45.01 0 LINE",
"612.51 0 LINE",
"804.95 150 LINE",
"881.82 586 LINE",
"742.45 737 LINE",
"174.95 737 LINE"
);
},
{
closed = 1;
nodes = (
"361.87 153 LINE",
"437.87 584 LINE",
"591.45 584 LINE",
"515.46 153 LINE"
);
}
);
width = 813;
}
);
note = Dcaron;
rightKerningGroup = D;
unicode = 010E;
},
{
glyphname = Dcroat;
layers = (
{
hints = (
{
horizontal = 1;
place = "{0, 153}";
type = Stem;
},
{
horizontal = 1;
place = "{305, 138}";
type = Stem;
},
{
horizontal = 1;
place = "{584, 153}";
type = Stem;
},
{
place = "{44, 838}";
type = Stem;
}
);
layerId = "04043E30-D2B9-406E-ABC7-C215F4DFD662";
paths = (
{
closed = 1;
nodes = (
"44.27 305 LINE",
"98.77 305 LINE",
"45 0 LINE",
"612.5 0 LINE",
"804.94 150 LINE",
"881.81 586 LINE",
"742.44 737 LINE",
"174.94 737 LINE",
"123.11 443 LINE",
"68.61 443 LINE"
);
},
{
closed = 1;
nodes = (
"361.87 153 LINE",
"388.67 305 LINE",
"473.26 305 LINE",
"497.59 443 LINE",
"412.99 443 LINE",
"437.86 584 LINE",
"591.44 584 LINE",
"515.45 153 LINE"
);
}
);
width = 811;
}
);
note = Dcroat;
rightKerningGroup = D;
unicode = 0110;
},
{
glyphname = uni01C5;
layers = (
{
hints = (
{
horizontal = 1;
place = "{0, 153}";
type = Stem;
},
{
horizontal = 1;
place = "{386, 137}";
type = Stem;
},
{
horizontal = 1;
place = "{575, 163}";
type = Stem;
},
{
place = "{45, 1482}";
type = Stem;
},
{
horizontal = 1;
place = "{584, 153}";
type = Stem;
},
{
horizontal = 1;
place = "{0, 136}";
type = Stem;
}
);
layerId = "04043E30-D2B9-406E-ABC7-C215F4DFD662";
paths = (
{
closed = 1;
nodes = (
"1090.21 575 LINE",
"1375.21 575 LINE",
"1526.94 738 LINE",
"1334.94 738 LINE",
"1245.55 662 LINE",
"1182.95 738 LINE",
"995.95 738 LINE"
);
},
{
closed = 1;
nodes = (
"45 0 LINE",
"612.5 0 LINE",
"804.94 150 LINE",
"881.81 586 LINE",
"742.44 737 LINE",
"174.94 737 LINE"
);
},
{
closed = 1;
nodes = (
"361.86 153 LINE",
"437.86 584 LINE",
"591.44 584 LINE",
"515.45 153 LINE"
);
},
{
closed = 1;
nodes = (
"845.8 0 LINE",
"1408.8 0 LINE",
"1432.78 136 LINE",
"1193.28 136 LINE",
"1465.1 376 LINE",
"1491.01 523 LINE",
"962.01 523 LINE",
"937.85 386 LINE",
"1145.42 386 LINE",
"870.66 141 LINE"
);
}
);
width = 1442;
}
);
note = uni01C5;
unicode = 01C5;
},
{
glyphname = E;
layers = (
{
hints = (
{
horizontal = 1;
place = "{0, 197}";
type = Stem;
},
{
horizontal = 1;
place = "{289, 159}";
type = Stem;
},
{
horizontal = 1;
place = "{540, 197}";
type = Stem;
},
{
place = "{45, 782}";
type = Stem;
}
);
layerId = "04043E30-D2B9-406E-ABC7-C215F4DFD662";
paths = (
{
closed = 1;
nodes = (
"45 0 LINE",
"697.5 0 LINE",
"732.23 197 LINE",
"369.63 197 LINE",
"385.85 289 LINE",
"706.44 289 LINE",
"734.47 448 LINE",
"413.87 448 LINE",
"430.1 540 LINE",
"792.7 540 LINE",
"827.43 737 LINE",
"174.93 737 LINE"
);
}
);
width = 737;
}
);
leftKerningGroup = B;
note = E;
rightKerningGroup = AE;
unicode = 0045;
},
{
glyphname = Eacute;
layers = (
{
hints = (
{
horizontal = 1;
place = "{0, 197}";
type = Stem;
},
{
horizontal = 1;
place = "{289, 159}";
type = Stem;
},
{
horizontal = 1;
place = "{540, 197}";
type = Stem;
},
{
horizontal = 1;
place = "{789, 163}";
type = Stem;
},
{
place = "{45, 782}";
type = Stem;
}
);
layerId = "04043E30-D2B9-406E-ABC7-C215F4DFD662";
paths = (
{
closed = 1;
nodes = (
"427.61 789 LINE",
"585.61 789 LINE",
"776.35 952 LINE",
"535.35 952 LINE"
);
},
{
closed = 1;
nodes = (
"45 0 LINE",
"697.5 0 LINE",
"732.23 197 LINE",
"369.63 197 LINE",
"385.85 289 LINE",
"706.44 289 LINE",
"734.47 448 LINE",
"413.87 448 LINE",
"430.1 540 LINE",
"792.7 540 LINE",
"827.43 737 LINE",
"174.93 737 LINE"
);
}
);
width = 737;
}
);
leftKerningGroup = B;
note = Eacute;
rightKerningGroup = AE;
unicode = 00C9;
},
{
glyphname = Ebreve;
layers = (
{
hints = (
{
horizontal = 1;
place = "{0, 197}";
type = Stem;
},
{
horizontal = 1;
place = "{289, 159}";
type = Stem;
},
{
horizontal = 1;
place = "{540, 197}";
type = Stem;
},
{
horizontal = 1;
place = "{789, 163}";
type = Stem;
},
{
place = "{45, 782}";
type = Stem;
},
{
horizontal = 1;
place = "{789, 111}";
type = Stem;
}
);
layerId = "04043E30-D2B9-406E-ABC7-C215F4DFD662";
paths = (
{
closed = 1;
nodes = (
"368.61 789 LINE",
"646.61 789 LINE",
"765.12 877 LINE",
"778.34 952 LINE",
"582.34 952 LINE",
"573.17 900 LINE",
"471.17 900 LINE",
"480.34 952 LINE",
"294.34 952 LINE",
"281.12 877 LINE"
);
},
{
closed = 1;
nodes = (
"44.99 0 LINE",
"697.49 0 LINE",
"732.22 197 LINE",
"369.62 197 LINE",
"385.84 289 LINE",
"706.43 289 LINE",
"734.46 448 LINE",
"413.86 448 LINE",
"430.09 540 LINE",
"792.69 540 LINE",
"827.42 737 LINE",
"174.92 737 LINE"
);
}
);
width = 737;
}
);
leftKerningGroup = B;
note = Ebreve;
rightKerningGroup = AE;
unicode = 0114;
},
{
glyphname = Ecaron;
layers = (
{
hints = (
{
horizontal = 1;
place = "{0, 197}";
type = Stem;
},
{
horizontal = 1;
place = "{289, 159}";
type = Stem;
},
{
horizontal = 1;
place = "{540, 197}";
type = Stem;
},
{
horizontal = 1;
place = "{789, 163}";
type = Stem;
},
{
place = "{45, 782}";
type = Stem;
}
);
layerId = "04043E30-D2B9-406E-ABC7-C215F4DFD662";
paths = (
{
closed = 1;
nodes = (
"365.61 789 LINE",
"650.61 789 LINE",
"802.35 952 LINE",
"610.35 952 LINE",
"520.95 876 LINE",
"458.36 952 LINE",
"271.36 952 LINE"
);
},
{
closed = 1;
nodes = (
"45.01 0 LINE",
"697.51 0 LINE",
"732.24 197 LINE",
"369.64 197 LINE",
"385.86 289 LINE",
"706.45 289 LINE",
"734.48 448 LINE",
"413.88 448 LINE",
"430.11 540 LINE",
"792.71 540 LINE",
"827.44 737 LINE",
"174.94 737 LINE"
);
}
);
width = 737;
}
);
leftKerningGroup = B;
note = Ecaron;
rightKerningGroup = AE;
unicode = 011A;
},
{
glyphname = Ecircumflex;
layers = (
{
hints = (
{
horizontal = 1;
place = "{0, 197}";
type = Stem;
},
{
horizontal = 1;
place = "{289, 159}";
type = Stem;
},
{
horizontal = 1;
place = "{540, 197}";
type = Stem;
},
{
horizontal = 1;
place = "{789, 163}";
type = Stem;
},
{
place = "{45, 782}";
type = Stem;
},
{
horizontal = 1;
place = "{865, 87}";
type = Stem;
}
);
layerId = "04043E30-D2B9-406E-ABC7-C215F4DFD662";
paths = (
{
closed = 1;
nodes = (
"237.61 789 LINE",
"429.61 789 LINE",
"519.01 865 LINE",
"581.6 789 LINE",
"768.6 789 LINE",
"674.35 952 LINE",
"389.35 952 LINE"
);
},
{
closed = 1;
nodes = (
"45 0 LINE",
"697.5 0 LINE",
"732.23 197 LINE",
"369.63 197 LINE",
"385.85 289 LINE",
"706.44 289 LINE",
"734.47 448 LINE",
"413.87 448 LINE",
"430.1 540 LINE",
"792.7 540 LINE",
"827.43 737 LINE",
"174.93 737 LINE"
);
}
);
width = 737;
}
);
leftKerningGroup = B;
note = Ecircumflex;
rightKerningGroup = AE;
unicode = 00CA;
},
{
glyphname = uni1EBE;
layers = (
{
hints = (
{
horizontal = 1;
place = "{0, 197}";
type = Stem;
},
{
horizontal = 1;
place = "{289, 159}";
type = Stem;
},
{
horizontal = 1;
place = "{540, 197}";
type = Stem;
},
{
horizontal = 1;
place = "{876.72, 163}";
type = Stem;
},
{
place = "{45, 1107}";
type = Stem;
},
{
horizontal = 1;
place = "{789, 163}";
type = Stem;
},
{
horizontal = 1;
place = "{865, 87}";
type = Stem;
}
);
layerId = "04043E30-D2B9-406E-ABC7-C215F4DFD662";
paths = (
{
closed = 1;
nodes = (
"803.2 876.71 LINE",
"961.2 876.71 LINE",
"1151.94 1039.71 LINE",
"910.94 1039.71 LINE"
);
},
{
closed = 1;
nodes = (
"237.61 789 LINE",
"429.61 789 LINE",
"519.01 865 LINE",
"581.6 789 LINE",
"768.6 789 LINE",
"674.35 952 LINE",
"389.35 952 LINE"
);
},
{
closed = 1;
nodes = (
"45 0 LINE",
"697.5 0 LINE",
"732.23 197 LINE",
"369.63 197 LINE",
"385.85 289 LINE",
"706.44 289 LINE",
"734.47 448 LINE",
"413.87 448 LINE",
"430.1 540 LINE",
"792.7 540 LINE",
"827.43 737 LINE",
"174.93 737 LINE"
);
}
);
width = 737;
}
);
leftKerningGroup = B;
note = uni1EBE;
rightKerningGroup = AE;
unicode = 1EBE;
},
{
glyphname = uni1EC6;
layers = (
{
hints = (
{
horizontal = 1;
place = "{-209, 158}";
type = Stem;
},
{
horizontal = 1;
place = "{0, 197}";
type = Stem;
},
{
horizontal = 1;
place = "{289, 159}";
type = Stem;
},
{
horizontal = 1;
place = "{540, 197}";
type = Stem;
},
{
horizontal = 1;
place = "{789, 163}";
type = Stem;
},
{
place = "{45, 782}";
type = Stem;
},
{
horizontal = 1;
place = "{865, 87}";
type = Stem;
}
);
layerId = "04043E30-D2B9-406E-ABC7-C215F4DFD662";
paths = (
{
closed = 1;
nodes = (
"237.61 789 LINE",
"429.61 789 LINE",
"519.01 865 LINE",
"581.6 789 LINE",
"768.6 789 LINE",
"674.35 952 LINE",
"389.35 952 LINE"
);
},
{
closed = 1;
nodes = (
"45 0 LINE",
"697.5 0 LINE",
"732.23 197 LINE",
"369.63 197 LINE",
"385.85 289 LINE",
"706.44 289 LINE",
"734.47 448 LINE",
"413.87 448 LINE",
"430.1 540 LINE",
"792.7 540 LINE",
"827.43 737 LINE",
"174.93 737 LINE"
);
},
{
closed = 1;
nodes = (
"192.12 -209 LINE",
"465.12 -209 LINE",
"492.97 -51 LINE",
"219.97 -51 LINE"
);
}
);
width = 737;
}
);
leftKerningGroup = B;
note = uni1EC6;
rightKerningGroup = AE;
unicode = 1EC6;
},
{
glyphname = uni1EC0;
layers = (
{
hints = (
{
horizontal = 1;
place = "{0, 197}";
type = Stem;
},
{
horizontal = 1;
place = "{289, 159}";
type = Stem;
},
{
horizontal = 1;
place = "{540, 197}";
type = Stem;
},
{
horizontal = 1;
place = "{876.53, 163}";
type = Stem;
},
{
place = "{-24, 851}";
type = Stem;
},
{
horizontal = 1;
place = "{789, 163}";
type = Stem;
},
{
horizontal = 1;
place = "{865, 87}";
type = Stem;
}
);
layerId = "04043E30-D2B9-406E-ABC7-C215F4DFD662";
paths = (
{
closed = 1;
nodes = (
"109.62 876.52 LINE",
"271.62 876.52 LINE",
"191.36 1039.52 LINE",
"-23.63 1039.52 LINE"
);
},
{
closed = 1;
nodes = (
"237.61 789 LINE",
"429.61 789 LINE",
"519.01 865 LINE",
"581.6 789 LINE",
"768.6 789 LINE",
"674.35 952 LINE",
"389.35 952 LINE"
);
},
{
closed = 1;
nodes = (
"45 0 LINE",
"697.5 0 LINE",
"732.23 197 LINE",
"369.63 197 LINE",
"385.85 289 LINE",
"706.44 289 LINE",
"734.47 448 LINE",
"413.87 448 LINE",
"430.1 540 LINE",
"792.7 540 LINE",
"827.43 737 LINE",
"174.93 737 LINE"
);
}
);
width = 737;
}
);
leftKerningGroup = B;
note = uni1EC0;
rightKerningGroup = AE;
unicode = 1EC0;
},
{
glyphname = uni1EC2;
layers = (
{
hints = (
{
horizontal = 1;
place = "{0, 197}";
type = Stem;
},
{
horizontal = 1;
place = "{289, 159}";
type = Stem;
},
{
horizontal = 1;
place = "{540, 197}";
type = Stem;
},
{
horizontal = 1;
place = "{876.65, 106}";
type = Stem;
},
{
horizontal = 1;
place = "{1007.65, 107}";
type = Stem;
},
{
place = "{45, 1014}";
type = Stem;
},
{
horizontal = 1;
place = "{915.65, 67}";
type = Stem;
},
{
horizontal = 1;
place = "{1072.65, 42}";
type = Stem;
},
{
horizontal = 1;
place = "{789, 163}";
type = Stem;
},
{
horizontal = 1;
place = "{1048.65, 66}";
type = Stem;
},
{
horizontal = 1;
place = "{865, 87}";
type = Stem;
}
);
layerId = "04043E30-D2B9-406E-ABC7-C215F4DFD662";
paths = (
{
closed = 1;
nodes = (
"766.07 876.64 LINE",
"934.07 876.64 LINE",
"940.94 915.64 LINE",
"982.94 915.64 LINE",
"1037.63 953.64 LINE",
"1058.61 1072.64 LINE",
"1017.02 1114.64 LINE",
"784.02 1114.64 LINE",
"721.62 1072.64 LINE",
"710.17 1007.64 LINE",
"860.17 1007.64 LINE",
"867.39 1048.64 LINE",
"899.39 1048.64 LINE",
"887.76 982.64 LINE",
"823.76 982.64 LINE",
"779.64 953.64 LINE"
);
},
{
closed = 1;
nodes = (
"237.61 789 LINE",
"429.61 789 LINE",
"519.01 865 LINE",
"581.6 789 LINE",
"768.6 789 LINE",
"674.35 952 LINE",
"389.35 952 LINE"
);
},
{
closed = 1;
nodes = (
"45 0 LINE",
"697.5 0 LINE",
"732.23 197 LINE",
"369.63 197 LINE",
"385.85 289 LINE",
"706.44 289 LINE",
"734.47 448 LINE",
"413.87 448 LINE",
"430.1 540 LINE",
"792.7 540 LINE",
"827.43 737 LINE",
"174.93 737 LINE"
);
}
);
width = 737;
}
);
leftKerningGroup = B;
note = uni1EC2;
rightKerningGroup = AE;
unicode = 1EC2;
},
{
glyphname = uni1EC4;
layers = (
{
hints = (
{
horizontal = 1;
place = "{0, 197}";
type = Stem;
},
{
horizontal = 1;
place = "{289, 159}";
type = Stem;
},
{
horizontal = 1;
place = "{540, 197}";
type = Stem;
},
{
horizontal = 1;
place = "{789, 163}";
type = Stem;
},
{
horizontal = 1;
place = "{983, 161}";
type = Stem;
},
{
place = "{45, 782}";
type = Stem;
},
{
horizontal = 1;
place = "{983, 113}";
type = Stem;
},
{
horizontal = 1;
place = "{989, 162}";
type = Stem;
},
{
horizontal = 1;
place = "{1037, 114}";
type = Stem;
},
{
horizontal = 1;
place = "{865, 87}";
type = Stem;
}
);
layerId = "04043E30-D2B9-406E-ABC7-C215F4DFD662";
paths = (
{
closed = 1;
nodes = (
"516.82 983 LINE",
"713.82 983 LINE",
"810.51 1055 LINE",
"826.2 1144 LINE",
"674.2 1144 LINE",
"668.38 1111 LINE",
"649.74 1096 LINE",
"631.74 1096 LINE",
"592.44 1151 LINE",
"394.44 1151 LINE",
"298.39 1077 LINE",
"282.88 989 LINE",
"434.88 989 LINE",
"440.52 1021 LINE",
"459.34 1037 LINE",
"476.34 1037 LINE"
);
},
{
closed = 1;
nodes = (
"237.61 789 LINE",
"429.61 789 LINE",
"519.01 865 LINE",
"581.6 789 LINE",
"768.6 789 LINE",
"674.35 952 LINE",
"389.35 952 LINE"
);
},
{
closed = 1;
nodes = (
"45 0 LINE",
"697.5 0 LINE",
"732.23 197 LINE",
"369.63 197 LINE",
"385.85 289 LINE",
"706.44 289 LINE",
"734.47 448 LINE",
"413.87 448 LINE",
"430.1 540 LINE",
"792.7 540 LINE",
"827.43 737 LINE",
"174.93 737 LINE"
);
}
);
width = 737;
}
);
leftKerningGroup = B;
note = uni1EC4;
rightKerningGroup = AE;
unicode = 1EC4;
},
{
glyphname = uni0204;
layers = (
{
hints = (
{
horizontal = 1;
place = "{0, 197}";
type = Stem;
},
{
horizontal = 1;
place = "{289, 159}";
type = Stem;
},
{
horizontal = 1;
place = "{540, 197}";
type = Stem;
},
{
horizontal = 1;
place = "{789, 163}";
type = Stem;
},
{
place = "{45, 782}";
type = Stem;
}
);
layerId = "04043E30-D2B9-406E-ABC7-C215F4DFD662";
paths = (
{
closed = 1;
nodes = (
"272.61 789 LINE",
"434.61 789 LINE",
"354.36 952 LINE",
"139.36 952 LINE"
);
},
{
closed = 1;
nodes = (
"559.61 789 LINE",
"721.61 789 LINE",
"641.36 952 LINE",
"426.36 952 LINE"
);
},
{
closed = 1;
nodes = (
"45.01 0 LINE",
"697.51 0 LINE",
"732.24 197 LINE",
"369.64 197 LINE",
"385.86 289 LINE",
"706.45 289 LINE",
"734.48 448 LINE",
"413.88 448 LINE",
"430.11 540 LINE",
"792.71 540 LINE",
"827.44 737 LINE",
"174.94 737 LINE"
);
}
);
width = 737;
}
);
leftKerningGroup = B;
note = uni0204;
rightKerningGroup = AE;
unicode = 0204;
},
{
glyphname = Edieresis;
layers = (
{
hints = (
{
horizontal = 1;
place = "{0, 197}";
type = Stem;
},
{
horizontal = 1;
place = "{289, 159}";
type = Stem;
},
{
horizontal = 1;
place = "{540, 197}";
type = Stem;
},
{
horizontal = 1;
place = "{789, 158}";
type = Stem;
},
{
place = "{45, 782}";
type = Stem;
}
);
layerId = "04043E30-D2B9-406E-ABC7-C215F4DFD662";
paths = (
{
closed = 1;
nodes = (
"228.57 789 LINE",
"476.57 789 LINE",
"504.42 947 LINE",
"256.42 947 LINE"
);
},
{
closed = 1;
nodes = (
"534.97 789 LINE",
"782.97 789 LINE",
"810.82 947 LINE",
"562.82 947 LINE"
);
},
{
closed = 1;
nodes = (
"44.98 0 LINE",
"697.48 0 LINE",
"732.21 197 LINE",
"369.61 197 LINE",
"385.83 289 LINE",
"706.42 289 LINE",
"734.45 448 LINE",
"413.85 448 LINE",
"430.08 540 LINE",
"792.68 540 LINE",
"827.41 737 LINE",
"174.91 737 LINE"
);
}
);
width = 737;
}
);
leftKerningGroup = B;
note = Edieresis;
rightKerningGroup = AE;
unicode = 00CB;
},
{
glyphname = Edotaccent;
layers = (
{
hints = (
{
horizontal = 1;
place = "{0, 197}";
type = Stem;
},
{
horizontal = 1;
place = "{289, 159}";
type = Stem;
},
{
horizontal = 1;
place = "{540, 197}";
type = Stem;
},
{
horizontal = 1;
place = "{789, 158}";
type = Stem;
},
{
place = "{45, 782}";
type = Stem;
}
);
layerId = "04043E30-D2B9-406E-ABC7-C215F4DFD662";
paths = (
{
closed = 1;
nodes = (
"369.11 789 LINE",
"642.11 789 LINE",
"669.96 947 LINE",
"396.96 947 LINE"
);
},
{
closed = 1;
nodes = (
"44.99 0 LINE",
"697.49 0 LINE",
"732.22 197 LINE",
"369.62 197 LINE",
"385.84 289 LINE",
"706.43 289 LINE",
"734.46 448 LINE",
"413.86 448 LINE",
"430.09 540 LINE",
"792.69 540 LINE",
"827.42 737 LINE",
"174.92 737 LINE"
);
}
);
width = 737;
}
);
leftKerningGroup = B;
note = Edotaccent;
rightKerningGroup = AE;
unicode = 0116;
},
{
glyphname = uni1EB8;
layers = (
{
hints = (
{
horizontal = 1;
place = "{-209, 158}";
type = Stem;
},
{
horizontal = 1;
place = "{0, 197}";
type = Stem;
},
{
horizontal = 1;
place = "{289, 159}";
type = Stem;
},
{
horizontal = 1;
place = "{540, 197}";
type = Stem;
},
{
place = "{45, 782}";
type = Stem;
}
);
layerId = "04043E30-D2B9-406E-ABC7-C215F4DFD662";
paths = (
{
closed = 1;
nodes = (
"45 0 LINE",
"697.5 0 LINE",
"732.23 197 LINE",
"369.63 197 LINE",
"385.85 289 LINE",
"706.44 289 LINE",
"734.47 448 LINE",
"413.87 448 LINE",
"430.1 540 LINE",
"792.7 540 LINE",
"827.43 737 LINE",
"174.93 737 LINE"
);
},
{
closed = 1;
nodes = (
"192.12 -209 LINE",
"465.12 -209 LINE",
"492.97 -51 LINE",
"219.97 -51 LINE"
);
}
);
width = 737;
}
);
leftKerningGroup = B;
note = uni1EB8;
rightKerningGroup = AE;
unicode = 1EB8;
},
{
glyphname = Egrave;
layers = (
{
hints = (
{
horizontal = 1;
place = "{0, 197}";
type = Stem;
},
{
horizontal = 1;
place = "{289, 159}";
type = Stem;
},
{
horizontal = 1;
place = "{540, 197}";
type = Stem;
},
{
horizontal = 1;
place = "{789, 163}";
type = Stem;
},
{
place = "{45, 782}";
type = Stem;
}
);
layerId = "04043E30-D2B9-406E-ABC7-C215F4DFD662";
paths = (
{
closed = 1;
nodes = (
"427.61 789 LINE",
"589.61 789 LINE",
"509.36 952 LINE",
"294.36 952 LINE"
);
},
{
closed = 1;
nodes = (
"45.01 0 LINE",
"697.51 0 LINE",
"732.24 197 LINE",
"369.64 197 LINE",
"385.86 289 LINE",
"706.45 289 LINE",
"734.48 448 LINE",
"413.88 448 LINE",
"430.11 540 LINE",
"792.71 540 LINE",
"827.44 737 LINE",
"174.94 737 LINE"
);
}
);
width = 737;
}
);
leftKerningGroup = B;
note = Egrave;
rightKerningGroup = AE;
unicode = 00C8;
},
{
glyphname = uni1EBA;
layers = (
{
hints = (
{
horizontal = 1;
place = "{0, 197}";
type = Stem;
},
{
horizontal = 1;
place = "{289, 159}";
type = Stem;
},
{
horizontal = 1;
place = "{540, 197}";
type = Stem;
},
{
horizontal = 1;
place = "{789, 106}";
type = Stem;
},
{
horizontal = 1;
place = "{920, 107}";
type = Stem;
},
{
place = "{45, 782}";
type = Stem;
},
{
horizontal = 1;
place = "{828, 67}";
type = Stem;
},
{
horizontal = 1;
place = "{985, 42}";
type = Stem;
},
{
horizontal = 1;
place = "{961, 66}";
type = Stem;
}
);
layerId = "04043E30-D2B9-406E-ABC7-C215F4DFD662";
paths = (
{
closed = 1;
nodes = (
"421.61 789 LINE",
"589.61 789 LINE",
"596.49 828 LINE",
"638.49 828 LINE",
"693.18 866 LINE",
"714.16 985 LINE",
"672.58 1027 LINE",
"439.58 1027 LINE",
"377.17 985 LINE",
"365.71 920 LINE",
"515.71 920 LINE",
"522.94 961 LINE",
"554.94 961 LINE",
"543.3 895 LINE",
"479.3 895 LINE",
"435.2 866 LINE"
);
},
{
closed = 1;
nodes = (
"45.01 0 LINE",
"697.51 0 LINE",
"732.24 197 LINE",
"369.64 197 LINE",
"385.86 289 LINE",
"706.45 289 LINE",
"734.48 448 LINE",
"413.88 448 LINE",
"430.11 540 LINE",
"792.71 540 LINE",
"827.44 737 LINE",
"174.94 737 LINE"
);
}
);
width = 737;
}
);
leftKerningGroup = B;
note = uni1EBA;
rightKerningGroup = AE;
unicode = 1EBA;
},
{
glyphname = uni0206;
layers = (
{
hints = (
{
horizontal = 1;
place = "{0, 197}";
type = Stem;
},
{
horizontal = 1;
place = "{289, 159}";
type = Stem;
},
{
horizontal = 1;
place = "{540, 197}";
type = Stem;
},
{
horizontal = 1;
place = "{789, 163}";
type = Stem;
},
{
place = "{45, 782}";
type = Stem;
},
{
horizontal = 1;
place = "{841, 111}";
type = Stem;
}
);
layerId = "04043E30-D2B9-406E-ABC7-C215F4DFD662";
paths = (
{
closed = 1;
nodes = (
"258.61 789 LINE",
"454.61 789 LINE",
"463.78 841 LINE",
"565.78 841 LINE",
"556.61 789 LINE",
"752.61 789 LINE",
"765.84 864 LINE",
"678.36 952 LINE",
"390.36 952 LINE",
"271.85 864 LINE"
);
},
{
closed = 1;
nodes = (
"45.01 0 LINE",
"697.51 0 LINE",
"732.24 197 LINE",
"369.64 197 LINE",
"385.86 289 LINE",
"706.45 289 LINE",
"734.48 448 LINE",
"413.88 448 LINE",
"430.11 540 LINE",
"792.71 540 LINE",
"827.44 737 LINE",
"174.94 737 LINE"
);
}
);
width = 737;
}
);
leftKerningGroup = B;
note = uni0206;
rightKerningGroup = AE;
unicode = 0206;
},
{
glyphname = Emacron;
layers = (
{
hints = (
{
horizontal = 1;
place = "{0, 197}";
type = Stem;
},
{
horizontal = 1;
place = "{289, 159}";
type = Stem;
},
{
horizontal = 1;
place = "{540, 197}";
type = Stem;
},
{
horizontal = 1;
place = "{789, 149}";
type = Stem;
},
{
place = "{45, 782}";
type = Stem;
}
);
layerId = "04043E30-D2B9-406E-ABC7-C215F4DFD662";
paths = (
{
closed = 1;
nodes = (
"227.61 789 LINE",
"783.61 789 LINE",
"809.89 938 LINE",
"253.89 938 LINE"
);
},
{
closed = 1;
nodes = (
"45 0 LINE",
"697.5 0 LINE",
"732.23 197 LINE",
"369.63 197 LINE",
"385.85 289 LINE",
"706.44 289 LINE",
"734.47 448 LINE",
"413.87 448 LINE",
"430.1 540 LINE",
"792.7 540 LINE",
"827.43 737 LINE",
"174.93 737 LINE"
);
}
);
width = 737;
}
);
leftKerningGroup = B;
note = Emacron;
rightKerningGroup = AE;
unicode = 0112;
},
{
glyphname = Eogonek;
layers = (
{
hints = (
{
horizontal = 1;
place = "{-191, 127}";
type = Stem;
},
{
horizontal = 1;
place = "{0, 197}";
type = Stem;
},
{
horizontal = 1;
place = "{289, 159}";
type = Stem;
},
{
horizontal = 1;
place = "{540, 197}";
type = Stem;
},
{
place = "{45, 782}";
type = Stem;
}
);
layerId = "04043E30-D2B9-406E-ABC7-C215F4DFD662";
paths = (
{
closed = 1;
nodes = (
"45 0 LINE",
"576.5 0 LINE",
"525.68 -33 LINE",
"509.99 -122 LINE",
"580.81 -191 LINE",
"677.81 -191 LINE",
"700.21 -64 LINE",
"672.21 -64 LINE",
"658.68 -50 LINE",
"662.91 -26 LINE",
"697.49 0 LINE",
"732.22 197 LINE",
"369.62 197 LINE",
"385.84 289 LINE",
"706.43 289 LINE",
"734.46 448 LINE",
"413.86 448 LINE",
"430.09 540 LINE",
"792.69 540 LINE",
"827.42 737 LINE",
"174.92 737 LINE"
);
}
);
width = 737;
}
);
leftKerningGroup = B;
note = Eogonek;
rightKerningGroup = AE;
unicode = 0118;
},
{
glyphname = uni1EBC;
layers = (
{
hints = (
{
horizontal = 1;
place = "{0, 197}";
type = Stem;
},
{
horizontal = 1;
place = "{289, 159}";
type = Stem;
},
{
horizontal = 1;
place = "{540, 197}";
type = Stem;
},
{
horizontal = 1;
place = "{789, 161}";
type = Stem;
},
{
place = "{45, 782}";
type = Stem;
},
{
horizontal = 1;
place = "{789, 113}";
type = Stem;
},
{
horizontal = 1;
place = "{795, 162}";
type = Stem;
},
{
horizontal = 1;
place = "{843, 114}";
type = Stem;
}
);
layerId = "04043E30-D2B9-406E-ABC7-C215F4DFD662";
paths = (
{
closed = 1;
nodes = (
"483.61 789 LINE",
"680.61 789 LINE",
"777.3 861 LINE",
"792.99 950 LINE",
"640.99 950 LINE",
"635.17 917 LINE",
"616.53 902 LINE",
"598.53 902 LINE",
"559.24 957 LINE",
"361.24 957 LINE",
"265.19 883 LINE",
"249.68 795 LINE",
"401.68 795 LINE",
"407.31 827 LINE",
"426.13 843 LINE",
"443.13 843 LINE"
);
},
{
closed = 1;
nodes = (
"45 0 LINE",
"697.5 0 LINE",
"732.23 197 LINE",
"369.63 197 LINE",
"385.85 289 LINE",
"706.44 289 LINE",
"734.47 448 LINE",
"413.87 448 LINE",
"430.1 540 LINE",
"792.7 540 LINE",
"827.43 737 LINE",
"174.93 737 LINE"
);
}
);
width = 737;
}
);
leftKerningGroup = B;
note = uni1EBC;
rightKerningGroup = AE;
unicode = 1EBC;
},
{
glyphname = F;
layers = (
{
hints = (
{
horizontal = 1;
place = "{259, 176}";
type = Stem;
},
{
horizontal = 1;
place = "{540, 197}";
type = Stem;
},
{
place = "{45, 770}";
type = Stem;
}
);
layerId = "04043E30-D2B9-406E-ABC7-C215F4DFD662";
paths = (
{
closed = 1;
nodes = (
"45 0 LINE",
"340 0 LINE",
"385.66 259 LINE",
"682.66 259 LINE",
"713.69 435 LINE",
"416.69 435 LINE",
"435.2 540 LINE",
"780.2 540 LINE",
"814.93 737 LINE",
"174.93 737 LINE"
);
}
);
width = 713;
}
);
leftKerningGroup = B;
note = F;
rightKerningGroup = F;
unicode = 0046;
},
{
glyphname = G;
layers = (
{
hints = (
{
horizontal = 1;
place = "{0, 153}";
type = Stem;
},
{
horizontal = 1;
place = "{251, 153}";
type = Stem;
},
{
horizontal = 1;
place = "{584, 153}";
type = Stem;
},
{
place = "{51, 829}";
type = Stem;
},
{
horizontal = 1;
place = "{475.5, 261.5}";
type = Stem;
}
);
layerId = "04043E30-D2B9-406E-ABC7-C215F4DFD662";
paths = (
{
closed = 1;
nodes = (
"145 0 LINE",
"468 0 LINE",
"551.8 61.29 LINE",
"541 0 LINE",
"767 0 LINE",
"838.23 404 LINE",
"514.23 404 LINE",
"487.25 251 LINE",
"584.14 251 LINE",
"450.97 153 LINE",
"350.97 153 LINE",
"426.97 584 LINE",
"571.96 584 LINE",
"552.93 476 LINE",
"850.75 475 LINE",
"880.19 642 LINE",
"785.94 737 LINE",
"274.94 737 LINE",
"147.19 642 LINE",
"50.75 95 LINE"
);
}
);
width = 812;
}
);
note = G;
rightKerningGroup = G;
unicode = 0047;
},
{
glyphname = Gbreve;
layers = (
{
hints = (
{
horizontal = 1;
place = "{0, 153}";
type = Stem;
},
{
horizontal = 1;
place = "{251, 153}";
type = Stem;
},
{
horizontal = 1;
place = "{584, 153}";
type = Stem;
},
{
horizontal = 1;
place = "{789, 163}";
type = Stem;
},
{
place = "{51, 829}";
type = Stem;
},
{
horizontal = 1;
place = "{789, 111}";
type = Stem;
},
{
horizontal = 1;
place = "{475.5, 261.5}";
type = Stem;
}
);
layerId = "04043E30-D2B9-406E-ABC7-C215F4DFD662";
paths = (
{
closed = 1;
nodes = (
"399.11 789 LINE",
"677.11 789 LINE",
"795.62 877 LINE",
"808.84 952 LINE",
"612.84 952 LINE",
"603.67 900 LINE",
"501.67 900 LINE",
"510.84 952 LINE",
"324.84 952 LINE",
"311.62 877 LINE"
);
},
{
closed = 1;
nodes = (
"144.99 0 LINE",
"467.99 0 LINE",
"551.79 61.29 LINE",
"540.99 0 LINE",
"766.99 0 LINE",
"838.22 404 LINE",
"514.22 404 LINE",
"487.24 251 LINE",
"584.13 251 LINE",
"450.96 153 LINE",
"350.96 153 LINE",
"426.96 584 LINE",
"571.95 584 LINE",
"552.92 476 LINE",
"850.74 475 LINE",
"880.18 642 LINE",
"785.93 737 LINE",
"274.93 737 LINE",
"147.18 642 LINE",
"50.74 95 LINE"
);
}
);
width = 812;
}
);
note = Gbreve;
rightKerningGroup = G;
unicode = 011E;
},
{
glyphname = Gcaron;
layers = (
{
hints = (
{
horizontal = 1;
place = "{0, 153}";
type = Stem;
},
{
horizontal = 1;
place = "{251, 153}";
type = Stem;
},
{
horizontal = 1;
place = "{584, 153}";
type = Stem;
},
{
horizontal = 1;
place = "{789, 163}";
type = Stem;
},
{
place = "{51, 829}";
type = Stem;
},
{
horizontal = 1;
place = "{475.5, 261.5}";
type = Stem;
}
);
layerId = "04043E30-D2B9-406E-ABC7-C215F4DFD662";
paths = (
{
closed = 1;
nodes = (
"396.11 789 LINE",
"681.11 789 LINE",
"832.85 952 LINE",
"640.85 952 LINE",
"551.45 876 LINE",
"488.86 952 LINE",
"301.86 952 LINE"
);
},
{
closed = 1;
nodes = (
"145.01 0 LINE",
"468.01 0 LINE",
"551.81 61.29 LINE",
"541.01 0 LINE",
"767.01 0 LINE",
"838.24 404 LINE",
"514.24 404 LINE",
"487.26 251 LINE",
"584.15 251 LINE",
"450.98 153 LINE",
"350.98 153 LINE",
"426.98 584 LINE",
"571.97 584 LINE",
"552.94 476 LINE",
"850.76 475 LINE",
"880.2 642 LINE",
"785.95 737 LINE",
"274.95 737 LINE",
"147.2 642 LINE",
"50.76 95 LINE"
);
}
);
width = 812;
}
);
note = Gcaron;
rightKerningGroup = G;
unicode = 01E6;
},
{
glyphname = Gcircumflex;
layers = (
{
hints = (
{
horizontal = 1;
place = "{0, 153}";
type = Stem;
},
{
horizontal = 1;
place = "{251, 153}";
type = Stem;
},
{
horizontal = 1;
place = "{584, 153}";
type = Stem;
},
{
horizontal = 1;
place = "{789, 163}";
type = Stem;
},
{
place = "{51, 829}";
type = Stem;
},
{
horizontal = 1;
place = "{865, 87}";
type = Stem;
},
{
horizontal = 1;
place = "{475.5, 261.5}";
type = Stem;
}
);
layerId = "04043E30-D2B9-406E-ABC7-C215F4DFD662";
paths = (
{
closed = 1;
nodes = (
"268.11 789 LINE",
"460.11 789 LINE",
"549.51 865 LINE",
"612.1 789 LINE",
"799.1 789 LINE",
"704.85 952 LINE",
"419.85 952 LINE"
);
},
{
closed = 1;
nodes = (
"145 0 LINE",
"468 0 LINE",
"551.8 61.29 LINE",
"541 0 LINE",
"767 0 LINE",
"838.23 404 LINE",
"514.23 404 LINE",
"487.25 251 LINE",
"584.14 251 LINE",
"450.97 153 LINE",
"350.97 153 LINE",
"426.97 584 LINE",
"571.96 584 LINE",
"552.93 476 LINE",
"850.75 475 LINE",
"880.19 642 LINE",
"785.94 737 LINE",
"274.94 737 LINE",
"147.19 642 LINE",
"50.75 95 LINE"
);
}
);
width = 812;
}
);
note = Gcircumflex;
rightKerningGroup = G;
unicode = 011C;
},
{
glyphname = uni0122;
layers = (
{
hints = (
{
horizontal = 1;
place = "{-234, 182}";
type = Stem;
},
{
horizontal = 1;
place = "{0, 153}";
type = Stem;
},
{
horizontal = 1;
place = "{251, 153}";
type = Stem;
},
{
horizontal = 1;
place = "{584, 153}";
type = Stem;
},
{
place = "{51, 829}";
type = Stem;
},
{
horizontal = 1;
place = "{475.5, 261.5}";
type = Stem;
}
);
layerId = "04043E30-D2B9-406E-ABC7-C215F4DFD662";
paths = (
{
closed = 1;
nodes = (
"145 0 LINE",
"468 0 LINE",
"551.8 61.29 LINE",
"541 0 LINE",
"767 0 LINE",
"838.23 404 LINE",
"514.23 404 LINE",
"487.25 251 LINE",
"584.14 251 LINE",
"450.97 153 LINE",
"350.97 153 LINE",
"426.97 584 LINE",
"571.96 584 LINE",
"552.93 476 LINE",
"850.75 475 LINE",
"880.19 642 LINE",
"785.94 737 LINE",
"274.94 737 LINE",
"147.19 642 LINE",
"50.75 95 LINE"
);
},
{
closed = 1;
nodes = (
"182.73 -234 LINE",
"332.73 -234 LINE",
"497.81 -52 LINE",
"265.81 -52 LINE"
);
}
);
width = 812;
}
);
note = uni0122;
rightKerningGroup = G;
unicode = 0122;
},
{
glyphname = Gdotaccent;
layers = (
{
hints = (
{
horizontal = 1;
place = "{0, 153}";
type = Stem;
},
{
horizontal = 1;
place = "{251, 153}";
type = Stem;
},
{
horizontal = 1;
place = "{584, 153}";
type = Stem;
},
{
horizontal = 1;
place = "{789, 158}";
type = Stem;
},
{
place = "{51, 829}";
type = Stem;
},
{
horizontal = 1;
place = "{475.5, 261.5}";
type = Stem;
}
);
layerId = "04043E30-D2B9-406E-ABC7-C215F4DFD662";
paths = (
{
closed = 1;
nodes = (
"399.61 789 LINE",
"672.61 789 LINE",
"700.46 947 LINE",
"427.46 947 LINE"
);
},
{
closed = 1;
nodes = (
"144.99 0 LINE",
"467.99 0 LINE",
"551.79 61.29 LINE",
"540.99 0 LINE",
"766.99 0 LINE",
"838.22 404 LINE",
"514.22 404 LINE",
"487.24 251 LINE",
"584.13 251 LINE",
"450.96 153 LINE",
"350.96 153 LINE",
"426.96 584 LINE",
"571.95 584 LINE",
"552.92 476 LINE",
"850.74 475 LINE",
"880.18 642 LINE",
"785.93 737 LINE",
"274.93 737 LINE",
"147.18 642 LINE",
"50.74 95 LINE"
);
}
);
width = 812;
}
);
note = Gdotaccent;
rightKerningGroup = G;
unicode = 0120;
},
{
glyphname = H;
layers = (
{
hints = (
{
horizontal = 1;
place = "{282, 196}";
type = Stem;
},
{
place = "{45, 852}";
type = Stem;
}
);
layerId = "04043E30-D2B9-406E-ABC7-C215F4DFD662";
paths = (
{
closed = 1;
nodes = (
"45 0 LINE",
"334.89 0 LINE",
"384.6 282 LINE",
"526.7 282 LINE",
"476.99 0 LINE",
"766.88 0 LINE",
"896.82 737 LINE",
"606.93 737 LINE",
"561.26 478 LINE",
"419.17 478 LINE",
"464.83 737 LINE",
"174.94 737 LINE"
);
}
);
width = 812;
}
);
leftKerningGroup = B;
note = H;
rightKerningGroup = H;
unicode = 0048;
},
{
glyphname = Hbar;
layers = (
{
hints = (
{
horizontal = 1;
place = "{282, 196}";
type = Stem;
},
{
horizontal = 1;
place = "{547, 118}";
type = Stem;
},
{
place = "{45, 889}";
type = Stem;
},
{
horizontal = 1;
place = "{547, 190}";
type = Stem;
}
);
layerId = "04043E30-D2B9-406E-ABC7-C215F4DFD662";
paths = (
{
closed = 1;
nodes = (
"45 0 LINE",
"334.89 0 LINE",
"384.6 282 LINE",
"526.7 282 LINE",
"476.99 0 LINE",
"766.88 0 LINE",
"863.32 547 LINE",
"913.42 547 LINE",
"934.22 665 LINE",
"884.12 665 LINE",
"896.81 737 LINE",
"606.92 737 LINE",
"594.23 665 LINE",
"452.13 665 LINE",
"464.82 737 LINE",
"174.93 737 LINE",
"162.24 665 LINE",
"113.24 665 LINE",
"92.44 547 LINE",
"141.44 547 LINE"
);
},
{
closed = 1;
nodes = (
"419.17 478 LINE",
"431.33 547 LINE",
"573.43 547 LINE",
"561.26 478 LINE"
);
}
);
width = 812;
}
);
note = Hbar;
unicode = 0126;
},
{
glyphname = Hcircumflex;
layers = (
{
hints = (
{
horizontal = 1;
place = "{282, 196}";
type = Stem;
},
{
horizontal = 1;
place = "{789, 163}";
type = Stem;
},
{
place = "{45, 852}";
type = Stem;
},
{
horizontal = 1;
place = "{865, 87}";
type = Stem;
}
);
layerId = "04043E30-D2B9-406E-ABC7-C215F4DFD662";
paths = (
{
closed = 1;
nodes = (
"277.11 789 LINE",
"469.11 789 LINE",
"558.51 865 LINE",
"621.1 789 LINE",
"808.1 789 LINE",
"713.85 952 LINE",
"428.85 952 LINE"
);
},
{
closed = 1;
nodes = (
"45 0 LINE",
"334.89 0 LINE",
"384.6 282 LINE",
"526.7 282 LINE",
"476.99 0 LINE",
"766.88 0 LINE",
"896.82 737 LINE",
"606.93 737 LINE",
"561.26 478 LINE",
"419.17 478 LINE",
"464.83 737 LINE",
"174.94 737 LINE"
);
}
);
width = 812;
}
);
note = Hcircumflex;
unicode = 0124;
},
{
glyphname = I;
layers = (
{
hints = (
{
horizontal = 1;
place = "{0, 197}";
type = Stem;
},
{
horizontal = 1;
place = "{540, 197}";
type = Stem;
},
{
place = "{28, 609}";
type = Stem;
}
);
layerId = "04043E30-D2B9-406E-ABC7-C215F4DFD662";
paths = (
{
closed = 1;
nodes = (
"28 0 LINE",
"507 0 LINE",
"541.73 197 LINE",
"442.56 197 LINE",
"503.04 540 LINE",
"602.21 540 LINE",
"636.94 737 LINE",
"157.94 737 LINE",
"123.21 540 LINE",
"222.37 540 LINE",
"161.89 197 LINE",
"62.73 197 LINE"
);
}
);
width = 535;
}
);
leftKerningGroup = B;
note = I;
rightKerningGroup = H;
unicode = 0049;
},
{
glyphname = Iacute;
layers = (
{
hints = (
{
horizontal = 1;
place = "{0, 197}";
type = Stem;
},
{
horizontal = 1;
place = "{540, 197}";
type = Stem;
},
{
horizontal = 1;
place = "{789, 163}";
type = Stem;
},
{
place = "{28, 647}";
type = Stem;
}
);
layerId = "04043E30-D2B9-406E-ABC7-C215F4DFD662";
paths = (
{
closed = 1;
nodes = (
"326.61 789 LINE",
"484.61 789 LINE",
"675.35 952 LINE",
"434.35 952 LINE"
);
},
{
closed = 1;
nodes = (
"28 0 LINE",
"507 0 LINE",
"541.73 197 LINE",
"442.56 197 LINE",
"503.04 540 LINE",
"602.21 540 LINE",
"636.94 737 LINE",
"157.94 737 LINE",
"123.21 540 LINE",
"222.37 540 LINE",
"161.89 197 LINE",
"62.73 197 LINE"
);
}
);
width = 535;
}
);
leftKerningGroup = B;
note = Iacute;
rightKerningGroup = H;
unicode = 00CD;
},
{
glyphname = Ibreve;
layers = (
{
hints = (
{
horizontal = 1;
place = "{0, 197}";
type = Stem;
},
{
horizontal = 1;
place = "{540, 197}";
type = Stem;
},
{
horizontal = 1;
place = "{789, 163}";
type = Stem;
},
{
place = "{28, 649}";
type = Stem;
},
{
horizontal = 1;
place = "{789, 111}";
type = Stem;
}
);
layerId = "04043E30-D2B9-406E-ABC7-C215F4DFD662";
paths = (
{
closed = 1;
nodes = (
"267.61 789 LINE",
"545.61 789 LINE",
"664.12 877 LINE",
"677.34 952 LINE",
"481.34 952 LINE",
"472.17 900 LINE",
"370.17 900 LINE",
"379.34 952 LINE",
"193.34 952 LINE",
"180.12 877 LINE"
);
},
{
closed = 1;
nodes = (
"27.99 0 LINE",
"506.99 0 LINE",
"541.72 197 LINE",
"442.55 197 LINE",
"503.03 540 LINE",
"602.2 540 LINE",
"636.93 737 LINE",
"157.93 737 LINE",
"123.2 540 LINE",
"222.36 540 LINE",
"161.88 197 LINE",
"62.72 197 LINE"
);
}
);
width = 535;
}
);
note = Ibreve;
unicode = 012C;
},
{
glyphname = Icircumflex;
layers = (
{
hints = (
{
horizontal = 1;
place = "{0, 197}";
type = Stem;
},
{
horizontal = 1;
place = "{540, 197}";
type = Stem;
},
{
horizontal = 1;
place = "{789, 163}";
type = Stem;
},
{
place = "{28, 640}";
type = Stem;
},
{
horizontal = 1;
place = "{865, 87}";
type = Stem;
}
);
layerId = "04043E30-D2B9-406E-ABC7-C215F4DFD662";
paths = (
{
closed = 1;
nodes = (
"136.61 789 LINE",
"328.61 789 LINE",
"418.01 865 LINE",
"480.6 789 LINE",
"667.6 789 LINE",
"573.35 952 LINE",
"288.35 952 LINE"
);
},
{
closed = 1;
nodes = (
"28 0 LINE",
"507 0 LINE",
"541.73 197 LINE",
"442.56 197 LINE",
"503.04 540 LINE",
"602.21 540 LINE",
"636.94 737 LINE",
"157.94 737 LINE",
"123.21 540 LINE",
"222.37 540 LINE",
"161.89 197 LINE",
"62.73 197 LINE"
);
}
);
width = 535;
}
);
leftKerningGroup = B;
note = Icircumflex;
rightKerningGroup = H;
unicode = 00CE;
},
{
glyphname = uni0208;
layers = (
{
hints = (
{
horizontal = 1;
place = "{0, 197}";
type = Stem;
},
{
horizontal = 1;
place = "{540, 197}";
type = Stem;
},
{
horizontal = 1;
place = "{789, 163}";
type = Stem;
},
{
place = "{28, 609}";
type = Stem;
}
);
layerId = "04043E30-D2B9-406E-ABC7-C215F4DFD662";
paths = (
{
closed = 1;
nodes = (
"171.61 789 LINE",
"333.61 789 LINE",
"253.36 952 LINE",
"38.36 952 LINE"
);
},
{
closed = 1;
nodes = (
"458.61 789 LINE",
"620.61 789 LINE",
"540.36 952 LINE",
"325.36 952 LINE"
);
},
{
closed = 1;
nodes = (
"28.01 0 LINE",
"507.01 0 LINE",
"541.74 197 LINE",
"442.57 197 LINE",
"503.05 540 LINE",
"602.22 540 LINE",
"636.95 737 LINE",
"157.95 737 LINE",
"123.22 540 LINE",
"222.38 540 LINE",
"161.9 197 LINE",
"62.74 197 LINE"
);
}
);
width = 535;
}
);
note = uni0208;
unicode = 0208;
},
{
glyphname = Idieresis;
layers = (
{
hints = (
{
horizontal = 1;
place = "{0, 197}";
type = Stem;
},
{
horizontal = 1;
place = "{540, 197}";
type = Stem;
},
{
horizontal = 1;
place = "{789, 158}";
type = Stem;
},
{
place = "{28, 682}";
type = Stem;
}
);
layerId = "04043E30-D2B9-406E-ABC7-C215F4DFD662";
paths = (
{
closed = 1;
nodes = (
"127.57 789 LINE",
"375.57 789 LINE",
"403.42 947 LINE",
"155.42 947 LINE"
);
},
{
closed = 1;
nodes = (
"433.97 789 LINE",
"681.97 789 LINE",
"709.82 947 LINE",
"461.82 947 LINE"
);
},
{
closed = 1;
nodes = (
"27.98 0 LINE",
"506.98 0 LINE",
"541.71 197 LINE",
"442.54 197 LINE",
"503.02 540 LINE",
"602.19 540 LINE",
"636.92 737 LINE",
"157.92 737 LINE",
"123.19 540 LINE",
"222.35 540 LINE",
"161.87 197 LINE",
"62.71 197 LINE"
);
}
);
width = 535;
}
);
leftKerningGroup = B;
note = Idieresis;
rightKerningGroup = H;
unicode = 00CF;
},
{
glyphname = Idotaccent;
layers = (
{
hints = (
{
horizontal = 1;
place = "{0, 197}";
type = Stem;
},
{
horizontal = 1;
place = "{540, 197}";
type = Stem;
},
{
horizontal = 1;
place = "{789, 158}";
type = Stem;
},
{
place = "{28, 609}";
type = Stem;
}
);
layerId = "04043E30-D2B9-406E-ABC7-C215F4DFD662";
paths = (
{
closed = 1;
nodes = (
"268.11 789 LINE",
"541.11 789 LINE",
"568.96 947 LINE",
"295.96 947 LINE"
);
},
{
closed = 1;
nodes = (
"27.99 0 LINE",
"506.99 0 LINE",
"541.72 197 LINE",
"442.55 197 LINE",
"503.03 540 LINE",
"602.2 540 LINE",
"636.93 737 LINE",
"157.93 737 LINE",
"123.2 540 LINE",
"222.36 540 LINE",
"161.88 197 LINE",
"62.72 197 LINE"
);
}
);
width = 535;
}
);
note = Idotaccent;
unicode = 0130;
},
{
glyphname = uni1ECA;
layers = (
{
hints = (
{
horizontal = 1;
place = "{-209, 158}";
type = Stem;
},
{
horizontal = 1;
place = "{0, 197}";
type = Stem;
},
{
horizontal = 1;
place = "{540, 197}";
type = Stem;
},
{
place = "{28, 609}";
type = Stem;
}
);
layerId = "04043E30-D2B9-406E-ABC7-C215F4DFD662";
paths = (
{
closed = 1;
nodes = (
"28 0 LINE",
"507 0 LINE",
"541.73 197 LINE",
"442.56 197 LINE",
"503.04 540 LINE",
"602.21 540 LINE",
"636.94 737 LINE",
"157.94 737 LINE",
"123.21 540 LINE",
"222.37 540 LINE",
"161.89 197 LINE",
"62.73 197 LINE"
);
},
{
closed = 1;
nodes = (
"94.14 -209 LINE",
"367.14 -209 LINE",
"394.99 -51 LINE",
"121.99 -51 LINE"
);
}
);
width = 535;
}
);
note = uni1ECA;
unicode = 1ECA;
},
{
glyphname = Igrave;
layers = (
{
hints = (
{
horizontal = 1;
place = "{0, 197}";
type = Stem;
},
{
horizontal = 1;
place = "{540, 197}";
type = Stem;
},
{
horizontal = 1;
place = "{789, 163}";
type = Stem;
},
{
place = "{28, 609}";
type = Stem;
}
);
layerId = "04043E30-D2B9-406E-ABC7-C215F4DFD662";
paths = (
{
closed = 1;
nodes = (
"326.61 789 LINE",
"488.61 789 LINE",
"408.36 952 LINE",
"193.36 952 LINE"
);
},
{
closed = 1;
nodes = (
"28.01 0 LINE",
"507.01 0 LINE",
"541.74 197 LINE",
"442.57 197 LINE",
"503.05 540 LINE",
"602.22 540 LINE",
"636.95 737 LINE",
"157.95 737 LINE",
"123.22 540 LINE",
"222.38 540 LINE",
"161.9 197 LINE",
"62.74 197 LINE"
);
}
);
width = 535;
}
);
leftKerningGroup = B;
note = Igrave;
rightKerningGroup = H;
unicode = 00CC;
},
{
glyphname = uni1EC8;
layers = (
{
hints = (
{
horizontal = 1;
place = "{0, 197}";
type = Stem;
},
{
horizontal = 1;
place = "{540, 197}";
type = Stem;
},
{
horizontal = 1;
place = "{789, 106}";
type = Stem;
},
{
horizontal = 1;
place = "{920, 107}";
type = Stem;
},
{
place = "{28, 609}";
type = Stem;
},
{
horizontal = 1;
place = "{828, 67}";
type = Stem;
},
{
horizontal = 1;
place = "{985, 42}";
type = Stem;
},
{
horizontal = 1;
place = "{961, 66}";
type = Stem;
}
);
layerId = "04043E30-D2B9-406E-ABC7-C215F4DFD662";
paths = (
{
closed = 1;
nodes = (
"320.61 789 LINE",
"488.61 789 LINE",
"495.49 828 LINE",
"537.49 828 LINE",
"592.18 866 LINE",
"613.16 985 LINE",
"571.58 1027 LINE",
"338.58 1027 LINE",
"276.17 985 LINE",
"264.71 920 LINE",
"414.71 920 LINE",
"421.94 961 LINE",
"453.94 961 LINE",
"442.3 895 LINE",
"378.3 895 LINE",
"334.2 866 LINE"
);
},
{
closed = 1;
nodes = (
"28.01 0 LINE",
"507.01 0 LINE",
"541.74 197 LINE",
"442.57 197 LINE",
"503.05 540 LINE",
"602.22 540 LINE",
"636.95 737 LINE",
"157.95 737 LINE",
"123.22 540 LINE",
"222.38 540 LINE",
"161.9 197 LINE",
"62.74 197 LINE"
);
}
);
width = 535;
}
);
note = uni1EC8;
unicode = 1EC8;
},
{
glyphname = uni020A;
layers = (
{
hints = (
{
horizontal = 1;
place = "{0, 197}";
type = Stem;
},
{
horizontal = 1;
place = "{540, 197}";
type = Stem;
},
{
horizontal = 1;
place = "{789, 163}";
type = Stem;
},
{
place = "{28, 637}";
type = Stem;
},
{
horizontal = 1;
place = "{841, 111}";
type = Stem;
}
);
layerId = "04043E30-D2B9-406E-ABC7-C215F4DFD662";
paths = (
{
closed = 1;
nodes = (
"157.61 789 LINE",
"353.61 789 LINE",
"362.78 841 LINE",
"464.78 841 LINE",
"455.61 789 LINE",
"651.61 789 LINE",
"664.84 864 LINE",
"577.36 952 LINE",
"289.36 952 LINE",
"170.85 864 LINE"
);
},
{
closed = 1;
nodes = (
"28.01 0 LINE",
"507.01 0 LINE",
"541.74 197 LINE",
"442.57 197 LINE",
"503.05 540 LINE",
"602.22 540 LINE",
"636.95 737 LINE",
"157.95 737 LINE",
"123.22 540 LINE",
"222.38 540 LINE",
"161.9 197 LINE",
"62.74 197 LINE"
);
}
);
width = 535;
}
);
note = uni020A;
unicode = 020A;
},
{
glyphname = Imacron;
layers = (
{
hints = (
{
horizontal = 1;
place = "{0, 197}";
type = Stem;
},
{
horizontal = 1;
place = "{540, 197}";
type = Stem;
},
{
horizontal = 1;
place = "{789, 149}";
type = Stem;
},
{
place = "{28, 681}";
type = Stem;
}
);
layerId = "04043E30-D2B9-406E-ABC7-C215F4DFD662";
paths = (
{
closed = 1;
nodes = (
"126.61 789 LINE",
"682.61 789 LINE",
"708.89 938 LINE",
"152.89 938 LINE"
);
},
{
closed = 1;
nodes = (
"28 0 LINE",
"507 0 LINE",
"541.73 197 LINE",
"442.56 197 LINE",
"503.04 540 LINE",
"602.21 540 LINE",
"636.94 737 LINE",
"157.94 737 LINE",
"123.21 540 LINE",
"222.37 540 LINE",
"161.89 197 LINE",
"62.73 197 LINE"
);
}
);
width = 535;
}
);
note = Imacron;
unicode = 012A;
},
{
glyphname = Iogonek;
layers = (
{
hints = (
{
horizontal = 1;
place = "{-191, 127}";
type = Stem;
},
{
horizontal = 1;
place = "{0, 197}";
type = Stem;
},
{
horizontal = 1;
place = "{540, 197}";
type = Stem;
},
{
place = "{28, 609}";
type = Stem;
}
);
layerId = "04043E30-D2B9-406E-ABC7-C215F4DFD662";
paths = (
{
closed = 1;
nodes = (
"28 0 LINE",
"386 0 LINE",
"335.18 -33 LINE",
"319.5 -122 LINE",
"390.32 -191 LINE",
"487.32 -191 LINE",
"509.71 -64 LINE",
"481.71 -64 LINE",
"468.19 -50 LINE",
"472.42 -26 LINE",
"506.99 0 LINE",
"541.72 197 LINE",
"442.55 197 LINE",
"503.03 540 LINE",
"602.2 540 LINE",
"636.93 737 LINE",
"157.93 737 LINE",
"123.2 540 LINE",
"222.36 540 LINE",
"161.88 197 LINE",
"62.72 197 LINE"
);
}
);
width = 535;
}
);
note = Iogonek;
unicode = 012E;
},
{
glyphname = Itilde;
layers = (
{
hints = (
{
horizontal = 1;
place = "{0, 197}";
type = Stem;
},
{
horizontal = 1;
place = "{540, 197}";
type = Stem;
},
{
horizontal = 1;
place = "{789, 161}";
type = Stem;
},
{
place = "{28, 664}";
type = Stem;
},
{
horizontal = 1;
place = "{789, 113}";
type = Stem;
},
{
horizontal = 1;
place = "{795, 162}";
type = Stem;
},
{
horizontal = 1;
place = "{843, 114}";
type = Stem;
}
);
layerId = "04043E30-D2B9-406E-ABC7-C215F4DFD662";
paths = (
{
closed = 1;
nodes = (
"382.61 789 LINE",
"579.61 789 LINE",
"676.3 861 LINE",
"691.99 950 LINE",
"539.99 950 LINE",
"534.17 917 LINE",
"515.53 902 LINE",
"497.53 902 LINE",
"458.24 957 LINE",
"260.24 957 LINE",
"164.19 883 LINE",
"148.68 795 LINE",
"300.68 795 LINE",
"306.31 827 LINE",
"325.13 843 LINE",
"342.13 843 LINE"
);
},
{
closed = 1;
nodes = (
"28 0 LINE",
"507 0 LINE",
"541.73 197 LINE",
"442.56 197 LINE",
"503.04 540 LINE",
"602.21 540 LINE",
"636.94 737 LINE",
"157.94 737 LINE",
"123.21 540 LINE",
"222.37 540 LINE",
"161.89 197 LINE",
"62.73 197 LINE"
);
}
);
width = 535;
}
);
note = Itilde;
unicode = 0128;
},
{
glyphname = J;
layers = (
{
hints = (
{
horizontal = 1;
place = "{0, 153}";
type = Stem;
},
{
place = "{40, 809}";
type = Stem;
}
);
layerId = "04043E30-D2B9-406E-ABC7-C215F4DFD662";
paths = (
{
closed = 1;
nodes = (
"134 0 LINE",
"608 0 LINE",
"735.75 95 LINE",
"848.94 737 LINE",
"559.94 737 LINE",
"456.97 153 LINE",
"339.97 153 LINE",
"375.41 354 LINE",
"85.41 354 LINE",
"39.75 95 LINE"
);
}
);
width = 764;
}
);
leftKerningGroup = J;
note = J;
unicode = 004A;
},
{
glyphname = Jcircumflex;
layers = (
{
hints = (
{
horizontal = 1;
place = "{0, 153}";
type = Stem;
},
{
horizontal = 1;
place = "{789, 163}";
type = Stem;
},
{
place = "{40, 936}";
type = Stem;
},
{
horizontal = 1;
place = "{865, 87}";
type = Stem;
}
);
layerId = "04043E30-D2B9-406E-ABC7-C215F4DFD662";
paths = (
{
closed = 1;
nodes = (
"445.11 789 LINE",
"637.11 789 LINE",
"726.51 865 LINE",
"789.1 789 LINE",
"976.1 789 LINE",
"881.85 952 LINE",
"596.85 952 LINE"
);
},
{
closed = 1;
nodes = (
"134 0 LINE",
"608 0 LINE",
"735.75 95 LINE",
"848.94 737 LINE",
"559.94 737 LINE",
"456.97 153 LINE",
"339.97 153 LINE",
"375.41 354 LINE",
"85.41 354 LINE",
"39.75 95 LINE"
);
}
);
width = 764;
}
);
leftKerningGroup = J;
note = Jcircumflex;
unicode = 0134;
},
{
glyphname = K;
layers = (
{
hints = (
{
horizontal = 1;
place = "{0, 737}";
type = Stem;
},
{
place = "{45, 917}";
type = Stem;
}
);
layerId = "04043E30-D2B9-406E-ABC7-C215F4DFD662";
paths = (
{
closed = 1;
nodes = (
"45 0 LINE",
"334.89 0 LINE",
"390.42 314.94 LINE",
"500.49 0 LINE",
"825.49 0 LINE",
"652.84 397.44 LINE",
"962.44 736.99 LINE",
"633.44 736.99 LINE",
"418.86 476.2 LINE",
"464.84 736.99 LINE",
"174.95 736.99 LINE"
);
}
);
width = 828;
}
);
leftKerningGroup = B;
note = K;
rightKerningGroup = K;
unicode = 004B;
},
{
glyphname = uni0136;
layers = (
{
hints = (
{
horizontal = 1;
place = "{-234, 182}";
type = Stem;
},
{
place = "{45, 917}";
type = Stem;
}
);
layerId = "04043E30-D2B9-406E-ABC7-C215F4DFD662";
paths = (
{
closed = 1;
nodes = (
"45 0 LINE",
"334.89 0 LINE",
"390.42 314.94 LINE",
"500.49 0 LINE",
"825.49 0 LINE",
"652.84 397.44 LINE",
"962.44 736.99 LINE",
"633.44 736.99 LINE",
"418.86 476.2 LINE",
"464.84 736.99 LINE",
"174.95 736.99 LINE"
);
},
{
closed = 1;
nodes = (
"210.13 -234.01 LINE",
"360.13 -234.01 LINE",
"525.21 -52.01 LINE",
"293.21 -52.01 LINE"
);
}
);
width = 828;
}
);
leftKerningGroup = B;
note = uni0136;
rightKerningGroup = K;
unicode = 0136;
},
{
glyphname = L;
layers = (
{
hints = (
{
horizontal = 1;
place = "{0, 208}";
type = Stem;
},
{
place = "{45, 626}";
type = Stem;
}
);
layerId = "04043E30-D2B9-406E-ABC7-C215F4DFD662";
paths = (
{
closed = 1;
nodes = (
"45 0 LINE",
"634.5 0 LINE",
"671.17 208 LINE",
"371.57 208 LINE",
"464.83 737 LINE",
"174.94 737 LINE"
);
}
);
width = 663;
}
);
leftKerningGroup = B;
note = L;
rightKerningGroup = L;
unicode = 004C;
},
{
glyphname = uni01C7;
layers = (
{
hints = (
{
horizontal = 1;
place = "{0, 208}";
type = Stem;
},
{
place = "{45, 1466}";
type = Stem;
},
{
horizontal = 1;
place = "{0, 153}";
type = Stem;
}
);
layerId = "04043E30-D2B9-406E-ABC7-C215F4DFD662";
paths = (
{
closed = 1;
nodes = (
"45 0 LINE",
"634.5 0 LINE",
"671.17 208 LINE",
"371.57 208 LINE",
"464.83 737 LINE",
"174.94 737 LINE"
);
},
{
closed = 1;
nodes = (
"796.49 0 LINE",
"1270.49 0 LINE",
"1398.24 95 LINE",
"1511.43 737 LINE",
"1222.43 737 LINE",
"1119.46 153 LINE",
"1002.46 153 LINE",
"1037.9 354 LINE",
"747.9 354 LINE",
"702.24 95 LINE"
);
}
);
width = 1427;
}
);
note = uni01C7;
unicode = 01C7;
},
{
glyphname = Lacute;
layers = (
{
hints = (
{
horizontal = 1;
place = "{0, 208}";
type = Stem;
},
{
horizontal = 1;
place = "{789, 163}";
type = Stem;
},
{
place = "{45, 626}";
type = Stem;
}
);
layerId = "04043E30-D2B9-406E-ABC7-C215F4DFD662";
paths = (
{
closed = 1;
nodes = (
"264.61 789 LINE",
"422.61 789 LINE",
"613.35 952 LINE",
"372.35 952 LINE"
);
},
{
closed = 1;
nodes = (
"45 0 LINE",
"634.5 0 LINE",
"671.17 208 LINE",
"371.57 208 LINE",
"464.83 737 LINE",
"174.94 737 LINE"
);
}
);
width = 663;
}
);
leftKerningGroup = B;
note = Lacute;
rightKerningGroup = L;
unicode = 0139;
},
{
glyphname = Lcaron;
layers = (
{
hints = (
{
horizontal = 1;
place = "{0, 208}";
type = Stem;
},
{
horizontal = 1;
place = "{555, 182}";
type = Stem;
},
{
place = "{45, 738}";
type = Stem;
}
);
layerId = "04043E30-D2B9-406E-ABC7-C215F4DFD662";
paths = (
{
closed = 1;
nodes = (
"45 0 LINE",
"634.5 0 LINE",
"671.17 208 LINE",
"371.57 208 LINE",
"464.83 737 LINE",
"174.94 737 LINE"
);
},
{
closed = 1;
nodes = (
"468.35 555 LINE",
"618.35 555 LINE",
"783.43 737 LINE",
"551.43 737 LINE"
);
}
);
width = 663;
}
);
note = Lcaron;
rightKerningGroup = L;
unicode = 013D;
},
{
glyphname = uni013B;
layers = (
{
hints = (
{
horizontal = 1;
place = "{-234, 182}";
type = Stem;
},
{
horizontal = 1;
place = "{0, 208}";
type = Stem;
},
{
place = "{45, 626}";
type = Stem;
}
);
layerId = "04043E30-D2B9-406E-ABC7-C215F4DFD662";
paths = (
{
closed = 1;
nodes = (
"45 0 LINE",
"634.5 0 LINE",
"671.17 208 LINE",
"371.57 208 LINE",
"464.83 737 LINE",
"174.94 737 LINE"
);
},
{
closed = 1;
nodes = (
"143.23 -234 LINE",
"293.23 -234 LINE",
"458.31 -52 LINE",
"226.31 -52 LINE"
);
}
);
width = 663;
}
);
note = uni013B;
rightKerningGroup = L;
unicode = 013B;
},
{
glyphname = Ldot;
layers = (
{
hints = (
{
horizontal = 1;
place = "{0, 208}";
type = Stem;
},
{
horizontal = 1;
place = "{331.13, 187}";
type = Stem;
},
{
place = "{45, 672}";
type = Stem;
}
);
layerId = "04043E30-D2B9-406E-ABC7-C215F4DFD662";
paths = (
{
closed = 1;
nodes = (
"45 0 LINE",
"634.5 0 LINE",
"671.17 208 LINE",
"371.57 208 LINE",
"464.83 737 LINE",
"174.94 737 LINE"
);
},
{
closed = 1;
nodes = (
"460.87 331.13 LINE",
"683.87 331.13 LINE",
"716.84 518.13 LINE",
"493.84 518.13 LINE"
);
}
);
width = 663;
}
);
note = Ldot;
unicode = 013F;
},
{
glyphname = uni01C8;
layers = (
{
hints = (
{
horizontal = 1;
place = "{-187, 120}";
type = Stem;
},
{
horizontal = 1;
place = "{0, 208}";
type = Stem;
},
{
horizontal = 1;
place = "{575, 158}";
type = Stem;
},
{
place = "{45, 1061}";
type = Stem;
}
);
layerId = "04043E30-D2B9-406E-ABC7-C215F4DFD662";
paths = (
{
closed = 1;
nodes = (
"45 0 LINE",
"634.5 0 LINE",
"671.17 208 LINE",
"371.57 208 LINE",
"464.83 737 LINE",
"174.94 737 LINE"
);
},
{
closed = 1;
nodes = (
"805.37 575 LINE",
"1078.37 575 LINE",
"1106.23 733 LINE",
"833.23 733 LINE"
);
},
{
closed = 1;
nodes = (
"580.51 -187 LINE",
"833.51 -187 LINE",
"961.26 -92 LINE",
"1068.7 523 LINE",
"795.7 523 LINE",
"691.67 -67 LINE",
"601.67 -67 LINE"
);
}
);
width = 1017;
}
);
note = uni01C8;
unicode = 01C8;
},
{
glyphname = Lslash;
layers = (
{
hints = (
{
horizontal = 1;
place = "{0, 208}";
type = Stem;
},
{
place = "{17, 654}";
type = Stem;
}
);
layerId = "04043E30-D2B9-406E-ABC7-C215F4DFD662";
paths = (
{
closed = 1;
nodes = (
"16.73 191.32 LINE",
"83.51 218.51 LINE",
"44.99 0 LINE",
"634.49 0 LINE",
"671.16 208 LINE",
"371.56 208 LINE",
"395.82 345.66 LINE",
"563.67 413.99 LINE",
"592.86 581.68 LINE",
"425.4 513.44 LINE",
"464.81 736.98 LINE",
"174.92 736.98 LINE",
"113.07 386.16 LINE",
"46.12 358.88 LINE"
);
}
);
width = 663;
}
);
note = Lslash;
rightKerningGroup = L;
unicode = 0141;
},
{
glyphname = M;
layers = (
{
hints = (
{
horizontal = 1;
place = "{0, 737}";
type = Stem;
},
{
place = "{45, 967}";
type = Stem;
}
);
layerId = "04043E30-D2B9-406E-ABC7-C215F4DFD662";
paths = (
{
closed = 1;
nodes = (
"45 0 LINE",
"306.4 0 LINE",
"373.76 382 LINE",
"417.64 46 LINE",
"526.64 46 LINE",
"688.02 380.2 LINE",
"620.99 0 LINE",
"882.39 0 LINE",
"1012.34 737 LINE",
"731.49 737 LINE",
"530.19 378 LINE",
"455.5 737 LINE",
"174.95 737 LINE"
);
}
);
width = 927;
}
);
note = M;
unicode = 004D;
},
{
glyphname = N;
layers = (
{
hints = (
{
horizontal = 1;
place = "{0, 737}";
type = Stem;
},
{
place = "{45, 815}";
type = Stem;
}
);
layerId = "04043E30-D2B9-406E-ABC7-C215F4DFD662";
paths = (
{
closed = 1;
nodes = (
"45 0 LINE",
"306.4 0 LINE",
"374.84 385.26 LINE",
"473.67 0 LINE",
"730.38 0 LINE",
"860.33 737 LINE",
"598.92 737 LINE",
"533.77 367.52 LINE",
"433.32 737 LINE",
"174.93 737 LINE"
);
}
);
width = 775;
}
);
leftKerningGroup = B;
note = N;
rightKerningGroup = H;
unicode = 004E;
},
{
glyphname = uni01CA;
layers = (
{
hints = (
{
horizontal = 1;
place = "{0, 153}";
type = Stem;
},
{
place = "{45, 1579}";
type = Stem;
}
);
layerId = "04043E30-D2B9-406E-ABC7-C215F4DFD662";
paths = (
{
closed = 1;
nodes = (
"45 0 LINE",
"306.4 0 LINE",
"374.84 385.26 LINE",
"473.67 0 LINE",
"730.38 0 LINE",
"860.33 737 LINE",
"598.92 737 LINE",
"533.77 367.52 LINE",
"433.32 737 LINE",
"174.93 737 LINE"
);
},
{
closed = 1;
nodes = (
"909.38 0 LINE",
"1383.38 0 LINE",
"1511.13 95 LINE",
"1624.33 737 LINE",
"1335.33 737 LINE",
"1232.36 153 LINE",
"1115.36 153 LINE",
"1150.8 354 LINE",
"860.8 354 LINE",
"815.13 95 LINE"
);
}
);
width = 1539;
}
);
note = uni01CA;
unicode = 01CA;
},
{
glyphname = Nacute;
layers = (
{
hints = (
{
horizontal = 1;
place = "{789, 163}";
type = Stem;
},
{
place = "{45, 815}";
type = Stem;
}
);
layerId = "04043E30-D2B9-406E-ABC7-C215F4DFD662";
paths = (
{
closed = 1;
nodes = (
"449.66 789 LINE",
"607.66 789 LINE",
"798.39 952 LINE",
"557.39 952 LINE"
);
},
{
closed = 1;
nodes = (
"44.99 0 LINE",
"306.39 0 LINE",
"374.83 385.26 LINE",
"473.66 0 LINE",
"730.37 0 LINE",
"860.32 737 LINE",
"598.91 737 LINE",
"533.76 367.52 LINE",
"433.31 737 LINE",
"174.92 737 LINE"
);
}
);
width = 775;
}
);
note = Nacute;
unicode = 0143;
},
{
glyphname = Ncaron;
layers = (
{
hints = (
{
horizontal = 1;
place = "{789, 163}";
type = Stem;
},
{
place = "{45, 815}";
type = Stem;
}
);
layerId = "04043E30-D2B9-406E-ABC7-C215F4DFD662";
paths = (
{
closed = 1;
nodes = (
"387.66 789 LINE",
"672.66 789 LINE",
"824.39 952 LINE",
"632.39 952 LINE",
"543 876 LINE",
"480.4 952 LINE",
"293.4 952 LINE"
);
},
{
closed = 1;
nodes = (
"45 0 LINE",
"306.4 0 LINE",
"374.84 385.26 LINE",
"473.67 0 LINE",
"730.38 0 LINE",
"860.33 737 LINE",
"598.92 737 LINE",
"533.77 367.52 LINE",
"433.32 737 LINE",
"174.93 737 LINE"
);
}
);
width = 775;
}
);
note = Ncaron;
unicode = 0147;
},
{
glyphname = uni0145;
layers = (
{
hints = (
{
horizontal = 1;
place = "{-234, 182}";
type = Stem;
},
{
place = "{45, 815}";
type = Stem;
}
);
layerId = "04043E30-D2B9-406E-ABC7-C215F4DFD662";
paths = (
{
closed = 1;
nodes = (
"45 0 LINE",
"306.4 0 LINE",
"374.84 385.26 LINE",
"473.67 0 LINE",
"730.38 0 LINE",
"860.33 737 LINE",
"598.92 737 LINE",
"533.77 367.52 LINE",
"433.32 737 LINE",
"174.93 737 LINE"
);
},
{
closed = 1;
nodes = (
"181.26 -234 LINE",
"331.26 -234 LINE",
"496.34 -52 LINE",
"264.34 -52 LINE"
);
}
);
width = 775;
}
);
note = uni0145;
unicode = 0145;
},
{
glyphname = Eng;
layers = (
{
hints = (
{
horizontal = 1;
place = "{-187, 120}";
type = Stem;
},
{
place = "{45, 815}";
type = Stem;
}
);
layerId = "04043E30-D2B9-406E-ABC7-C215F4DFD662";
paths = (
{
closed = 1;
nodes = (
"351.02 -187 LINE",
"586.43 -187 LINE",
"714.18 -92 LINE",
"860.35 737 LINE",
"598.94 737 LINE",
"533.79 367.52 LINE",
"433.34 737 LINE",
"174.95 737 LINE",
"45.01 0 LINE",
"306.41 0 LINE",
"374.85 385.26 LINE",
"473.63 0.18 LINE",
"463.95 -56.99 LINE",
"454.19 -66.99 LINE",
"372.19 -66.99 LINE"
);
}
);
width = 775;
}
);
note = Eng;
unicode = 014A;
},
{
glyphname = uni01CB;
layers = (
{
hints = (
{
horizontal = 1;
place = "{-187, 120}";
type = Stem;
},
{
horizontal = 1;
place = "{575, 158}";
type = Stem;
},
{
place = "{45, 1174}";
type = Stem;
},
{
horizontal = 1;
place = "{575, 162}";
type = Stem;
}
);
layerId = "04043E30-D2B9-406E-ABC7-C215F4DFD662";
paths = (
{
closed = 1;
nodes = (
"45 0 LINE",
"306.4 0 LINE",
"374.84 385.26 LINE",
"473.67 0 LINE",
"730.38 0 LINE",
"860.33 737 LINE",
"598.92 737 LINE",
"533.77 367.52 LINE",
"433.32 737 LINE",
"174.93 737 LINE"
);
},
{
closed = 1;
nodes = (
"918.27 575 LINE",
"1191.27 575 LINE",
"1219.12 733 LINE",
"946.12 733 LINE"
);
},
{
closed = 1;
nodes = (
"693.41 -187 LINE",
"946.41 -187 LINE",
"1074.16 -92 LINE",
"1181.6 523 LINE",
"908.6 523 LINE",
"804.57 -67 LINE",
"714.57 -67 LINE"
);
}
);
width = 1130;
}
);
note = uni01CB;
unicode = 01CB;
},
{
glyphname = Ntilde;
layers = (
{
hints = (
{
horizontal = 1;
place = "{789, 161}";
type = Stem;
},
{
place = "{45, 815}";
type = Stem;
},
{
horizontal = 1;
place = "{789, 113}";
type = Stem;
},
{
horizontal = 1;
place = "{795, 162}";
type = Stem;
},
{
horizontal = 1;
place = "{843, 114}";
type = Stem;
}
);
layerId = "04043E30-D2B9-406E-ABC7-C215F4DFD662";
paths = (
{
closed = 1;
nodes = (
"505.66 789 LINE",
"702.66 789 LINE",
"799.35 861 LINE",
"815.04 950 LINE",
"663.04 950 LINE",
"657.22 917 LINE",
"638.58 902 LINE",
"620.58 902 LINE",
"581.28 957 LINE",
"383.28 957 LINE",
"287.24 883 LINE",
"271.72 795 LINE",
"423.72 795 LINE",
"429.36 827 LINE",
"448.18 843 LINE",
"465.18 843 LINE"
);
},
{
closed = 1;
nodes = (
"45 0 LINE",
"306.4 0 LINE",
"374.84 385.26 LINE",
"473.67 0 LINE",
"730.38 0 LINE",
"860.33 737 LINE",
"598.92 737 LINE",
"533.77 367.52 LINE",
"433.32 737 LINE",
"174.93 737 LINE"
);
}
);
width = 775;
}
);
leftKerningGroup = B;
note = Ntilde;
rightKerningGroup = H;
unicode = 00D1;
},
{
glyphname = O;
layers = (
{
hints = (
{
horizontal = 1;
place = "{0, 153}";
type = Stem;
},
{
horizontal = 1;
place = "{584, 153}";
type = Stem;
},
{
place = "{51, 821}";
type = Stem;
}
);
layerId = "04043E30-D2B9-406E-ABC7-C215F4DFD662";
paths = (
{
closed = 1;
nodes = (
"145 0 LINE",
"648 0 LINE",
"775.75 95 LINE",
"872.19 642 LINE",
"777.94 737 LINE",
"274.94 737 LINE",
"147.19 642 LINE",
"50.75 95 LINE"
);
},
{
closed = 1;
nodes = (
"350.97 153 LINE",
"426.97 584 LINE",
"571.96 584 LINE",
"495.97 153 LINE"
);
}
);
width = 793;
}
);
note = O;
rightKerningGroup = O;
unicode = 004F;
},
{
glyphname = Oacute;
layers = (
{
hints = (
{
horizontal = 1;
place = "{0, 153}";
type = Stem;
},
{
horizontal = 1;
place = "{584, 153}";
type = Stem;
},
{
horizontal = 1;
place = "{789, 163}";
type = Stem;
},
{
place = "{51, 821}";
type = Stem;
}
);
layerId = "04043E30-D2B9-406E-ABC7-C215F4DFD662";
paths = (
{
closed = 1;
nodes = (
"455.11 789 LINE",
"613.11 789 LINE",
"803.85 952 LINE",
"562.85 952 LINE"
);
},
{
closed = 1;
nodes = (
"145 0 LINE",
"648 0 LINE",
"775.75 95 LINE",
"872.19 642 LINE",
"777.94 737 LINE",
"274.94 737 LINE",
"147.19 642 LINE",
"50.75 95 LINE"
);
},
{
closed = 1;
nodes = (
"350.97 153 LINE",
"426.97 584 LINE",
"571.96 584 LINE",
"495.97 153 LINE"
);
}
);
width = 793;
}
);
note = Oacute;
rightKerningGroup = O;
unicode = 00D3;
},
{
glyphname = Obreve;
layers = (
{
hints = (
{
horizontal = 1;
place = "{0, 153}";
type = Stem;
},
{
horizontal = 1;
place = "{584, 153}";
type = Stem;
},
{
horizontal = 1;
place = "{789, 163}";
type = Stem;
},
{
place = "{51, 821}";
type = Stem;
},
{
horizontal = 1;
place = "{789, 111}";
type = Stem;
}
);
layerId = "04043E30-D2B9-406E-ABC7-C215F4DFD662";
paths = (
{
closed = 1;
nodes = (
"396.11 789 LINE",
"674.11 789 LINE",
"792.62 877 LINE",
"805.84 952 LINE",
"609.84 952 LINE",
"600.67 900 LINE",
"498.67 900 LINE",
"507.84 952 LINE",
"321.84 952 LINE",
"308.62 877 LINE"
);
},
{
closed = 1;
nodes = (
"144.99 0 LINE",
"647.99 0 LINE",
"775.74 95 LINE",
"872.18 642 LINE",
"777.93 737 LINE",
"274.93 737 LINE",
"147.18 642 LINE",
"50.74 95 LINE"
);
},
{
closed = 1;
nodes = (
"350.96 153 LINE",
"426.96 584 LINE",
"571.95 584 LINE",
"495.96 153 LINE"
);
}
);
width = 793;
}
);
note = Obreve;
unicode = 014E;
},
{
glyphname = Ocircumflex;
layers = (
{
hints = (
{
horizontal = 1;
place = "{0, 153}";
type = Stem;
},
{
horizontal = 1;
place = "{584, 153}";
type = Stem;
},
{
horizontal = 1;
place = "{789, 163}";
type = Stem;
},
{
place = "{51, 821}";
type = Stem;
},
{
horizontal = 1;
place = "{865, 87}";
type = Stem;
}
);
layerId = "04043E30-D2B9-406E-ABC7-C215F4DFD662";
paths = (
{
closed = 1;
nodes = (
"265.11 789 LINE",
"457.11 789 LINE",
"546.51 865 LINE",
"609.1 789 LINE",
"796.1 789 LINE",
"701.85 952 LINE",
"416.85 952 LINE"
);
},
{
closed = 1;
nodes = (
"145 0 LINE",
"648 0 LINE",
"775.75 95 LINE",
"872.19 642 LINE",
"777.94 737 LINE",
"274.94 737 LINE",
"147.19 642 LINE",
"50.75 95 LINE"
);
},
{
closed = 1;
nodes = (
"350.97 153 LINE",
"426.97 584 LINE",
"571.96 584 LINE",
"495.97 153 LINE"
);
}
);
width = 793;
}
);
note = Ocircumflex;
rightKerningGroup = O;
unicode = 00D4;
},
{
glyphname = uni1ED0;
layers = (
{
hints = (
{
horizontal = 1;
place = "{0, 153}";
type = Stem;
},
{
horizontal = 1;
place = "{584, 153}";
type = Stem;
},
{
horizontal = 1;
place = "{876.72, 163}";
type = Stem;
},
{
place = "{51, 1128}";
type = Stem;
},
{
horizontal = 1;
place = "{789, 163}";
type = Stem;
},
{
horizontal = 1;
place = "{865, 87}";
type = Stem;
}
);
layerId = "04043E30-D2B9-406E-ABC7-C215F4DFD662";
paths = (
{
closed = 1;
nodes = (
"830.7 876.71 LINE",
"988.7 876.71 LINE",
"1179.44 1039.71 LINE",
"938.44 1039.71 LINE"
);
},
{
closed = 1;
nodes = (
"265.11 789 LINE",
"457.11 789 LINE",
"546.51 865 LINE",
"609.1 789 LINE",
"796.1 789 LINE",
"701.85 952 LINE",
"416.85 952 LINE"
);
},
{
closed = 1;
nodes = (
"145 0 LINE",
"648 0 LINE",
"775.75 95 LINE",
"872.19 642 LINE",
"777.94 737 LINE",
"274.94 737 LINE",
"147.19 642 LINE",
"50.75 95 LINE"
);
},
{
closed = 1;
nodes = (
"350.97 153 LINE",
"426.97 584 LINE",
"571.96 584 LINE",
"495.97 153 LINE"
);
}
);
width = 793;
}
);
note = uni1ED0;
unicode = 1ED0;
},
{
glyphname = uni1ED8;
layers = (
{
hints = (
{
horizontal = 1;
place = "{-209, 158}";
type = Stem;
},
{
horizontal = 1;
place = "{0, 153}";
type = Stem;
},
{
horizontal = 1;
place = "{584, 153}";
type = Stem;
},
{
horizontal = 1;
place = "{789, 163}";
type = Stem;
},
{
place = "{51, 821}";
type = Stem;
},
{
horizontal = 1;
place = "{865, 87}";
type = Stem;
}
);
layerId = "04043E30-D2B9-406E-ABC7-C215F4DFD662";
paths = (
{
closed = 1;
nodes = (
"265.11 789 LINE",
"457.11 789 LINE",
"546.51 865 LINE",
"609.1 789 LINE",
"796.1 789 LINE",
"701.85 952 LINE",
"416.85 952 LINE"
);
},
{
closed = 1;
nodes = (
"145 0 LINE",
"648 0 LINE",
"775.75 95 LINE",
"872.19 642 LINE",
"777.94 737 LINE",
"274.94 737 LINE",
"147.19 642 LINE",
"50.75 95 LINE"
);
},
{
closed = 1;
nodes = (
"350.97 153 LINE",
"426.97 584 LINE",
"571.96 584 LINE",
"495.97 153 LINE"
);
},
{
closed = 1;
nodes = (
"223.65 -209 LINE",
"496.65 -209 LINE",
"524.5 -51 LINE",
"251.5 -51 LINE"
);
}
);
width = 793;
}
);
note = uni1ED8;
unicode = 1ED8;
},
{
glyphname = uni1ED2;
layers = (
{
hints = (
{
horizontal = 1;
place = "{0, 153}";
type = Stem;
},
{
horizontal = 1;
place = "{584, 153}";
type = Stem;
},
{
horizontal = 1;
place = "{876.53, 163}";
type = Stem;
},
{
place = "{4, 868}";
type = Stem;
},
{
horizontal = 1;
place = "{789, 163}";
type = Stem;
},
{
horizontal = 1;
place = "{865, 87}";
type = Stem;
}
);
layerId = "04043E30-D2B9-406E-ABC7-C215F4DFD662";
paths = (
{
closed = 1;
nodes = (
"137.12 876.52 LINE",
"299.12 876.52 LINE",
"218.86 1039.52 LINE",
"3.86 1039.52 LINE"
);
},
{
closed = 1;
nodes = (
"265.11 789 LINE",
"457.11 789 LINE",
"546.51 865 LINE",
"609.1 789 LINE",
"796.1 789 LINE",
"701.85 952 LINE",
"416.85 952 LINE"
);
},
{
closed = 1;
nodes = (
"145 0 LINE",
"648 0 LINE",
"775.75 95 LINE",
"872.19 642 LINE",
"777.94 737 LINE",
"274.94 737 LINE",
"147.19 642 LINE",
"50.75 95 LINE"
);
},
{
closed = 1;
nodes = (
"350.97 153 LINE",
"426.97 584 LINE",
"571.96 584 LINE",
"495.97 153 LINE"
);
}
);
width = 793;
}
);
note = uni1ED2;
unicode = 1ED2;
},
{
glyphname = uni1ED4;
layers = (
{
hints = (
{
horizontal = 1;
place = "{0, 153}";
type = Stem;
},
{
horizontal = 1;
place = "{584, 153}";
type = Stem;
},
{
horizontal = 1;
place = "{876.65, 106}";
type = Stem;
},
{
horizontal = 1;
place = "{1007.65, 107}";
type = Stem;
},
{
place = "{51, 1035}";
type = Stem;
},
{
horizontal = 1;
place = "{915.65, 67}";
type = Stem;
},
{
horizontal = 1;
place = "{1072.65, 42}";
type = Stem;
},
{
horizontal = 1;
place = "{789, 163}";
type = Stem;
},
{
horizontal = 1;
place = "{1048.65, 66}";
type = Stem;
},
{
horizontal = 1;
place = "{865, 87}";
type = Stem;
}
);
layerId = "04043E30-D2B9-406E-ABC7-C215F4DFD662";
paths = (
{
closed = 1;
nodes = (
"793.57 876.64 LINE",
"961.57 876.64 LINE",
"968.44 915.64 LINE",
"1010.44 915.64 LINE",
"1065.13 953.64 LINE",
"1086.11 1072.64 LINE",
"1044.52 1114.64 LINE",
"811.52 1114.64 LINE",
"749.12 1072.64 LINE",
"737.67 1007.64 LINE",
"887.67 1007.64 LINE",
"894.89 1048.64 LINE",
"926.89 1048.64 LINE",
"915.26 982.64 LINE",
"851.26 982.64 LINE",
"807.14 953.64 LINE"
);
},
{
closed = 1;
nodes = (
"265.11 789 LINE",
"457.11 789 LINE",
"546.51 865 LINE",
"609.1 789 LINE",
"796.1 789 LINE",
"701.85 952 LINE",
"416.85 952 LINE"
);
},
{
closed = 1;
nodes = (
"145 0 LINE",
"648 0 LINE",
"775.75 95 LINE",
"872.19 642 LINE",
"777.94 737 LINE",
"274.94 737 LINE",
"147.19 642 LINE",
"50.75 95 LINE"
);
},
{
closed = 1;
nodes = (
"350.97 153 LINE",
"426.97 584 LINE",
"571.96 584 LINE",
"495.97 153 LINE"
);
}
);
width = 793;
}
);
note = uni1ED4;
unicode = 1ED4;
},
{
glyphname = uni1ED6;
layers = (
{
hints = (
{
horizontal = 1;
place = "{0, 153}";
type = Stem;
},
{
horizontal = 1;
place = "{584, 153}";
type = Stem;
},
{
horizontal = 1;
place = "{789, 163}";
type = Stem;
},
{
horizontal = 1;
place = "{983, 161}";
type = Stem;
},
{
place = "{51, 821}";
type = Stem;
},
{
horizontal = 1;
place = "{983, 113}";
type = Stem;
},
{
horizontal = 1;
place = "{989, 162}";
type = Stem;
},
{
horizontal = 1;
place = "{1037, 114}";
type = Stem;
},
{
horizontal = 1;
place = "{865, 87}";
type = Stem;
}
);
layerId = "04043E30-D2B9-406E-ABC7-C215F4DFD662";
paths = (
{
closed = 1;
nodes = (
"544.32 983 LINE",
"741.32 983 LINE",
"838.01 1055 LINE",
"853.7 1144 LINE",
"701.7 1144 LINE",
"695.88 1111 LINE",
"677.24 1096 LINE",
"659.24 1096 LINE",
"619.94 1151 LINE",
"421.94 1151 LINE",
"325.89 1077 LINE",
"310.38 989 LINE",
"462.38 989 LINE",
"468.02 1021 LINE",
"486.84 1037 LINE",
"503.84 1037 LINE"
);
},
{
closed = 1;
nodes = (
"265.11 789 LINE",
"457.11 789 LINE",
"546.51 865 LINE",
"609.1 789 LINE",
"796.1 789 LINE",
"701.85 952 LINE",
"416.85 952 LINE"
);
},
{
closed = 1;
nodes = (
"145 0 LINE",
"648 0 LINE",
"775.75 95 LINE",
"872.19 642 LINE",
"777.94 737 LINE",
"274.94 737 LINE",
"147.19 642 LINE",
"50.75 95 LINE"
);
},
{
closed = 1;
nodes = (
"350.97 153 LINE",
"426.97 584 LINE",
"571.96 584 LINE",
"495.97 153 LINE"
);
}
);
width = 793;
}
);
note = uni1ED6;
unicode = 1ED6;
},
{
glyphname = uni020C;
layers = (
{
hints = (
{
horizontal = 1;
place = "{0, 153}";
type = Stem;
},
{
horizontal = 1;
place = "{584, 153}";
type = Stem;
},
{
horizontal = 1;
place = "{789, 163}";
type = Stem;
},
{
place = "{51, 821}";
type = Stem;
}
);
layerId = "04043E30-D2B9-406E-ABC7-C215F4DFD662";
paths = (
{
closed = 1;
nodes = (
"300.11 789 LINE",
"462.11 789 LINE",
"381.86 952 LINE",
"166.86 952 LINE"
);
},
{
closed = 1;
nodes = (
"587.11 789 LINE",
"749.11 789 LINE",
"668.86 952 LINE",
"453.86 952 LINE"
);
},
{
closed = 1;
nodes = (
"145.01 0 LINE",
"648.01 0 LINE",
"775.76 95 LINE",
"872.2 642 LINE",
"777.95 737 LINE",
"274.95 737 LINE",
"147.2 642 LINE",
"50.76 95 LINE"
);
},
{
closed = 1;
nodes = (
"350.98 153 LINE",
"426.98 584 LINE",
"571.97 584 LINE",
"495.98 153 LINE"
);
}
);
width = 793;
}
);
note = uni020C;
unicode = 020C;
},
{
glyphname = Odieresis;
layers = (
{
hints = (
{
horizontal = 1;
place = "{0, 153}";
type = Stem;
},
{
horizontal = 1;
place = "{584, 153}";
type = Stem;
},
{
horizontal = 1;
place = "{789, 158}";
type = Stem;
},
{
place = "{51, 821}";
type = Stem;
}
);
layerId = "04043E30-D2B9-406E-ABC7-C215F4DFD662";
paths = (
{
closed = 1;
nodes = (
"256.07 789 LINE",
"504.07 789 LINE",
"531.92 947 LINE",
"283.92 947 LINE"
);
},
{
closed = 1;
nodes = (
"562.47 789 LINE",
"810.47 789 LINE",
"838.32 947 LINE",
"590.32 947 LINE"
);
},
{
closed = 1;
nodes = (
"144.98 0 LINE",
"647.98 0 LINE",
"775.73 95 LINE",
"872.17 642 LINE",
"777.92 737 LINE",
"274.92 737 LINE",
"147.17 642 LINE",
"50.73 95 LINE"
);
},
{
closed = 1;
nodes = (
"350.95 153 LINE",
"426.95 584 LINE",
"571.94 584 LINE",
"495.95 153 LINE"
);
}
);
width = 793;
}
);
note = Odieresis;
rightKerningGroup = O;
unicode = 00D6;
},
{
glyphname = uni022A;
layers = (
{
hints = (
{
horizontal = 1;
place = "{0, 153}";
type = Stem;
},
{
horizontal = 1;
place = "{584, 153}";
type = Stem;
},
{
horizontal = 1;
place = "{789, 158}";
type = Stem;
},
{
horizontal = 1;
place = "{979.18, 149}";
type = Stem;
},
{
place = "{51, 821}";
type = Stem;
}
);
layerId = "04043E30-D2B9-406E-ABC7-C215F4DFD662";
paths = (
{
closed = 1;
nodes = (
"289.5 979.17 LINE",
"845.5 979.17 LINE",
"871.78 1128.17 LINE",
"315.78 1128.17 LINE"
);
},
{
closed = 1;
nodes = (
"256.07 789 LINE",
"504.07 789 LINE",
"531.92 947 LINE",
"283.92 947 LINE"
);
},
{
closed = 1;
nodes = (
"562.47 789 LINE",
"810.47 789 LINE",
"838.32 947 LINE",
"590.32 947 LINE"
);
},
{
closed = 1;
nodes = (
"144.98 0 LINE",
"647.98 0 LINE",
"775.73 95 LINE",
"872.17 642 LINE",
"777.92 737 LINE",
"274.92 737 LINE",
"147.17 642 LINE",
"50.73 95 LINE"
);
},
{
closed = 1;
nodes = (
"350.95 153 LINE",
"426.95 584 LINE",
"571.94 584 LINE",
"495.95 153 LINE"
);
}
);
width = 793;
}
);
note = uni022A;
unicode = 022A;
},
{
glyphname = uni0230;
layers = (
{
hints = (
{
horizontal = 1;
place = "{0, 153}";
type = Stem;
},
{
horizontal = 1;
place = "{584, 153}";
type = Stem;
},
{
horizontal = 1;
place = "{789, 158}";
type = Stem;
},
{
horizontal = 1;
place = "{979.18, 149}";
type = Stem;
},
{
place = "{51, 821}";
type = Stem;
}
);
layerId = "04043E30-D2B9-406E-ABC7-C215F4DFD662";
paths = (
{
closed = 1;
nodes = (
"289.5 979.17 LINE",
"845.5 979.17 LINE",
"871.78 1128.17 LINE",
"315.78 1128.17 LINE"
);
},
{
closed = 1;
nodes = (
"396.6 789 LINE",
"669.6 789 LINE",
"697.45 947 LINE",
"424.45 947 LINE"
);
},
{
closed = 1;
nodes = (
"144.98 0 LINE",
"647.98 0 LINE",
"775.73 95 LINE",
"872.17 642 LINE",
"777.92 737 LINE",
"274.92 737 LINE",
"147.17 642 LINE",
"50.73 95 LINE"
);
},
{
closed = 1;
nodes = (
"350.95 153 LINE",
"426.95 584 LINE",
"571.94 584 LINE",
"495.95 153 LINE"
);
}
);
width = 793;
}
);
note = uni0230;
unicode = 0230;
},
{
glyphname = uni1ECC;
layers = (
{
hints = (
{
horizontal = 1;
place = "{-209, 158}";
type = Stem;
},
{
horizontal = 1;
place = "{0, 153}";
type = Stem;
},
{
horizontal = 1;
place = "{584, 153}";
type = Stem;
},
{
place = "{51, 821}";
type = Stem;
}
);
layerId = "04043E30-D2B9-406E-ABC7-C215F4DFD662";
paths = (
{
closed = 1;
nodes = (
"145 0 LINE",
"648 0 LINE",
"775.75 95 LINE",
"872.19 642 LINE",
"777.94 737 LINE",
"274.94 737 LINE",
"147.19 642 LINE",
"50.75 95 LINE"
);
},
{
closed = 1;
nodes = (
"350.97 153 LINE",
"426.97 584 LINE",
"571.96 584 LINE",
"495.97 153 LINE"
);
},
{
closed = 1;
nodes = (
"223.65 -209 LINE",
"496.65 -209 LINE",
"524.5 -51 LINE",
"251.5 -51 LINE"
);
}
);
width = 793;
}
);
note = uni1ECC;
unicode = 1ECC;
},
{
glyphname = Ograve;
layers = (
{
hints = (
{
horizontal = 1;
place = "{0, 153}";
type = Stem;
},
{
horizontal = 1;
place = "{584, 153}";
type = Stem;
},
{
horizontal = 1;
place = "{789, 163}";
type = Stem;
},
{
place = "{51, 821}";
type = Stem;
}
);
layerId = "04043E30-D2B9-406E-ABC7-C215F4DFD662";
paths = (
{
closed = 1;
nodes = (
"455.11 789 LINE",
"617.11 789 LINE",
"536.86 952 LINE",
"321.86 952 LINE"
);
},
{
closed = 1;
nodes = (
"145.01 0 LINE",
"648.01 0 LINE",
"775.76 95 LINE",
"872.2 642 LINE",
"777.95 737 LINE",
"274.95 737 LINE",
"147.2 642 LINE",
"50.76 95 LINE"
);
},
{
closed = 1;
nodes = (
"350.98 153 LINE",
"426.98 584 LINE",
"571.97 584 LINE",
"495.98 153 LINE"
);
}
);
width = 793;
}
);
note = Ograve;
rightKerningGroup = O;
unicode = 00D2;
},
{
glyphname = uni1ECE;
layers = (
{
hints = (
{
horizontal = 1;
place = "{0, 153}";
type = Stem;
},
{
horizontal = 1;
place = "{584, 153}";
type = Stem;
},
{
horizontal = 1;
place = "{789, 106}";
type = Stem;
},
{
horizontal = 1;
place = "{920, 107}";
type = Stem;
},
{
place = "{51, 821}";
type = Stem;
},
{
horizontal = 1;
place = "{828, 67}";
type = Stem;
},
{
horizontal = 1;
place = "{985, 42}";
type = Stem;
},
{
horizontal = 1;
place = "{961, 66}";
type = Stem;
}
);
layerId = "04043E30-D2B9-406E-ABC7-C215F4DFD662";
paths = (
{
closed = 1;
nodes = (
"449.11 789 LINE",
"617.11 789 LINE",
"623.99 828 LINE",
"665.99 828 LINE",
"720.68 866 LINE",
"741.66 985 LINE",
"700.08 1027 LINE",
"467.08 1027 LINE",
"404.67 985 LINE",
"393.21 920 LINE",
"543.21 920 LINE",
"550.44 961 LINE",
"582.44 961 LINE",
"570.8 895 LINE",
"506.8 895 LINE",
"462.7 866 LINE"
);
},
{
closed = 1;
nodes = (
"145.01 0 LINE",
"648.01 0 LINE",
"775.76 95 LINE",
"872.2 642 LINE",
"777.95 737 LINE",
"274.95 737 LINE",
"147.2 642 LINE",
"50.76 95 LINE"
);
},
{
closed = 1;
nodes = (
"350.98 153 LINE",
"426.98 584 LINE",
"571.97 584 LINE",
"495.98 153 LINE"
);
}
);
width = 793;
}
);
note = uni1ECE;
unicode = 1ECE;
},
{
glyphname = Ohorn;
layers = (
{
hints = (
{
horizontal = 1;
place = "{0, 153}";
type = Stem;
},
{
horizontal = 1;
place = "{595, 206}";
type = Stem;
},
{
place = "{51, 1105}";
type = Stem;
},
{
horizontal = 1;
place = "{595, 88}";
type = Stem;
},
{
horizontal = 1;
place = "{584, 153}";
type = Stem;
},
{
horizontal = 1;
place = "{595, 142}";
type = Stem;
}
);
layerId = "04043E30-D2B9-406E-ABC7-C215F4DFD662";
paths = (
{
closed = 1;
nodes = (
"1156.23 801 LINE",
"925.23 801 LINE",
"869.43 683 LINE",
"831.53 683 LINE",
"777.96 737 LINE",
"274.96 737 LINE",
"147.21 642 LINE",
"50.77 95 LINE",
"145.02 0 LINE",
"648.02 0 LINE",
"775.77 95 LINE",
"863.93 595 LINE",
"966.93 595 LINE"
);
},
{
closed = 1;
nodes = (
"495.99 153 LINE",
"350.99 153 LINE",
"426.99 584 LINE",
"571.98 584 LINE"
);
}
);
width = 793;
}
);
note = Ohorn;
unicode = 01A0;
},
{
glyphname = uni1EDA;
layers = (
{
hints = (
{
horizontal = 1;
place = "{0, 153}";
type = Stem;
},
{
horizontal = 1;
place = "{584, 153}";
type = Stem;
},
{
horizontal = 1;
place = "{789, 163}";
type = Stem;
},
{
place = "{51, 1105}";
type = Stem;
},
{
horizontal = 1;
place = "{595, 206}";
type = Stem;
},
{
horizontal = 1;
place = "{595, 88}";
type = Stem;
},
{
horizontal = 1;
place = "{595, 142}";
type = Stem;
}
);
layerId = "04043E30-D2B9-406E-ABC7-C215F4DFD662";
paths = (
{
closed = 1;
nodes = (
"803.85 952 LINE",
"562.85 952 LINE",
"455.11 789 LINE",
"613.11 789 LINE"
);
},
{
closed = 1;
nodes = (
"1156.23 801 LINE",
"925.23 801 LINE",
"869.43 683 LINE",
"831.53 683 LINE",
"777.96 737 LINE",
"274.96 737 LINE",
"147.21 642 LINE",
"50.77 95 LINE",
"145.02 0 LINE",
"648.02 0 LINE",
"775.77 95 LINE",
"863.93 595 LINE",
"966.93 595 LINE"
);
},
{
closed = 1;
nodes = (
"495.99 153 LINE",
"350.99 153 LINE",
"426.99 584 LINE",
"571.98 584 LINE"
);
}
);
width = 793;
}
);
note = uni1EDA;
unicode = 1EDA;
},
{
glyphname = uni1EE2;
layers = (
{
hints = (
{
horizontal = 1;
place = "{-209, 158}";
type = Stem;
},
{
horizontal = 1;
place = "{0, 153}";
type = Stem;
},
{
horizontal = 1;
place = "{595, 206}";
type = Stem;
},
{
place = "{51, 1105}";
type = Stem;
},
{
horizontal = 1;
place = "{595, 88}";
type = Stem;
},
{
horizontal = 1;
place = "{584, 153}";
type = Stem;
},
{
horizontal = 1;
place = "{595, 142}";
type = Stem;
}
);
layerId = "04043E30-D2B9-406E-ABC7-C215F4DFD662";
paths = (
{
closed = 1;
nodes = (
"1156.23 801 LINE",
"925.23 801 LINE",
"869.43 683 LINE",
"831.53 683 LINE",
"777.96 737 LINE",
"274.96 737 LINE",
"147.21 642 LINE",
"50.77 95 LINE",
"145.02 0 LINE",
"648.02 0 LINE",
"775.77 95 LINE",
"863.93 595 LINE",
"966.93 595 LINE"
);
},
{
closed = 1;
nodes = (
"495.99 153 LINE",
"350.99 153 LINE",
"426.99 584 LINE",
"571.98 584 LINE"
);
},
{
closed = 1;
nodes = (
"223.66 -209 LINE",
"496.66 -209 LINE",
"524.51 -51 LINE",
"251.51 -51 LINE"
);
}
);
width = 793;
}
);
note = uni1EE2;
unicode = 1EE2;
},
{
glyphname = uni1EDC;
layers = (
{
hints = (
{
horizontal = 1;
place = "{0, 153}";
type = Stem;
},
{
horizontal = 1;
place = "{584, 153}";
type = Stem;
},
{
horizontal = 1;
place = "{789, 163}";
type = Stem;
},
{
place = "{51, 1105}";
type = Stem;
},
{
horizontal = 1;
place = "{595, 206}";
type = Stem;
},
{
horizontal = 1;
place = "{595, 88}";
type = Stem;
},
{
horizontal = 1;
place = "{595, 142}";
type = Stem;
}
);
layerId = "04043E30-D2B9-406E-ABC7-C215F4DFD662";
paths = (
{
closed = 1;
nodes = (
"617.11 789 LINE",
"536.86 952 LINE",
"321.86 952 LINE",
"455.11 789 LINE"
);
},
{
closed = 1;
nodes = (
"1156.23 801 LINE",
"925.23 801 LINE",
"869.43 683 LINE",
"831.53 683 LINE",
"777.96 737 LINE",
"274.96 737 LINE",
"147.21 642 LINE",
"50.77 95 LINE",
"145.02 0 LINE",
"648.02 0 LINE",
"775.77 95 LINE",
"863.93 595 LINE",
"966.93 595 LINE"
);
},
{
closed = 1;
nodes = (
"495.99 153 LINE",
"350.99 153 LINE",
"426.99 584 LINE",
"571.98 584 LINE"
);
}
);
width = 793;
}
);
note = uni1EDC;
unicode = 1EDC;
},
{
glyphname = uni1EDE;
layers = (
{
hints = (
{
horizontal = 1;
place = "{0, 153}";
type = Stem;
},
{
horizontal = 1;
place = "{584, 153}";
type = Stem;
},
{
horizontal = 1;
place = "{789, 106}";
type = Stem;
},
{
horizontal = 1;
place = "{961, 66}";
type = Stem;
},
{
place = "{51, 1105}";
type = Stem;
},
{
horizontal = 1;
place = "{828, 67}";
type = Stem;
},
{
horizontal = 1;
place = "{985, 42}";
type = Stem;
},
{
horizontal = 1;
place = "{595, 206}";
type = Stem;
},
{
horizontal = 1;
place = "{920, 107}";
type = Stem;
},
{
horizontal = 1;
place = "{595, 88}";
type = Stem;
},
{
horizontal = 1;
place = "{595, 142}";
type = Stem;
}
);
layerId = "04043E30-D2B9-406E-ABC7-C215F4DFD662";
paths = (
{
closed = 1;
nodes = (
"550.44 961 LINE",
"582.44 961 LINE",
"570.8 895 LINE",
"506.8 895 LINE",
"462.7 866 LINE",
"449.12 789 LINE",
"617.12 789 LINE",
"624 828 LINE",
"666 828 LINE",
"720.69 866 LINE",
"741.67 985 LINE",
"700.09 1027 LINE",
"467.09 1027 LINE",
"404.68 985 LINE",
"393.22 920 LINE",
"543.22 920 LINE"
);
},
{
closed = 1;
nodes = (
"1156.23 801 LINE",
"925.23 801 LINE",
"869.43 683 LINE",
"831.53 683 LINE",
"777.96 737 LINE",
"274.96 737 LINE",
"147.21 642 LINE",
"50.77 95 LINE",
"145.02 0 LINE",
"648.02 0 LINE",
"775.77 95 LINE",
"863.93 595 LINE",
"966.93 595 LINE"
);
},
{
closed = 1;
nodes = (
"495.99 153 LINE",
"350.99 153 LINE",
"426.99 584 LINE",
"571.98 584 LINE"
);
}
);
width = 793;
}
);
note = uni1EDE;
unicode = 1EDE;
},
{
glyphname = uni1EE0;
layers = (
{
hints = (
{
horizontal = 1;
place = "{0, 153}";
type = Stem;
},
{
horizontal = 1;
place = "{584, 153}";
type = Stem;
},
{
horizontal = 1;
place = "{843, 114}";
type = Stem;
},
{
place = "{51, 1105}";
type = Stem;
},
{
horizontal = 1;
place = "{789, 161}";
type = Stem;
},
{
horizontal = 1;
place = "{789, 113}";
type = Stem;
},
{
horizontal = 1;
place = "{795, 162}";
type = Stem;
},
{
horizontal = 1;
place = "{595, 206}";
type = Stem;
},
{
horizontal = 1;
place = "{595, 88}";
type = Stem;
},
{
horizontal = 1;
place = "{595, 142}";
type = Stem;
}
);
layerId = "04043E30-D2B9-406E-ABC7-C215F4DFD662";
paths = (
{
closed = 1;
nodes = (
"434.81 827 LINE",
"453.63 843 LINE",
"470.63 843 LINE",
"511.11 789 LINE",
"708.11 789 LINE",
"804.8 861 LINE",
"820.49 950 LINE",
"668.49 950 LINE",
"662.67 917 LINE",
"644.03 902 LINE",
"626.03 902 LINE",
"586.74 957 LINE",
"388.74 957 LINE",
"292.69 883 LINE",
"277.18 795 LINE",
"429.18 795 LINE"
);
},
{
closed = 1;
nodes = (
"1156.23 801 LINE",
"925.23 801 LINE",
"869.43 683 LINE",
"831.53 683 LINE",
"777.96 737 LINE",
"274.96 737 LINE",
"147.21 642 LINE",
"50.77 95 LINE",
"145.02 0 LINE",
"648.02 0 LINE",
"775.77 95 LINE",
"863.93 595 LINE",
"966.93 595 LINE"
);
},
{
closed = 1;
nodes = (
"495.99 153 LINE",
"350.99 153 LINE",
"426.99 584 LINE",
"571.98 584 LINE"
);
}
);
width = 793;
}
);
note = uni1EE0;
unicode = 1EE0;
},
{
glyphname = Ohungarumlaut;
layers = (
{
hints = (
{
horizontal = 1;
place = "{0, 153}";
type = Stem;
},
{
horizontal = 1;
place = "{584, 153}";
type = Stem;
},
{
horizontal = 1;
place = "{789, 165}";
type = Stem;
},
{
place = "{51, 906}";
type = Stem;
}
);
layerId = "04043E30-D2B9-406E-ABC7-C215F4DFD662";
paths = (
{
closed = 1;
nodes = (
"318.11 789 LINE",
"496.11 789 LINE",
"689.21 954 LINE",
"444.21 954 LINE"
);
},
{
closed = 1;
nodes = (
"586.1 789 LINE",
"764.1 789 LINE",
"957.2 954 LINE",
"712.2 954 LINE"
);
},
{
closed = 1;
nodes = (
"144.99 0 LINE",
"647.99 0 LINE",
"775.74 95 LINE",
"872.18 642 LINE",
"777.93 737 LINE",
"274.93 737 LINE",
"147.18 642 LINE",
"50.74 95 LINE"
);
},
{
closed = 1;
nodes = (
"350.96 153 LINE",
"426.96 584 LINE",
"571.95 584 LINE",
"495.96 153 LINE"
);
}
);
width = 793;
}
);
note = Ohungarumlaut;
rightKerningGroup = O;
unicode = 0150;
},
{
glyphname = uni020E;
layers = (
{
hints = (
{
horizontal = 1;
place = "{0, 153}";
type = Stem;
},
{
horizontal = 1;
place = "{584, 153}";
type = Stem;
},
{
horizontal = 1;
place = "{789, 163}";
type = Stem;
},
{
place = "{51, 821}";
type = Stem;
},
{
horizontal = 1;
place = "{841, 111}";
type = Stem;
}
);
layerId = "04043E30-D2B9-406E-ABC7-C215F4DFD662";
paths = (
{
closed = 1;
nodes = (
"286.11 789 LINE",
"482.11 789 LINE",
"491.28 841 LINE",
"593.28 841 LINE",
"584.11 789 LINE",
"780.11 789 LINE",
"793.34 864 LINE",
"705.86 952 LINE",
"417.86 952 LINE",
"299.35 864 LINE"
);
},
{
closed = 1;
nodes = (
"145.01 0 LINE",
"648.01 0 LINE",
"775.76 95 LINE",
"872.2 642 LINE",
"777.95 737 LINE",
"274.95 737 LINE",
"147.2 642 LINE",
"50.76 95 LINE"
);
},
{
closed = 1;
nodes = (
"350.98 153 LINE",
"426.98 584 LINE",
"571.97 584 LINE",
"495.98 153 LINE"
);
}
);
width = 793;
}
);
note = uni020E;
unicode = 020E;
},
{
glyphname = Omacron;
layers = (
{
hints = (
{
horizontal = 1;
place = "{0, 153}";
type = Stem;
},
{
horizontal = 1;
place = "{584, 153}";
type = Stem;
},
{
horizontal = 1;
place = "{789, 149}";
type = Stem;
},
{
place = "{51, 821}";
type = Stem;
}
);
layerId = "04043E30-D2B9-406E-ABC7-C215F4DFD662";
paths = (
{
closed = 1;
nodes = (
"255.11 789 LINE",
"811.11 789 LINE",
"837.39 938 LINE",
"281.38 938 LINE"
);
},
{
closed = 1;
nodes = (
"145 0 LINE",
"648 0 LINE",
"775.75 95 LINE",
"872.19 642 LINE",
"777.94 737 LINE",
"274.94 737 LINE",
"147.19 642 LINE",
"50.75 95 LINE"
);
},
{
closed = 1;
nodes = (
"350.97 153 LINE",
"426.97 584 LINE",
"571.96 584 LINE",
"495.97 153 LINE"
);
}
);
width = 793;
}
);
note = Omacron;
rightKerningGroup = O;
unicode = 014C;
},
{
glyphname = uni01EA;
layers = (
{
hints = (
{
horizontal = 1;
place = "{-191, 127}";
type = Stem;
},
{
horizontal = 1;
place = "{0, 153}";
type = Stem;
},
{
horizontal = 1;
place = "{584, 153}";
type = Stem;
},
{
place = "{51, 821}";
type = Stem;
}
);
layerId = "04043E30-D2B9-406E-ABC7-C215F4DFD662";
paths = (
{
closed = 1;
nodes = (
"531.3 -191 LINE",
"628.3 -191 LINE",
"650.69 -64 LINE",
"622.69 -64 LINE",
"609.16 -50 LINE",
"613.39 -26 LINE",
"775.74 95 LINE",
"872.18 642 LINE",
"777.93 737 LINE",
"274.93 737 LINE",
"147.18 642 LINE",
"50.74 95 LINE",
"144.99 0 LINE",
"526.97 0 LINE",
"476.15 -33 LINE",
"460.46 -122 LINE"
);
},
{
closed = 1;
nodes = (
"350.96 153 LINE",
"426.96 584 LINE",
"571.95 584 LINE",
"495.96 153 LINE"
);
}
);
width = 793;
}
);
note = uni01EA;
unicode = 01EA;
},
{
glyphname = Oslash;
layers = (
{
hints = (
{
horizontal = 1;
place = "{0, 153}";
type = Stem;
},
{
horizontal = 1;
place = "{584, 153}";
type = Stem;
},
{
place = "{51, 821}";
type = Stem;
}
);
layerId = "04043E30-D2B9-406E-ABC7-C215F4DFD662";
paths = (
{
closed = 1;
nodes = (
"50.75 95 LINE",
"145 0 LINE",
"648 0 LINE",
"775.75 95 LINE",
"872.19 642 LINE",
"777.94 737 LINE",
"274.94 737 LINE",
"147.19 642 LINE"
);
},
{
closed = 1;
nodes = (
"387.89 362.43 LINE",
"426.96 584 LINE",
"565.41 584 LINE"
);
},
{
closed = 1;
nodes = (
"357.51 153 LINE",
"535.02 374.56 LINE",
"495.95 153 LINE"
);
}
);
width = 793;
}
);
note = Oslash;
rightKerningGroup = O;
unicode = 00D8;
},
{
glyphname = Oslashacute;
layers = (
{
hints = (
{
horizontal = 1;
place = "{0, 153}";
type = Stem;
},
{
horizontal = 1;
place = "{584, 153}";
type = Stem;
},
{
horizontal = 1;
place = "{789, 163}";
type = Stem;
},
{
place = "{51, 821}";
type = Stem;
}
);
layerId = "04043E30-D2B9-406E-ABC7-C215F4DFD662";
paths = (
{
closed = 1;
nodes = (
"455.11 789 LINE",
"613.11 789 LINE",
"803.85 952 LINE",
"562.85 952 LINE"
);
},
{
closed = 1;
nodes = (
"145 0 LINE",
"648 0 LINE",
"775.75 95 LINE",
"872.19 642 LINE",
"777.94 737 LINE",
"274.94 737 LINE",
"147.19 642 LINE",
"50.75 95 LINE"
);
},
{
closed = 1;
nodes = (
"387.9 362.42 LINE",
"426.97 583.99 LINE",
"565.42 583.99 LINE"
);
},
{
closed = 1;
nodes = (
"357.52 152.99 LINE",
"535.03 374.55 LINE",
"495.96 152.99 LINE"
);
}
);
width = 793;
}
);
note = Oslashacute;
unicode = 01FE;
},
{
glyphname = Otilde;
layers = (
{
hints = (
{
horizontal = 1;
place = "{0, 153}";
type = Stem;
},
{
horizontal = 1;
place = "{584, 153}";
type = Stem;
},
{
horizontal = 1;
place = "{789, 161}";
type = Stem;
},
{
place = "{51, 821}";
type = Stem;
},
{
horizontal = 1;
place = "{789, 113}";
type = Stem;
},
{
horizontal = 1;
place = "{795, 162}";
type = Stem;
},
{
horizontal = 1;
place = "{843, 114}";
type = Stem;
}
);
layerId = "04043E30-D2B9-406E-ABC7-C215F4DFD662";
paths = (
{
closed = 1;
nodes = (
"511.11 789 LINE",
"708.11 789 LINE",
"804.8 861 LINE",
"820.49 950 LINE",
"668.49 950 LINE",
"662.67 917 LINE",
"644.03 902 LINE",
"626.03 902 LINE",
"586.74 957 LINE",
"388.74 957 LINE",
"292.69 883 LINE",
"277.18 795 LINE",
"429.18 795 LINE",
"434.81 827 LINE",
"453.63 843 LINE",
"470.63 843 LINE"
);
},
{
closed = 1;
nodes = (
"145 0 LINE",
"648 0 LINE",
"775.75 95 LINE",
"872.19 642 LINE",
"777.94 737 LINE",
"274.94 737 LINE",
"147.19 642 LINE",
"50.75 95 LINE"
);
},
{
closed = 1;
nodes = (
"350.97 153 LINE",
"426.97 584 LINE",
"571.96 584 LINE",
"495.97 153 LINE"
);
}
);
width = 793;
}
);
note = Otilde;
rightKerningGroup = O;
unicode = 00D5;
},
{
glyphname = uni022C;
layers = (
{
hints = (
{
horizontal = 1;
place = "{0, 153}";
type = Stem;
},
{
horizontal = 1;
place = "{584, 153}";
type = Stem;
},
{
horizontal = 1;
place = "{789, 161}";
type = Stem;
},
{
horizontal = 1;
place = "{989.35, 149}";
type = Stem;
},
{
place = "{51, 824}";
type = Stem;
},
{
horizontal = 1;
place = "{789, 113}";
type = Stem;
},
{
horizontal = 1;
place = "{795, 162}";
type = Stem;
},
{
horizontal = 1;
place = "{843, 114}";
type = Stem;
}
);
layerId = "04043E30-D2B9-406E-ABC7-C215F4DFD662";
paths = (
{
closed = 1;
nodes = (
"292.87 989.34 LINE",
"848.87 989.34 LINE",
"875.13 1138.34 LINE",
"319.13 1138.34 LINE"
);
},
{
closed = 1;
nodes = (
"511.09 789 LINE",
"708.09 789 LINE",
"804.78 861 LINE",
"820.47 950 LINE",
"668.47 950 LINE",
"662.65 917 LINE",
"644.01 902 LINE",
"626.01 902 LINE",
"586.72 957 LINE",
"388.72 957 LINE",
"292.67 883 LINE",
"277.16 795 LINE",
"429.16 795 LINE",
"434.79 827 LINE",
"453.61 843 LINE",
"470.61 843 LINE"
);
},
{
closed = 1;
nodes = (
"144.98 0 LINE",
"647.98 0 LINE",
"775.73 95 LINE",
"872.17 642 LINE",
"777.92 737 LINE",
"274.92 737 LINE",
"147.17 642 LINE",
"50.73 95 LINE"
);
},
{
closed = 1;
nodes = (
"350.95 153 LINE",
"426.95 584 LINE",
"571.94 584 LINE",
"495.95 153 LINE"
);
}
);
width = 793;
}
);
note = uni022C;
unicode = 022C;
},
{
glyphname = OE;
layers = (
{
hints = (
{
horizontal = 1;
place = "{0, 153}";
type = Stem;
},
{
horizontal = 1;
place = "{288, 159}";
type = Stem;
},
{
horizontal = 1;
place = "{584, 153}";
type = Stem;
},
{
place = "{51, 1196}";
type = Stem;
},
{
horizontal = 1;
place = "{0, 208}";
type = Stem;
},
{
horizontal = 1;
place = "{529, 208}";
type = Stem;
}
);
layerId = "04043E30-D2B9-406E-ABC7-C215F4DFD662";
paths = (
{
closed = 1;
nodes = (
"145 0 LINE",
"1117 0 LINE",
"1153.67 208 LINE",
"795.67 208 LINE",
"809.76 288 LINE",
"1125.76 288 LINE",
"1153.79 447 LINE",
"837.79 447 LINE",
"852.25 529 LINE",
"1210.25 529 LINE",
"1246.92 737 LINE",
"274.92 737 LINE",
"147.17 642 LINE",
"50.73 95 LINE"
);
},
{
closed = 1;
nodes = (
"350.95 153 LINE",
"426.95 584 LINE",
"571.94 584 LINE",
"495.95 153 LINE"
);
}
);
width = 1156;
}
);
note = OE;
rightKerningGroup = AE;
unicode = 0152;
},
{
glyphname = P;
layers = (
{
hints = (
{
horizontal = 1;
place = "{205, 152}";
type = Stem;
},
{
horizontal = 1;
place = "{584, 153}";
type = Stem;
},
{
place = "{45, 823}";
type = Stem;
}
);
layerId = "04043E30-D2B9-406E-ABC7-C215F4DFD662";
paths = (
{
closed = 1;
nodes = (
"45 0 LINE",
"334.89 0 LINE",
"371.03 205 LINE",
"679.63 205 LINE",
"807.2 299 LINE",
"867.68 642 LINE",
"773.43 737 LINE",
"174.93 737 LINE"
);
},
{
closed = 1;
nodes = (
"397.82 357 LINE",
"437.85 584 LINE",
"578.43 584 LINE",
"538.42 357 LINE"
);
}
);
width = 767;
}
);
leftKerningGroup = B;
note = P;
rightKerningGroup = P;
unicode = 0050;
},
{
glyphname = Thorn;
layers = (
{
hints = (
{
horizontal = 1;
place = "{113, 131}";
type = Stem;
},
{
horizontal = 1;
place = "{516, 131}";
type = Stem;
},
{
place = "{45, 807}";
type = Stem;
}
);
layerId = "04043E30-D2B9-406E-ABC7-C215F4DFD662";
paths = (
{
closed = 1;
nodes = (
"45 0 LINE",
"334.89 0 LINE",
"354.81 113 LINE",
"663.41 113 LINE",
"791.16 208 LINE",
"851.8 552 LINE",
"757.55 647 LINE",
"448.95 647 LINE",
"464.82 737 LINE",
"174.93 737 LINE"
);
},
{
closed = 1;
nodes = (
"377.89 244 LINE",
"425.85 516 LINE",
"566.45 516 LINE",
"518.49 244 LINE"
);
}
);
width = 767;
}
);
note = Thorn;
rightKerningGroup = Thorn;
unicode = 00DE;
},
{
glyphname = Q;
layers = (
{
hints = (
{
horizontal = 1;
place = "{-106, 259}";
type = Stem;
},
{
horizontal = 1;
place = "{584, 153}";
type = Stem;
},
{
place = "{51, 821}";
type = Stem;
},
{
horizontal = 1;
place = "{0, 153}";
type = Stem;
}
);
layerId = "04043E30-D2B9-406E-ABC7-C215F4DFD662";
paths = (
{
closed = 1;
nodes = (
"266.3 -106 LINE",
"489.3 -106 LINE",
"507.99 0 LINE",
"647.99 0 LINE",
"775.74 95 LINE",
"872.18 642 LINE",
"777.93 737 LINE",
"274.93 737 LINE",
"147.18 642 LINE",
"50.74 95 LINE",
"144.99 0 LINE",
"284.99 0 LINE"
);
},
{
closed = 1;
nodes = (
"350.96 153 LINE",
"426.96 584 LINE",
"571.95 584 LINE",
"495.96 153 LINE"
);
}
);
width = 793;
}
);
note = Q;
rightKerningGroup = O;
unicode = 0051;
},
{
glyphname = R;
layers = (
{
hints = (
{
horizontal = 1;
place = "{228, 153}";
type = Stem;
},
{
horizontal = 1;
place = "{584, 153}";
type = Stem;
},
{
place = "{45, 826}";
type = Stem;
}
);
layerId = "04043E30-D2B9-406E-ABC7-C215F4DFD662";
paths = (
{
closed = 1;
nodes = (
"45 0 LINE",
"334.89 0 LINE",
"375.08 228 LINE",
"470.82 228 LINE",
"505.48 0 LINE",
"790.48 0 LINE",
"740.94 267.97 LINE",
"814.26 321.99 LINE",
"870.68 641.99 LINE",
"776.43 736.99 LINE",
"174.93 736.99 LINE"
);
},
{
closed = 1;
nodes = (
"402.05 380.99 LINE",
"437.85 583.99 LINE",
"581.43 583.99 LINE",
"545.65 380.99 LINE"
);
}
);
width = 797;
}
);
leftKerningGroup = B;
note = R;
rightKerningGroup = R;
unicode = 0052;
},
{
glyphname = Racute;
layers = (
{
hints = (
{
horizontal = 1;
place = "{228, 153}";
type = Stem;
},
{
horizontal = 1;
place = "{584, 153}";
type = Stem;
},
{
horizontal = 1;
place = "{789, 163}";
type = Stem;
},
{
place = "{45, 826}";
type = Stem;
}
);
layerId = "04043E30-D2B9-406E-ABC7-C215F4DFD662";
paths = (
{
closed = 1;
nodes = (
"447.61 789 LINE",
"605.61 789 LINE",
"796.35 952 LINE",
"555.35 952 LINE"
);
},
{
closed = 1;
nodes = (
"45 0 LINE",
"334.89 0 LINE",
"375.08 228 LINE",
"470.82 228 LINE",
"505.48 0 LINE",
"790.48 0 LINE",
"740.94 267.97 LINE",
"814.26 321.99 LINE",
"870.68 641.99 LINE",
"776.43 736.99 LINE",
"174.93 736.99 LINE"
);
},
{
closed = 1;
nodes = (
"402.05 380.99 LINE",
"437.85 583.99 LINE",
"581.43 583.99 LINE",
"545.65 380.99 LINE"
);
}
);
width = 797;
}
);
note = Racute;
rightKerningGroup = R;
unicode = 0154;
},
{
glyphname = Rcaron;
layers = (
{
hints = (
{
horizontal = 1;
place = "{228, 153}";
type = Stem;
},
{
horizontal = 1;
place = "{584, 153}";
type = Stem;
},
{
horizontal = 1;
place = "{789, 163}";
type = Stem;
},
{
place = "{45, 826}";
type = Stem;
}
);
layerId = "04043E30-D2B9-406E-ABC7-C215F4DFD662";
paths = (
{
closed = 1;
nodes = (
"385.61 789 LINE",
"670.61 789 LINE",
"822.35 952 LINE",
"630.35 952 LINE",
"540.95 876 LINE",
"478.36 952 LINE",
"291.36 952 LINE"
);
},
{
closed = 1;
nodes = (
"45.01 0 LINE",
"334.9 0 LINE",
"375.09 228 LINE",
"470.83 228 LINE",
"505.49 0 LINE",
"790.49 0 LINE",
"740.95 267.97 LINE",
"814.27 321.99 LINE",
"870.69 641.99 LINE",
"776.44 736.99 LINE",
"174.94 736.99 LINE"
);
},
{
closed = 1;
nodes = (
"402.06 380.99 LINE",
"437.86 583.99 LINE",
"581.44 583.99 LINE",
"545.66 380.99 LINE"
);
}
);
width = 797;
}
);
note = Rcaron;
rightKerningGroup = R;
unicode = 0158;
},
{
glyphname = uni0156;
layers = (
{
hints = (
{
horizontal = 1;
place = "{-234, 182}";
type = Stem;
},
{
horizontal = 1;
place = "{228, 153}";
type = Stem;
},
{
horizontal = 1;
place = "{584, 153}";
type = Stem;
},
{
place = "{45, 826}";
type = Stem;
}
);
layerId = "04043E30-D2B9-406E-ABC7-C215F4DFD662";
paths = (
{
closed = 1;
nodes = (
"45 0 LINE",
"334.89 0 LINE",
"375.08 228 LINE",
"470.82 228 LINE",
"505.48 0 LINE",
"790.48 0 LINE",
"740.94 267.97 LINE",
"814.26 321.99 LINE",
"870.68 641.99 LINE",
"776.43 736.99 LINE",
"174.93 736.99 LINE"
);
},
{
closed = 1;
nodes = (
"402.05 380.99 LINE",
"437.85 583.99 LINE",
"581.43 583.99 LINE",
"545.65 380.99 LINE"
);
},
{
closed = 1;
nodes = (
"203.21 -234.01 LINE",
"353.21 -234.01 LINE",
"518.29 -52.01 LINE",
"286.29 -52.01 LINE"
);
}
);
width = 797;
}
);
note = uni0156;
rightKerningGroup = R;
unicode = 0156;
},
{
glyphname = uni0210;
layers = (
{
hints = (
{
horizontal = 1;
place = "{228, 153}";
type = Stem;
},
{
horizontal = 1;
place = "{584, 153}";
type = Stem;
},
{
horizontal = 1;
place = "{789, 163}";
type = Stem;
},
{
place = "{45, 826}";
type = Stem;
}
);
layerId = "04043E30-D2B9-406E-ABC7-C215F4DFD662";
paths = (
{
closed = 1;
nodes = (
"292.61 789 LINE",
"454.61 789 LINE",
"374.36 952 LINE",
"159.36 952 LINE"
);
},
{
closed = 1;
nodes = (
"579.61 789 LINE",
"741.61 789 LINE",
"661.36 952 LINE",
"446.36 952 LINE"
);
},
{
closed = 1;
nodes = (
"45.01 0 LINE",
"334.9 0 LINE",
"375.09 228 LINE",
"470.83 228 LINE",
"505.49 0 LINE",
"790.49 0 LINE",
"740.95 267.97 LINE",
"814.27 321.99 LINE",
"870.69 641.99 LINE",
"776.44 736.99 LINE",
"174.94 736.99 LINE"
);
},
{
closed = 1;
nodes = (
"402.06 380.99 LINE",
"437.86 583.99 LINE",
"581.44 583.99 LINE",
"545.66 380.99 LINE"
);
}
);
width = 797;
}
);
note = uni0210;
unicode = 0210;
},
{
glyphname = uni0212;
layers = (
{
hints = (
{
horizontal = 1;
place = "{228, 153}";
type = Stem;
},
{
horizontal = 1;
place = "{584, 153}";
type = Stem;
},
{
horizontal = 1;
place = "{789, 163}";
type = Stem;
},
{
place = "{45, 826}";
type = Stem;
},
{
horizontal = 1;
place = "{841, 111}";
type = Stem;
}
);
layerId = "04043E30-D2B9-406E-ABC7-C215F4DFD662";
paths = (
{
closed = 1;
nodes = (
"278.61 789 LINE",
"474.61 789 LINE",
"483.78 841 LINE",
"585.78 841 LINE",
"576.61 789 LINE",
"772.61 789 LINE",
"785.84 864 LINE",
"698.36 952 LINE",
"410.36 952 LINE",
"291.85 864 LINE"
);
},
{
closed = 1;
nodes = (
"45.01 0 LINE",
"334.9 0 LINE",
"375.09 228 LINE",
"470.83 228 LINE",
"505.49 0 LINE",
"790.49 0 LINE",
"740.95 267.97 LINE",
"814.27 321.99 LINE",
"870.69 641.99 LINE",
"776.44 736.99 LINE",
"174.94 736.99 LINE"
);
},
{
closed = 1;
nodes = (
"402.06 380.99 LINE",
"437.86 583.99 LINE",
"581.44 583.99 LINE",
"545.66 380.99 LINE"
);
}
);
width = 797;
}
);
note = uni0212;
unicode = 0212;
},
{
glyphname = S;
layers = (
{
hints = (
{
horizontal = 1;
place = "{0, 193}";
type = Stem;
},
{
horizontal = 1;
place = "{281.5, 183}";
type = Stem;
},
{
horizontal = 1;
place = "{546, 191}";
type = Stem;
},
{
place = "{59, 743}";
type = Stem;
}
);
layerId = "04043E30-D2B9-406E-ABC7-C215F4DFD662";
paths = (
{
closed = 1;
nodes = (
"59 0 LINE",
"597 0 LINE",
"724.75 95 LINE",
"773.23 370 LINE",
"678.81 464 LINE",
"390.99 465 LINE",
"405.27 546 LINE",
"768.27 546 LINE",
"801.94 737 LINE",
"268.94 737 LINE",
"141.19 642 LINE",
"94.29 376 LINE",
"188.71 282 LINE",
"475.53 281 LINE",
"460.02 193 LINE",
"93.02 193 LINE"
);
}
);
width = 736;
}
);
leftKerningGroup = S;
note = S;
rightKerningGroup = S;
unicode = 0053;
},
{
glyphname = Sacute;
layers = (
{
hints = (
{
horizontal = 1;
place = "{0, 193}";
type = Stem;
},
{
horizontal = 1;
place = "{281.5, 183}";
type = Stem;
},
{
horizontal = 1;
place = "{546, 191}";
type = Stem;
},
{
horizontal = 1;
place = "{789, 163}";
type = Stem;
},
{
place = "{59, 743}";
type = Stem;
}
);
layerId = "04043E30-D2B9-406E-ABC7-C215F4DFD662";
paths = (
{
closed = 1;
nodes = (
"427.11 789 LINE",
"585.11 789 LINE",
"775.85 952 LINE",
"534.85 952 LINE"
);
},
{
closed = 1;
nodes = (
"59 0 LINE",
"597 0 LINE",
"724.75 95 LINE",
"773.23 370 LINE",
"678.81 464 LINE",
"390.99 465 LINE",
"405.27 546 LINE",
"768.27 546 LINE",
"801.94 737 LINE",
"268.94 737 LINE",
"141.19 642 LINE",
"94.29 376 LINE",
"188.71 282 LINE",
"475.53 281 LINE",
"460.02 193 LINE",
"93.02 193 LINE"
);
}
);
width = 736;
}
);
leftKerningGroup = S;
note = Sacute;
rightKerningGroup = S;
unicode = 015A;
},
{
glyphname = Scaron;
layers = (
{
hints = (
{
horizontal = 1;
place = "{0, 193}";
type = Stem;
},
{
horizontal = 1;
place = "{281.5, 183}";
type = Stem;
},
{
horizontal = 1;
place = "{546, 191}";
type = Stem;
},
{
horizontal = 1;
place = "{789, 163}";
type = Stem;
},
{
place = "{59, 743}";
type = Stem;
}
);
layerId = "04043E30-D2B9-406E-ABC7-C215F4DFD662";
paths = (
{
closed = 1;
nodes = (
"365.11 789 LINE",
"650.11 789 LINE",
"801.85 952 LINE",
"609.85 952 LINE",
"520.45 876 LINE",
"457.86 952 LINE",
"270.86 952 LINE"
);
},
{
closed = 1;
nodes = (
"59.01 0 LINE",
"597.01 0 LINE",
"724.76 95 LINE",
"773.24 370 LINE",
"678.82 464 LINE",
"391 465 LINE",
"405.28 546 LINE",
"768.28 546 LINE",
"801.95 737 LINE",
"268.95 737 LINE",
"141.2 642 LINE",
"94.3 376 LINE",
"188.72 282 LINE",
"475.54 281 LINE",
"460.03 193 LINE",
"93.03 193 LINE"
);
}
);
width = 736;
}
);
leftKerningGroup = S;
note = Scaron;
rightKerningGroup = S;
unicode = 0160;
},
{
glyphname = Scedilla;
layers = (
{
hints = (
{
horizontal = 1;
place = "{0, 193}";
type = Stem;
},
{
horizontal = 1;
place = "{281.5, 183}";
type = Stem;
},
{
horizontal = 1;
place = "{546, 191}";
type = Stem;
},
{
place = "{59, 743}";
type = Stem;
}
);
layerId = "04043E30-D2B9-406E-ABC7-C215F4DFD662";
paths = (
{
closed = 1;
nodes = (
"59 0 LINE",
"260 0 LINE",
"217.96 -125 LINE",
"391.96 -125 LINE",
"477 0 LINE",
"597 0 LINE",
"724.75 95 LINE",
"773.23 370 LINE",
"678.81 464 LINE",
"390.99 465 LINE",
"405.27 546 LINE",
"768.27 546 LINE",
"801.94 737 LINE",
"268.94 737 LINE",
"141.19 642 LINE",
"94.29 376 LINE",
"188.71 282 LINE",
"475.53 281 LINE",
"460.02 193 LINE",
"93.02 193 LINE"
);
}
);
width = 736;
}
);
leftKerningGroup = S;
note = Scedilla;
rightKerningGroup = S;
unicode = 015E;
},
{
glyphname = Scircumflex;
layers = (
{
hints = (
{
horizontal = 1;
place = "{0, 193}";
type = Stem;
},
{
horizontal = 1;
place = "{281.5, 183}";
type = Stem;
},
{
horizontal = 1;
place = "{546, 191}";
type = Stem;
},
{
horizontal = 1;
place = "{789, 163}";
type = Stem;
},
{
place = "{59, 743}";
type = Stem;
},
{
horizontal = 1;
place = "{865, 87}";
type = Stem;
}
);
layerId = "04043E30-D2B9-406E-ABC7-C215F4DFD662";
paths = (
{
closed = 1;
nodes = (
"237.11 789 LINE",
"429.11 789 LINE",
"518.51 865 LINE",
"581.1 789 LINE",
"768.1 789 LINE",
"673.85 952 LINE",
"388.85 952 LINE"
);
},
{
closed = 1;
nodes = (
"59 0 LINE",
"597 0 LINE",
"724.75 95 LINE",
"773.23 370 LINE",
"678.81 464 LINE",
"390.99 465 LINE",
"405.27 546 LINE",
"768.27 546 LINE",
"801.94 737 LINE",
"268.94 737 LINE",
"141.19 642 LINE",
"94.29 376 LINE",
"188.71 282 LINE",
"475.53 281 LINE",
"460.02 193 LINE",
"93.02 193 LINE"
);
}
);
width = 736;
}
);
leftKerningGroup = S;
note = Scircumflex;
rightKerningGroup = S;
unicode = 015C;
},
{
glyphname = uni0218;
layers = (
{
hints = (
{
horizontal = 1;
place = "{-234, 182}";
type = Stem;
},
{
horizontal = 1;
place = "{0, 193}";
type = Stem;
},
{
horizontal = 1;
place = "{281.5, 183}";
type = Stem;
},
{
horizontal = 1;
place = "{546, 191}";
type = Stem;
},
{
place = "{59, 743}";
type = Stem;
}
);
layerId = "04043E30-D2B9-406E-ABC7-C215F4DFD662";
paths = (
{
closed = 1;
nodes = (
"59 0 LINE",
"597 0 LINE",
"724.75 95 LINE",
"773.23 370 LINE",
"678.81 464 LINE",
"390.99 465 LINE",
"405.27 546 LINE",
"768.27 546 LINE",
"801.94 737 LINE",
"268.94 737 LINE",
"141.19 642 LINE",
"94.29 376 LINE",
"188.71 282 LINE",
"475.53 281 LINE",
"460.02 193 LINE",
"93.02 193 LINE"
);
},
{
closed = 1;
nodes = (
"160.73 -234 LINE",
"310.73 -234 LINE",
"475.81 -52 LINE",
"243.81 -52 LINE"
);
}
);
width = 736;
}
);
leftKerningGroup = S;
note = uni0218;
rightKerningGroup = S;
unicode = 0218;
},
{
glyphname = uni1E9E;
layers = (
{
hints = (
{
horizontal = 1;
place = "{0, 131}";
type = Stem;
},
{
horizontal = 1;
place = "{606, 131}";
type = Stem;
},
{
place = "{45, 777}";
type = Stem;
}
);
layerId = "04043E30-D2B9-406E-ABC7-C215F4DFD662";
paths = (
{
closed = 1;
nodes = (
"45 0 LINE",
"348 0 LINE",
"454.84 606 LINE",
"553.84 606 LINE",
"545.56 559 LINE",
"461.94 442 LINE",
"438.85 311 LINE",
"513.85 311 LINE",
"483.11 131 LINE",
"407.11 131 LINE",
"384.02 0 LINE",
"660.02 0 LINE",
"787.77 95 LINE",
"821.97 289 LINE",
"709.51 401.45 LINE",
"802.11 527.99 LINE",
"822.21 641.99 LINE",
"726.96 736.99 LINE",
"285.96 736.99 LINE",
"158.21 641.99 LINE"
);
}
);
width = 806;
}
);
note = uni1E9E;
unicode = 1E9E;
},
{
glyphname = uni018F;
layers = (
{
hints = (
{
horizontal = 1;
place = "{0, 153}";
type = Stem;
},
{
horizontal = 1;
place = "{289, 159}";
type = Stem;
},
{
horizontal = 1;
place = "{540, 197}";
type = Stem;
},
{
place = "{51, 821}";
type = Stem;
}
);
layerId = "04043E30-D2B9-406E-ABC7-C215F4DFD662";
paths = (
{
closed = 1;
nodes = (
"145 0 LINE",
"648 0 LINE",
"775.75 95 LINE",
"872.19 642 LINE",
"777.94 737 LINE",
"171.94 737 LINE",
"137.21 540 LINE",
"564.21 540 LINE",
"547.98 448 LINE",
"112.98 448 LINE",
"50.75 95 LINE"
);
},
{
closed = 1;
nodes = (
"350.97 153 LINE",
"374.95 289 LINE",
"519.95 289 LINE",
"495.97 153 LINE"
);
}
);
width = 793;
}
);
note = uni018F;
unicode = 018F;
},
{
glyphname = T;
layers = (
{
hints = (
{
horizontal = 1;
place = "{540, 197}";
type = Stem;
},
{
place = "{107, 720}";
type = Stem;
}
);
layerId = "04043E30-D2B9-406E-ABC7-C215F4DFD662";
paths = (
{
closed = 1;
nodes = (
"209.04 0 LINE",
"499.94 0 LINE",
"595.15 540 LINE",
"792.2 540 LINE",
"826.93 737 LINE",
"141.93 737 LINE",
"107.2 540 LINE",
"304.25 540 LINE"
);
}
);
width = 709;
}
);
leftKerningGroup = T;
note = T;
rightKerningGroup = T;
unicode = 0054;
},
{
glyphname = Tbar;
layers = (
{
hints = (
{
horizontal = 1;
place = "{234, 169}";
type = Stem;
},
{
horizontal = 1;
place = "{540, 197}";
type = Stem;
},
{
place = "{104, 723}";
type = Stem;
}
);
layerId = "04043E30-D2B9-406E-ABC7-C215F4DFD662";
paths = (
{
closed = 1;
nodes = (
"209.28 0 LINE",
"500.17 0 LINE",
"541.43 234 LINE",
"687.98 234 LINE",
"717.77 403 LINE",
"571.23 403 LINE",
"595.38 540 LINE",
"792.43 540 LINE",
"827.16 737 LINE",
"142.16 737 LINE",
"107.43 540 LINE",
"304.48 540 LINE",
"280.32 403 LINE",
"133.77 403 LINE",
"103.98 234 LINE",
"250.52 234 LINE"
);
}
);
width = 709;
}
);
leftKerningGroup = T;
note = Tbar;
rightKerningGroup = T;
unicode = 0166;
},
{
glyphname = Tcaron;
layers = (
{
hints = (
{
horizontal = 1;
place = "{540, 197}";
type = Stem;
},
{
horizontal = 1;
place = "{789, 163}";
type = Stem;
},
{
place = "{107, 720}";
type = Stem;
}
);
layerId = "04043E30-D2B9-406E-ABC7-C215F4DFD662";
paths = (
{
closed = 1;
nodes = (
"353.61 789 LINE",
"638.61 789 LINE",
"790.35 952 LINE",
"598.35 952 LINE",
"508.95 876 LINE",
"446.36 952 LINE",
"259.36 952 LINE"
);
},
{
closed = 1;
nodes = (
"209.05 0 LINE",
"499.95 0 LINE",
"595.16 540 LINE",
"792.21 540 LINE",
"826.94 737 LINE",
"141.94 737 LINE",
"107.21 540 LINE",
"304.26 540 LINE"
);
}
);
width = 709;
}
);
leftKerningGroup = T;
note = Tcaron;
rightKerningGroup = T;
unicode = 0164;
},
{
glyphname = uni0162;
layers = (
{
hints = (
{
horizontal = 1;
place = "{540, 197}";
type = Stem;
},
{
place = "{107, 720}";
type = Stem;
}
);
layerId = "04043E30-D2B9-406E-ABC7-C215F4DFD662";
paths = (
{
closed = 1;
nodes = (
"240.88 -125 LINE",
"414.88 -125 LINE",
"499.92 0 LINE",
"595.15 540 LINE",
"792.2 540 LINE",
"826.93 737 LINE",
"141.93 737 LINE",
"107.2 540 LINE",
"304.25 540 LINE",
"209.03 0 LINE",
"282.91 0 LINE"
);
}
);
width = 709;
}
);
leftKerningGroup = T;
note = uni0162;
rightKerningGroup = T;
unicode = 0162;
},
{
glyphname = uni021A;
layers = (
{
hints = (
{
horizontal = 1;
place = "{-234, 182}";
type = Stem;
},
{
horizontal = 1;
place = "{540, 197}";
type = Stem;
},
{
place = "{107, 720}";
type = Stem;
}
);
layerId = "04043E30-D2B9-406E-ABC7-C215F4DFD662";
paths = (
{
closed = 1;
nodes = (
"209.04 0 LINE",
"499.94 0 LINE",
"595.15 540 LINE",
"792.2 540 LINE",
"826.93 737 LINE",
"141.93 737 LINE",
"107.2 540 LINE",
"304.25 540 LINE"
);
},
{
closed = 1;
nodes = (
"147.22 -234 LINE",
"297.22 -234 LINE",
"462.3 -52 LINE",
"230.3 -52 LINE"
);
}
);
width = 709;
}
);
leftKerningGroup = T;
note = uni021A;
rightKerningGroup = T;
unicode = 021A;
},
{
glyphname = U;
layers = (
{
hints = (
{
horizontal = 1;
place = "{0, 153}";
type = Stem;
},
{
place = "{62, 826}";
type = Stem;
}
);
layerId = "04043E30-D2B9-406E-ABC7-C215F4DFD662";
paths = (
{
closed = 1;
nodes = (
"156 0 LINE",
"647 0 LINE",
"774.75 95 LINE",
"887.94 737 LINE",
"597.94 737 LINE",
"494.97 153 LINE",
"361.97 153 LINE",
"464.94 737 LINE",
"174.94 737 LINE",
"61.75 95 LINE"
);
}
);
width = 803;
}
);
note = U;
unicode = 0055;
},
{
glyphname = Uacute;
layers = (
{
hints = (
{
horizontal = 1;
place = "{0, 153}";
type = Stem;
},
{
horizontal = 1;
place = "{789, 163}";
type = Stem;
},
{
place = "{62, 826}";
type = Stem;
}
);
layerId = "04043E30-D2B9-406E-ABC7-C215F4DFD662";
paths = (
{
closed = 1;
nodes = (
"459.11 789 LINE",
"617.11 789 LINE",
"807.85 952 LINE",
"566.85 952 LINE"
);
},
{
closed = 1;
nodes = (
"156 0 LINE",
"647 0 LINE",
"774.75 95 LINE",
"887.94 737 LINE",
"597.94 737 LINE",
"494.97 153 LINE",
"361.97 153 LINE",
"464.94 737 LINE",
"174.94 737 LINE",
"61.75 95 LINE"
);
}
);
width = 803;
}
);
note = Uacute;
unicode = 00DA;
},
{
glyphname = Ubreve;
layers = (
{
hints = (
{
horizontal = 1;
place = "{0, 153}";
type = Stem;
},
{
horizontal = 1;
place = "{789, 163}";
type = Stem;
},
{
place = "{62, 826}";
type = Stem;
},
{
horizontal = 1;
place = "{789, 111}";
type = Stem;
}
);
layerId = "04043E30-D2B9-406E-ABC7-C215F4DFD662";
paths = (
{
closed = 1;
nodes = (
"400.11 789 LINE",
"678.11 789 LINE",
"796.62 877 LINE",
"809.84 952 LINE",
"613.84 952 LINE",
"604.67 900 LINE",
"502.67 900 LINE",
"511.84 952 LINE",
"325.84 952 LINE",
"312.62 877 LINE"
);
},
{
closed = 1;
nodes = (
"155.99 0 LINE",
"646.99 0 LINE",
"774.74 95 LINE",
"887.93 737 LINE",
"597.93 737 LINE",
"494.96 153 LINE",
"361.96 153 LINE",
"464.93 737 LINE",
"174.93 737 LINE",
"61.74 95 LINE"
);
}
);
width = 803;
}
);
note = Ubreve;
unicode = 016C;
},
{
glyphname = Ucircumflex;
layers = (
{
hints = (
{
horizontal = 1;
place = "{0, 153}";
type = Stem;
},
{
horizontal = 1;
place = "{789, 163}";
type = Stem;
},
{
place = "{62, 826}";
type = Stem;
},
{
horizontal = 1;
place = "{865, 87}";
type = Stem;
}
);
layerId = "04043E30-D2B9-406E-ABC7-C215F4DFD662";
paths = (
{
closed = 1;
nodes = (
"269.11 789 LINE",
"461.11 789 LINE",
"550.51 865 LINE",
"613.1 789 LINE",
"800.1 789 LINE",
"705.85 952 LINE",
"420.85 952 LINE"
);
},
{
closed = 1;
nodes = (
"156 0 LINE",
"647 0 LINE",
"774.75 95 LINE",
"887.94 737 LINE",
"597.94 737 LINE",
"494.97 153 LINE",
"361.97 153 LINE",
"464.94 737 LINE",
"174.94 737 LINE",
"61.75 95 LINE"
);
}
);
width = 803;
}
);
note = Ucircumflex;
unicode = 00DB;
},
{
glyphname = uni0214;
layers = (
{
hints = (
{
horizontal = 1;
place = "{0, 153}";
type = Stem;
},
{
horizontal = 1;
place = "{789, 163}";
type = Stem;
},
{
place = "{62, 826}";
type = Stem;
}
);
layerId = "04043E30-D2B9-406E-ABC7-C215F4DFD662";
paths = (
{
closed = 1;
nodes = (
"304.11 789 LINE",
"466.11 789 LINE",
"385.86 952 LINE",
"170.86 952 LINE"
);
},
{
closed = 1;
nodes = (
"591.11 789 LINE",
"753.11 789 LINE",
"672.86 952 LINE",
"457.86 952 LINE"
);
},
{
closed = 1;
nodes = (
"156.01 0 LINE",
"647.01 0 LINE",
"774.76 95 LINE",
"887.95 737 LINE",
"597.95 737 LINE",
"494.98 153 LINE",
"361.98 153 LINE",
"464.95 737 LINE",
"174.95 737 LINE",
"61.76 95 LINE"
);
}
);
width = 803;
}
);
note = uni0214;
unicode = 0214;
},
{
glyphname = Udieresis;
layers = (
{
hints = (
{
horizontal = 1;
place = "{0, 153}";
type = Stem;
},
{
horizontal = 1;
place = "{789, 158}";
type = Stem;
},
{
place = "{62, 826}";
type = Stem;
}
);
layerId = "04043E30-D2B9-406E-ABC7-C215F4DFD662";
paths = (
{
closed = 1;
nodes = (
"260.07 789 LINE",
"508.07 789 LINE",
"535.92 947 LINE",
"287.92 947 LINE"
);
},
{
closed = 1;
nodes = (
"566.47 789 LINE",
"814.47 789 LINE",
"842.32 947 LINE",
"594.32 947 LINE"
);
},
{
closed = 1;
nodes = (
"155.98 0 LINE",
"646.98 0 LINE",
"774.73 95 LINE",
"887.92 737 LINE",
"597.92 737 LINE",
"494.95 153 LINE",
"361.95 153 LINE",
"464.92 737 LINE",
"174.92 737 LINE",
"61.73 95 LINE"
);
}
);
width = 803;
}
);
note = Udieresis;
unicode = 00DC;
},
{
glyphname = uni1EE4;
layers = (
{
hints = (
{
horizontal = 1;
place = "{-209, 158}";
type = Stem;
},
{
horizontal = 1;
place = "{0, 153}";
type = Stem;
},
{
place = "{62, 826}";
type = Stem;
}
);
layerId = "04043E30-D2B9-406E-ABC7-C215F4DFD662";
paths = (
{
closed = 1;
nodes = (
"156 0 LINE",
"647 0 LINE",
"774.75 95 LINE",
"887.94 737 LINE",
"597.94 737 LINE",
"494.97 153 LINE",
"361.97 153 LINE",
"464.94 737 LINE",
"174.94 737 LINE",
"61.75 95 LINE"
);
},
{
closed = 1;
nodes = (
"228.64 -209 LINE",
"501.64 -209 LINE",
"529.49 -51 LINE",
"256.49 -51 LINE"
);
}
);
width = 803;
}
);
note = uni1EE4;
unicode = 1EE4;
},
{
glyphname = Ugrave;
layers = (
{
hints = (
{
horizontal = 1;
place = "{0, 153}";
type = Stem;
},
{
horizontal = 1;
place = "{789, 163}";
type = Stem;
},
{
place = "{62, 826}";
type = Stem;
}
);
layerId = "04043E30-D2B9-406E-ABC7-C215F4DFD662";
paths = (
{
closed = 1;
nodes = (
"459.11 789 LINE",
"621.11 789 LINE",
"540.86 952 LINE",
"325.86 952 LINE"
);
},
{
closed = 1;
nodes = (
"156.01 0 LINE",
"647.01 0 LINE",
"774.76 95 LINE",
"887.95 737 LINE",
"597.95 737 LINE",
"494.98 153 LINE",
"361.98 153 LINE",
"464.95 737 LINE",
"174.95 737 LINE",
"61.76 95 LINE"
);
}
);
width = 803;
}
);
note = Ugrave;
unicode = 00D9;
},
{
glyphname = uni1EE6;
layers = (
{
hints = (
{
horizontal = 1;
place = "{0, 153}";
type = Stem;
},
{
horizontal = 1;
place = "{789, 106}";
type = Stem;
},
{
horizontal = 1;
place = "{920, 107}";
type = Stem;
},
{
place = "{62, 826}";
type = Stem;
},
{
horizontal = 1;
place = "{828, 67}";
type = Stem;
},
{
horizontal = 1;
place = "{985, 42}";
type = Stem;
},
{
horizontal = 1;
place = "{961, 66}";
type = Stem;
}
);
layerId = "04043E30-D2B9-406E-ABC7-C215F4DFD662";
paths = (
{
closed = 1;
nodes = (
"453.11 789 LINE",
"621.11 789 LINE",
"627.99 828 LINE",
"669.99 828 LINE",
"724.68 866 LINE",
"745.66 985 LINE",
"704.08 1027 LINE",
"471.08 1027 LINE",
"408.67 985 LINE",
"397.21 920 LINE",
"547.21 920 LINE",
"554.44 961 LINE",
"586.44 961 LINE",
"574.8 895 LINE",
"510.8 895 LINE",
"466.7 866 LINE"
);
},
{
closed = 1;
nodes = (
"156.01 0 LINE",
"647.01 0 LINE",
"774.76 95 LINE",
"887.95 737 LINE",
"597.95 737 LINE",
"494.98 153 LINE",
"361.98 153 LINE",
"464.95 737 LINE",
"174.95 737 LINE",
"61.76 95 LINE"
);
}
);
width = 803;
}
);
note = uni1EE6;
unicode = 1EE6;
},
{
glyphname = Uhorn;
layers = (
{
hints = (
{
horizontal = 1;
place = "{0, 153}";
type = Stem;
},
{
horizontal = 1;
place = "{595, 206}";
type = Stem;
},
{
place = "{62, 1144}";
type = Stem;
},
{
horizontal = 1;
place = "{595, 88}";
type = Stem;
},
{
horizontal = 1;
place = "{595, 142}";
type = Stem;
}
);
layerId = "04043E30-D2B9-406E-ABC7-C215F4DFD662";
paths = (
{
closed = 1;
nodes = (
"1206.23 801 LINE",
"975.23 801 LINE",
"919.43 683 LINE",
"878.43 683 LINE",
"887.94 737 LINE",
"597.94 737 LINE",
"494.97 153 LINE",
"361.97 153 LINE",
"464.94 737 LINE",
"174.94 737 LINE",
"61.75 95 LINE",
"156 0 LINE",
"647 0 LINE",
"774.75 95 LINE",
"862.91 595 LINE",
"1016.91 595 LINE"
);
}
);
width = 803;
}
);
note = Uhorn;
unicode = 01AF;
},
{
glyphname = uni1EE8;
layers = (
{
hints = (
{
horizontal = 1;
place = "{0, 153}";
type = Stem;
},
{
horizontal = 1;
place = "{595, 142}";
type = Stem;
},
{
horizontal = 1;
place = "{789, 163}";
type = Stem;
},
{
place = "{62, 1144}";
type = Stem;
},
{
horizontal = 1;
place = "{595, 206}";
type = Stem;
},
{
horizontal = 1;
place = "{595, 88}";
type = Stem;
}
);
layerId = "04043E30-D2B9-406E-ABC7-C215F4DFD662";
paths = (
{
closed = 1;
nodes = (
"807.85 952 LINE",
"566.85 952 LINE",
"459.11 789 LINE",
"617.11 789 LINE"
);
},
{
closed = 1;
nodes = (
"1206.23 801 LINE",
"975.23 801 LINE",
"919.43 683 LINE",
"878.43 683 LINE",
"887.94 737 LINE",
"597.94 737 LINE",
"494.97 153 LINE",
"361.97 153 LINE",
"464.94 737 LINE",
"174.94 737 LINE",
"61.75 95 LINE",
"156 0 LINE",
"647 0 LINE",
"774.75 95 LINE",
"862.91 595 LINE",
"1016.91 595 LINE"
);
}
);
width = 803;
}
);
note = uni1EE8;
unicode = 1EE8;
},
{
glyphname = uni1EF0;
layers = (
{
hints = (
{
horizontal = 1;
place = "{-209, 158}";
type = Stem;
},
{
horizontal = 1;
place = "{0, 153}";
type = Stem;
},
{
horizontal = 1;
place = "{595, 206}";
type = Stem;
},
{
place = "{62, 1144}";
type = Stem;
},
{
horizontal = 1;
place = "{595, 88}";
type = Stem;
},
{
horizontal = 1;
place = "{595, 142}";
type = Stem;
}
);
layerId = "04043E30-D2B9-406E-ABC7-C215F4DFD662";
paths = (
{
closed = 1;
nodes = (
"1206.23 801 LINE",
"975.23 801 LINE",
"919.43 683 LINE",
"878.43 683 LINE",
"887.94 737 LINE",
"597.94 737 LINE",
"494.97 153 LINE",
"361.97 153 LINE",
"464.94 737 LINE",
"174.94 737 LINE",
"61.75 95 LINE",
"156 0 LINE",
"647 0 LINE",
"774.75 95 LINE",
"862.91 595 LINE",
"1016.91 595 LINE"
);
},
{
closed = 1;
nodes = (
"228.65 -209 LINE",
"501.65 -209 LINE",
"529.5 -51 LINE",
"256.5 -51 LINE"
);
}
);
width = 803;
}
);
note = uni1EF0;
unicode = 1EF0;
},
{
glyphname = uni1EEA;
layers = (
{
hints = (
{
horizontal = 1;
place = "{0, 153}";
type = Stem;
},
{
horizontal = 1;
place = "{595, 142}";
type = Stem;
},
{
horizontal = 1;
place = "{789, 163}";
type = Stem;
},
{
place = "{62, 1144}";
type = Stem;
},
{
horizontal = 1;
place = "{595, 206}";
type = Stem;
},
{
horizontal = 1;
place = "{595, 88}";
type = Stem;
}
);
layerId = "04043E30-D2B9-406E-ABC7-C215F4DFD662";
paths = (
{
closed = 1;
nodes = (
"621.11 789 LINE",
"540.86 952 LINE",
"325.86 952 LINE",
"459.11 789 LINE"
);
},
{
closed = 1;
nodes = (
"1206.23 801 LINE",
"975.23 801 LINE",
"919.43 683 LINE",
"878.43 683 LINE",
"887.94 737 LINE",
"597.94 737 LINE",
"494.97 153 LINE",
"361.97 153 LINE",
"464.94 737 LINE",
"174.94 737 LINE",
"61.75 95 LINE",
"156 0 LINE",
"647 0 LINE",
"774.75 95 LINE",
"862.91 595 LINE",
"1016.91 595 LINE"
);
}
);
width = 803;
}
);
note = uni1EEA;
unicode = 1EEA;
},
{
glyphname = uni1EEC;
layers = (
{
hints = (
{
horizontal = 1;
place = "{0, 153}";
type = Stem;
},
{
horizontal = 1;
place = "{595, 142}";
type = Stem;
},
{
horizontal = 1;
place = "{789, 106}";
type = Stem;
},
{
horizontal = 1;
place = "{961, 66}";
type = Stem;
},
{
place = "{62, 1144}";
type = Stem;
},
{
horizontal = 1;
place = "{828, 67}";
type = Stem;
},
{
horizontal = 1;
place = "{985, 42}";
type = Stem;
},
{
horizontal = 1;
place = "{595, 206}";
type = Stem;
},
{
horizontal = 1;
place = "{920, 107}";
type = Stem;
},
{
horizontal = 1;
place = "{595, 88}";
type = Stem;
}
);
layerId = "04043E30-D2B9-406E-ABC7-C215F4DFD662";
paths = (
{
closed = 1;
nodes = (
"554.44 961 LINE",
"586.44 961 LINE",
"574.8 895 LINE",
"510.8 895 LINE",
"466.7 866 LINE",
"453.12 789 LINE",
"621.12 789 LINE",
"628 828 LINE",
"670 828 LINE",
"724.69 866 LINE",
"745.67 985 LINE",
"704.09 1027 LINE",
"471.09 1027 LINE",
"408.68 985 LINE",
"397.22 920 LINE",
"547.22 920 LINE"
);
},
{
closed = 1;
nodes = (
"1206.23 801 LINE",
"975.23 801 LINE",
"919.43 683 LINE",
"878.43 683 LINE",
"887.94 737 LINE",
"597.94 737 LINE",
"494.97 153 LINE",
"361.97 153 LINE",
"464.94 737 LINE",
"174.94 737 LINE",
"61.75 95 LINE",
"156 0 LINE",
"647 0 LINE",
"774.75 95 LINE",
"862.91 595 LINE",
"1016.91 595 LINE"
);
}
);
width = 803;
}
);
note = uni1EEC;
unicode = 1EEC;
},
{
glyphname = uni1EEE;
layers = (
{
hints = (
{
horizontal = 1;
place = "{0, 153}";
type = Stem;
},
{
horizontal = 1;
place = "{595, 142}";
type = Stem;
},
{
horizontal = 1;
place = "{843, 114}";
type = Stem;
},
{
place = "{62, 1144}";
type = Stem;
},
{
horizontal = 1;
place = "{789, 161}";
type = Stem;
},
{
horizontal = 1;
place = "{789, 113}";
type = Stem;
},
{
horizontal = 1;
place = "{795, 162}";
type = Stem;
},
{
horizontal = 1;
place = "{595, 206}";
type = Stem;
},
{
horizontal = 1;
place = "{595, 88}";
type = Stem;
}
);
layerId = "04043E30-D2B9-406E-ABC7-C215F4DFD662";
paths = (
{
closed = 1;
nodes = (
"438.81 827 LINE",
"457.63 843 LINE",
"474.63 843 LINE",
"515.11 789 LINE",
"712.11 789 LINE",
"808.8 861 LINE",
"824.49 950 LINE",
"672.49 950 LINE",
"666.67 917 LINE",
"648.03 902 LINE",
"630.03 902 LINE",
"590.74 957 LINE",
"392.74 957 LINE",
"296.69 883 LINE",
"281.18 795 LINE",
"433.18 795 LINE"
);
},
{
closed = 1;
nodes = (
"1206.23 801 LINE",
"975.23 801 LINE",
"919.43 683 LINE",
"878.43 683 LINE",
"887.94 737 LINE",
"597.94 737 LINE",
"494.97 153 LINE",
"361.97 153 LINE",
"464.94 737 LINE",
"174.94 737 LINE",
"61.75 95 LINE",
"156 0 LINE",
"647 0 LINE",
"774.75 95 LINE",
"862.91 595 LINE",
"1016.91 595 LINE"
);
}
);
width = 803;
}
);
note = uni1EEE;
unicode = 1EEE;
},
{
glyphname = Uhungarumlaut;
layers = (
{
hints = (
{
horizontal = 1;
place = "{0, 153}";
type = Stem;
},
{
horizontal = 1;
place = "{789, 165}";
type = Stem;
},
{
place = "{62, 899}";
type = Stem;
}
);
layerId = "04043E30-D2B9-406E-ABC7-C215F4DFD662";
paths = (
{
closed = 1;
nodes = (
"322.11 789 LINE",
"500.11 789 LINE",
"693.21 954 LINE",
"448.21 954 LINE"
);
},
{
closed = 1;
nodes = (
"590.1 789 LINE",
"768.1 789 LINE",
"961.2 954 LINE",
"716.2 954 LINE"
);
},
{
closed = 1;
nodes = (
"155.99 0 LINE",
"646.99 0 LINE",
"774.74 95 LINE",
"887.93 737 LINE",
"597.93 737 LINE",
"494.96 153 LINE",
"361.96 153 LINE",
"464.93 737 LINE",
"174.93 737 LINE",
"61.74 95 LINE"
);
}
);
width = 803;
}
);
note = Uhungarumlaut;
unicode = 0170;
},
{
glyphname = uni0216;
layers = (
{
hints = (
{
horizontal = 1;
place = "{0, 153}";
type = Stem;
},
{
horizontal = 1;
place = "{789, 163}";
type = Stem;
},
{
place = "{62, 826}";
type = Stem;
},
{
horizontal = 1;
place = "{841, 111}";
type = Stem;
}
);
layerId = "04043E30-D2B9-406E-ABC7-C215F4DFD662";
paths = (
{
closed = 1;
nodes = (
"290.11 789 LINE",
"486.11 789 LINE",
"495.28 841 LINE",
"597.28 841 LINE",
"588.11 789 LINE",
"784.11 789 LINE",
"797.34 864 LINE",
"709.86 952 LINE",
"421.86 952 LINE",
"303.35 864 LINE"
);
},
{
closed = 1;
nodes = (
"156.01 0 LINE",
"647.01 0 LINE",
"774.76 95 LINE",
"887.95 737 LINE",
"597.95 737 LINE",
"494.98 153 LINE",
"361.98 153 LINE",
"464.95 737 LINE",
"174.95 737 LINE",
"61.76 95 LINE"
);
}
);
width = 803;
}
);
note = uni0216;
unicode = 0216;
},
{
glyphname = Umacron;
layers = (
{
hints = (
{
horizontal = 1;
place = "{0, 153}";
type = Stem;
},
{
horizontal = 1;
place = "{789, 149}";
type = Stem;
},
{
place = "{62, 826}";
type = Stem;
}
);
layerId = "04043E30-D2B9-406E-ABC7-C215F4DFD662";
paths = (
{
closed = 1;
nodes = (
"259.11 789 LINE",
"815.11 789 LINE",
"841.39 938 LINE",
"285.38 938 LINE"
);
},
{
closed = 1;
nodes = (
"156 0 LINE",
"647 0 LINE",
"774.75 95 LINE",
"887.94 737 LINE",
"597.94 737 LINE",
"494.97 153 LINE",
"361.97 153 LINE",
"464.94 737 LINE",
"174.94 737 LINE",
"61.75 95 LINE"
);
}
);
width = 803;
}
);
note = Umacron;
unicode = 016A;
},
{
glyphname = Uogonek;
layers = (
{
hints = (
{
horizontal = 1;
place = "{-191, 127}";
type = Stem;
},
{
horizontal = 1;
place = "{0, 153}";
type = Stem;
},
{
place = "{62, 826}";
type = Stem;
}
);
layerId = "04043E30-D2B9-406E-ABC7-C215F4DFD662";
paths = (
{
closed = 1;
nodes = (
"61.75 95 LINE",
"156 0 LINE",
"357 0 LINE",
"306.18 -33 LINE",
"290.49 -122 LINE",
"361.31 -191 LINE",
"458.31 -191 LINE",
"480.71 -64 LINE",
"452.71 -64 LINE",
"439.18 -50 LINE",
"443.41 -26 LINE",
"477.99 0 LINE",
"646.99 0 LINE",
"774.74 95 LINE",
"887.93 737 LINE",
"597.93 737 LINE",
"494.96 153 LINE",
"361.96 153 LINE",
"464.93 737 LINE",
"174.93 737 LINE"
);
}
);
width = 803;
}
);
note = Uogonek;
unicode = 0172;
},
{
glyphname = Uring;
layers = (
{
hints = (
{
horizontal = 1;
place = "{0, 153}";
type = Stem;
},
{
horizontal = 1;
place = "{789, 97}";
type = Stem;
},
{
horizontal = 1;
place = "{932, 97}";
type = Stem;
},
{
place = "{62, 826}";
type = Stem;
}
);
layerId = "04043E30-D2B9-406E-ABC7-C215F4DFD662";
paths = (
{
closed = 1;
nodes = (
"469.61 789 LINE",
"604.61 789 LINE",
"694.01 865 LINE",
"709.52 953 LINE",
"646.92 1029 LINE",
"511.92 1029 LINE",
"422.53 953 LINE",
"407.02 865 LINE"
);
},
{
closed = 1;
nodes = (
"545.22 886 LINE",
"533.69 900 LINE",
"536.69 917 LINE",
"553.34 932 LINE",
"570.34 932 LINE",
"582.68 917 LINE",
"579.68 900 LINE",
"562.22 886 LINE"
);
},
{
closed = 1;
nodes = (
"156 0 LINE",
"647 0 LINE",
"774.75 95 LINE",
"887.94 737 LINE",
"597.94 737 LINE",
"494.97 153 LINE",
"361.97 153 LINE",
"464.94 737 LINE",
"174.94 737 LINE",
"61.75 95 LINE"
);
}
);
width = 803;
}
);
note = Uring;
unicode = 016E;
},
{
glyphname = Utilde;
layers = (
{
hints = (
{
horizontal = 1;
place = "{0, 153}";
type = Stem;
},
{
horizontal = 1;
place = "{789, 161}";
type = Stem;
},
{
place = "{62, 826}";
type = Stem;
},
{
horizontal = 1;
place = "{789, 113}";
type = Stem;
},
{
horizontal = 1;
place = "{795, 162}";
type = Stem;
},
{
horizontal = 1;
place = "{843, 114}";
type = Stem;
}
);
layerId = "04043E30-D2B9-406E-ABC7-C215F4DFD662";
paths = (
{
closed = 1;
nodes = (
"515.11 789 LINE",
"712.11 789 LINE",
"808.8 861 LINE",
"824.49 950 LINE",
"672.49 950 LINE",
"666.67 917 LINE",
"648.03 902 LINE",
"630.03 902 LINE",
"590.74 957 LINE",
"392.74 957 LINE",
"296.69 883 LINE",
"281.18 795 LINE",
"433.18 795 LINE",
"438.81 827 LINE",
"457.63 843 LINE",
"474.63 843 LINE"
);
},
{
closed = 1;
nodes = (
"156 0 LINE",
"647 0 LINE",
"774.75 95 LINE",
"887.94 737 LINE",
"597.94 737 LINE",
"494.97 153 LINE",
"361.97 153 LINE",
"464.94 737 LINE",
"174.94 737 LINE",
"61.75 95 LINE"
);
}
);
width = 803;
}
);
note = Utilde;
unicode = 0168;
},
{
glyphname = V;
layers = (
{
hints = (
{
horizontal = 1;
place = "{0, 186}";
type = Stem;
},
{
place = "{121, 779}";
type = Stem;
}
);
layerId = "04043E30-D2B9-406E-ABC7-C215F4DFD662";
paths = (
{
closed = 1;
nodes = (
"211 0 LINE",
"594 0 LINE",
"857.45 496 LINE",
"899.94 737 LINE",
"610.94 737 LINE",
"455.79 186 LINE",
"413.79 186 LINE",
"435.94 737 LINE",
"163.94 737 LINE",
"121.45 496 LINE"
);
}
);
width = 803;
}
);
leftKerningGroup = V;
note = V;
rightKerningGroup = V;
unicode = 0056;
},
{
glyphname = W;
layers = (
{
hints = (
{
horizontal = 1;
place = "{0, 186}";
type = Stem;
},
{
place = "{129, 1102}";
type = Stem;
}
);
layerId = "04043E30-D2B9-406E-ABC7-C215F4DFD662";
paths = (
{
closed = 1;
nodes = (
"195 0 LINE",
"505 0 LINE",
"604.14 171 LINE",
"640.99 0 LINE",
"951.99 0 LINE",
"1184.91 476 LINE",
"1230.92 737 LINE",
"939.92 737 LINE",
"803.77 186 LINE",
"761.77 186 LINE",
"819.92 737 LINE",
"585.92 737 LINE",
"449.77 186 LINE",
"408.77 186 LINE",
"466.92 737 LINE",
"174.92 737 LINE",
"128.91 476 LINE"
);
}
);
width = 1145;
}
);
leftKerningGroup = W;
note = W;
rightKerningGroup = W;
unicode = 0057;
},
{
glyphname = Wacute;
layers = (
{
hints = (
{
horizontal = 1;
place = "{0, 186}";
type = Stem;
},
{
horizontal = 1;
place = "{789, 163}";
type = Stem;
},
{
place = "{129, 1102}";
type = Stem;
}
);
layerId = "04043E30-D2B9-406E-ABC7-C215F4DFD662";
paths = (
{
closed = 1;
nodes = (
"635.11 789 LINE",
"793.11 789 LINE",
"983.85 952 LINE",
"742.85 952 LINE"
);
},
{
closed = 1;
nodes = (
"195 0 LINE",
"505 0 LINE",
"604.14 171 LINE",
"640.99 0 LINE",
"951.99 0 LINE",
"1184.91 476 LINE",
"1230.92 737 LINE",
"939.92 737 LINE",
"803.77 186 LINE",
"761.77 186 LINE",
"819.92 737 LINE",
"585.92 737 LINE",
"449.77 186 LINE",
"408.77 186 LINE",
"466.92 737 LINE",
"174.92 737 LINE",
"128.91 476 LINE"
);
}
);
width = 1145;
}
);
leftKerningGroup = W;
note = Wacute;
rightKerningGroup = W;
unicode = 1E82;
},
{
glyphname = Wcircumflex;
layers = (
{
hints = (
{
horizontal = 1;
place = "{0, 186}";
type = Stem;
},
{
horizontal = 1;
place = "{789, 163}";
type = Stem;
},
{
place = "{129, 1102}";
type = Stem;
},
{
horizontal = 1;
place = "{865, 87}";
type = Stem;
}
);
layerId = "04043E30-D2B9-406E-ABC7-C215F4DFD662";
paths = (
{
closed = 1;
nodes = (
"445.11 789 LINE",
"637.11 789 LINE",
"726.51 865 LINE",
"789.1 789 LINE",
"976.1 789 LINE",
"881.85 952 LINE",
"596.85 952 LINE"
);
},
{
closed = 1;
nodes = (
"195 0 LINE",
"505 0 LINE",
"604.14 171 LINE",
"640.99 0 LINE",
"951.99 0 LINE",
"1184.91 476 LINE",
"1230.92 737 LINE",
"939.92 737 LINE",
"803.77 186 LINE",
"761.77 186 LINE",
"819.92 737 LINE",
"585.92 737 LINE",
"449.77 186 LINE",
"408.77 186 LINE",
"466.92 737 LINE",
"174.92 737 LINE",
"128.91 476 LINE"
);
}
);
width = 1145;
}
);
leftKerningGroup = W;
note = Wcircumflex;
rightKerningGroup = W;
unicode = 0174;
},
{
glyphname = Wdieresis;
layers = (
{
hints = (
{
horizontal = 1;
place = "{0, 186}";
type = Stem;
},
{
horizontal = 1;
place = "{789, 158}";
type = Stem;
},
{
place = "{129, 1102}";
type = Stem;
}
);
layerId = "04043E30-D2B9-406E-ABC7-C215F4DFD662";
paths = (
{
closed = 1;
nodes = (
"436.07 789 LINE",
"684.07 789 LINE",
"711.92 947 LINE",
"463.92 947 LINE"
);
},
{
closed = 1;
nodes = (
"742.47 789 LINE",
"990.47 789 LINE",
"1018.32 947 LINE",
"770.32 947 LINE"
);
},
{
closed = 1;
nodes = (
"194.98 0 LINE",
"504.98 0 LINE",
"604.12 171 LINE",
"640.97 0 LINE",
"951.97 0 LINE",
"1184.89 476 LINE",
"1230.9 737 LINE",
"939.9 737 LINE",
"803.75 186 LINE",
"761.75 186 LINE",
"819.9 737 LINE",
"585.9 737 LINE",
"449.75 186 LINE",
"408.75 186 LINE",
"466.9 737 LINE",
"174.9 737 LINE",
"128.89 476 LINE"
);
}
);
width = 1145;
}
);
leftKerningGroup = W;
note = Wdieresis;
rightKerningGroup = W;
unicode = 1E84;
},
{
glyphname = Wgrave;
layers = (
{
hints = (
{
horizontal = 1;
place = "{0, 186}";
type = Stem;
},
{
horizontal = 1;
place = "{789, 163}";
type = Stem;
},
{
place = "{129, 1102}";
type = Stem;
}
);
layerId = "04043E30-D2B9-406E-ABC7-C215F4DFD662";
paths = (
{
closed = 1;
nodes = (
"617.11 789 LINE",
"779.11 789 LINE",
"698.86 952 LINE",
"483.86 952 LINE"
);
},
{
closed = 1;
nodes = (
"195.01 0 LINE",
"505.01 0 LINE",
"604.15 171 LINE",
"641 0 LINE",
"952 0 LINE",
"1184.92 476 LINE",
"1230.93 737 LINE",
"939.93 737 LINE",
"803.78 186 LINE",
"761.78 186 LINE",
"819.93 737 LINE",
"585.93 737 LINE",
"449.78 186 LINE",
"408.78 186 LINE",
"466.93 737 LINE",
"174.93 737 LINE",
"128.92 476 LINE"
);
}
);
width = 1145;
}
);
leftKerningGroup = W;
note = Wgrave;
rightKerningGroup = W;
unicode = 1E80;
},
{
glyphname = X;
layers = (
{
hints = (
{
horizontal = 1;
place = "{288, 170}";
type = Stem;
},
{
place = "{45, 859}";
type = Stem;
}
);
layerId = "04043E30-D2B9-406E-ABC7-C215F4DFD662";
paths = (
{
closed = 1;
nodes = (
"45 0 LINE",
"339 0 LINE",
"439.77 288 LINE",
"481.77 288 LINE",
"480 0 LINE",
"774 0 LINE",
"814.02 227 LINE",
"720 380 LINE",
"866.39 524 LINE",
"903.94 737 LINE",
"609.94 737 LINE",
"511.75 458 LINE",
"469.75 458 LINE",
"468.95 737 LINE",
"174.95 737 LINE",
"137.4 524 LINE",
"234 380 LINE",
"85.03 227 LINE"
);
}
);
width = 818;
}
);
leftKerningGroup = X;
note = X;
rightKerningGroup = X;
unicode = 0058;
},
{
glyphname = Y;
layers = (
{
hints = (
{
horizontal = 1;
place = "{0, 737}";
type = Stem;
},
{
place = "{139.12, 289.21}";
type = Stem;
}
);
layerId = "04043E30-D2B9-406E-ABC7-C215F4DFD662";
paths = (
{
closed = 1;
nodes = (
"232 0 LINE",
"521 0 LINE",
"559.78 220.5 LINE",
"744.28 359 LINE",
"870.93 737 LINE",
"576.93 737 LINE",
"462.69 367 LINE",
"420.69 367 LINE",
"435.93 737 LINE",
"141.93 737 LINE",
"136.28 359 LINE",
"270.95 220.5 LINE"
);
}
);
width = 753;
}
);
leftKerningGroup = Y;
note = Y;
rightKerningGroup = Y;
unicode = 0059;
},
{
glyphname = Yacute;
layers = (
{
hints = (
{
horizontal = 1;
place = "{789, 163}";
type = Stem;
},
{
place = "{139.12, 289.21}";
type = Stem;
}
);
layerId = "04043E30-D2B9-406E-ABC7-C215F4DFD662";
paths = (
{
closed = 1;
nodes = (
"437.61 789 LINE",
"595.61 789 LINE",
"786.35 952 LINE",
"545.35 952 LINE"
);
},
{
closed = 1;
nodes = (
"232 0 LINE",
"521 0 LINE",
"559.78 220.5 LINE",
"744.28 359 LINE",
"870.93 737 LINE",
"576.93 737 LINE",
"462.69 367 LINE",
"420.69 367 LINE",
"435.93 737 LINE",
"141.93 737 LINE",
"136.28 359 LINE",
"270.95 220.5 LINE"
);
}
);
width = 753;
}
);
leftKerningGroup = Y;
note = Yacute;
rightKerningGroup = Y;
unicode = 00DD;
},
{
glyphname = Ycircumflex;
layers = (
{
hints = (
{
horizontal = 1;
place = "{789, 163}";
type = Stem;
},
{
place = "{139.12, 289.21}";
type = Stem;
},
{
horizontal = 1;
place = "{865, 87}";
type = Stem;
}
);
layerId = "04043E30-D2B9-406E-ABC7-C215F4DFD662";
paths = (
{
closed = 1;
nodes = (
"247.61 789 LINE",
"439.61 789 LINE",
"529.01 865 LINE",
"591.6 789 LINE",
"778.6 789 LINE",
"684.35 952 LINE",
"399.35 952 LINE"
);
},
{
closed = 1;
nodes = (
"232 0 LINE",
"521 0 LINE",
"559.78 220.5 LINE",
"744.28 359 LINE",
"870.93 737 LINE",
"576.93 737 LINE",
"462.69 367 LINE",
"420.69 367 LINE",
"435.93 737 LINE",
"141.93 737 LINE",
"136.28 359 LINE",
"270.95 220.5 LINE"
);
}
);
width = 753;
}
);
leftKerningGroup = Y;
note = Ycircumflex;
rightKerningGroup = Y;
unicode = 0176;
},
{
glyphname = Ydieresis;
layers = (
{
hints = (
{
horizontal = 1;
place = "{789, 158}";
type = Stem;
},
{
place = "{139.12, 289.21}";
type = Stem;
}
);
layerId = "04043E30-D2B9-406E-ABC7-C215F4DFD662";
paths = (
{
closed = 1;
nodes = (
"238.57 789 LINE",
"486.57 789 LINE",
"514.42 947 LINE",
"266.42 947 LINE"
);
},
{
closed = 1;
nodes = (
"544.97 789 LINE",
"792.97 789 LINE",
"820.82 947 LINE",
"572.82 947 LINE"
);
},
{
closed = 1;
nodes = (
"231.98 0 LINE",
"520.98 0 LINE",
"559.76 220.5 LINE",
"744.26 359 LINE",
"870.91 737 LINE",
"576.91 737 LINE",
"462.67 367 LINE",
"420.67 367 LINE",
"435.91 737 LINE",
"141.91 737 LINE",
"136.26 359 LINE",
"270.93 220.5 LINE"
);
}
);
width = 753;
}
);
leftKerningGroup = Y;
note = Ydieresis;
rightKerningGroup = Y;
unicode = 0178;
},
{
glyphname = uni1EF4;
layers = (
{
hints = (
{
horizontal = 1;
place = "{-209, 158}";
type = Stem;
},
{
place = "{139.12, 289.21}";
type = Stem;
}
);
layerId = "04043E30-D2B9-406E-ABC7-C215F4DFD662";
paths = (
{
closed = 1;
nodes = (
"232 0 LINE",
"521 0 LINE",
"559.78 220.5 LINE",
"744.28 359 LINE",
"870.93 737 LINE",
"576.93 737 LINE",
"462.69 367 LINE",
"420.69 367 LINE",
"435.93 737 LINE",
"141.93 737 LINE",
"136.28 359 LINE",
"270.95 220.5 LINE"
);
},
{
closed = 1;
nodes = (
"203.13 -209 LINE",
"476.13 -209 LINE",
"503.98 -51 LINE",
"230.98 -51 LINE"
);
}
);
width = 753;
}
);
leftKerningGroup = Y;
note = uni1EF4;
rightKerningGroup = Y;
unicode = 1EF4;
},
{
glyphname = Ygrave;
layers = (
{
hints = (
{
horizontal = 1;
place = "{789, 163}";
type = Stem;
},
{
place = "{139.12, 289.21}";
type = Stem;
}
);
layerId = "04043E30-D2B9-406E-ABC7-C215F4DFD662";
paths = (
{
closed = 1;
nodes = (
"437.61 789 LINE",
"599.61 789 LINE",
"519.36 952 LINE",
"304.36 952 LINE"
);
},
{
closed = 1;
nodes = (
"232.01 0 LINE",
"521.01 0 LINE",
"559.79 220.5 LINE",
"744.29 359 LINE",
"870.94 737 LINE",
"576.94 737 LINE",
"462.7 367 LINE",
"420.7 367 LINE",
"435.94 737 LINE",
"141.94 737 LINE",
"136.29 359 LINE",
"270.96 220.5 LINE"
);
}
);
width = 753;
}
);
leftKerningGroup = Y;
note = Ygrave;
rightKerningGroup = Y;
unicode = 1EF2;
},
{
glyphname = uni1EF6;
layers = (
{
hints = (
{
horizontal = 1;
place = "{789, 106}";
type = Stem;
},
{
horizontal = 1;
place = "{920, 107}";
type = Stem;
},
{
place = "{139.12, 289.21}";
type = Stem;
},
{
horizontal = 1;
place = "{828, 67}";
type = Stem;
},
{
horizontal = 1;
place = "{985, 42}";
type = Stem;
},
{
horizontal = 1;
place = "{961, 66}";
type = Stem;
}
);
layerId = "04043E30-D2B9-406E-ABC7-C215F4DFD662";
paths = (
{
closed = 1;
nodes = (
"431.61 789 LINE",
"599.61 789 LINE",
"606.49 828 LINE",
"648.49 828 LINE",
"703.18 866 LINE",
"724.16 985 LINE",
"682.58 1027 LINE",
"449.58 1027 LINE",
"387.17 985 LINE",
"375.71 920 LINE",
"525.71 920 LINE",
"532.94 961 LINE",
"564.94 961 LINE",
"553.3 895 LINE",
"489.3 895 LINE",
"445.2 866 LINE"
);
},
{
closed = 1;
nodes = (
"232.01 0 LINE",
"521.01 0 LINE",
"559.79 220.5 LINE",
"744.29 359 LINE",
"870.94 737 LINE",
"576.94 737 LINE",
"462.7 367 LINE",
"420.7 367 LINE",
"435.94 737 LINE",
"141.94 737 LINE",
"136.29 359 LINE",
"270.96 220.5 LINE"
);
}
);
width = 753;
}
);
leftKerningGroup = Y;
note = uni1EF6;
rightKerningGroup = Y;
unicode = 1EF6;
},
{
glyphname = uni0232;
layers = (
{
hints = (
{
horizontal = 1;
place = "{789, 149}";
type = Stem;
},
{
place = "{139.12, 289.21}";
type = Stem;
}
);
layerId = "04043E30-D2B9-406E-ABC7-C215F4DFD662";
paths = (
{
closed = 1;
nodes = (
"237.61 789 LINE",
"793.61 789 LINE",
"819.89 938 LINE",
"263.88 938 LINE"
);
},
{
closed = 1;
nodes = (
"232 0 LINE",
"521 0 LINE",
"559.78 220.5 LINE",
"744.28 359 LINE",
"870.93 737 LINE",
"576.93 737 LINE",
"462.69 367 LINE",
"420.69 367 LINE",
"435.93 737 LINE",
"141.93 737 LINE",
"136.28 359 LINE",
"270.95 220.5 LINE"
);
}
);
width = 753;
}
);
leftKerningGroup = Y;
note = uni0232;
rightKerningGroup = Y;
unicode = 0232;
},
{
glyphname = uni1EF8;
layers = (
{
hints = (
{
horizontal = 1;
place = "{789, 161}";
type = Stem;
},
{
place = "{139.12, 289.21}";
type = Stem;
},
{
horizontal = 1;
place = "{789, 113}";
type = Stem;
},
{
horizontal = 1;
place = "{795, 162}";
type = Stem;
},
{
horizontal = 1;
place = "{843, 114}";
type = Stem;
}
);
layerId = "04043E30-D2B9-406E-ABC7-C215F4DFD662";
paths = (
{
closed = 1;
nodes = (
"493.61 789 LINE",
"690.61 789 LINE",
"787.3 861 LINE",
"802.99 950 LINE",
"650.99 950 LINE",
"645.17 917 LINE",
"626.53 902 LINE",
"608.53 902 LINE",
"569.24 957 LINE",
"371.24 957 LINE",
"275.19 883 LINE",
"259.68 795 LINE",
"411.68 795 LINE",
"417.31 827 LINE",
"436.13 843 LINE",
"453.13 843 LINE"
);
},
{
closed = 1;
nodes = (
"232 0 LINE",
"521 0 LINE",
"559.78 220.5 LINE",
"744.28 359 LINE",
"870.93 737 LINE",
"576.93 737 LINE",
"462.69 367 LINE",
"420.69 367 LINE",
"435.93 737 LINE",
"141.93 737 LINE",
"136.28 359 LINE",
"270.95 220.5 LINE"
);
}
);
width = 753;
}
);
leftKerningGroup = Y;
note = uni1EF8;
rightKerningGroup = Y;
unicode = 1EF8;
},
{
glyphname = Z;
layers = (
{
hints = (
{
horizontal = 1;
place = "{0, 197}";
type = Stem;
},
{
horizontal = 1;
place = "{540, 197}";
type = Stem;
},
{
place = "{33, 771}";
type = Stem;
}
);
layerId = "04043E30-D2B9-406E-ABC7-C215F4DFD662";
paths = (
{
closed = 1;
nodes = (
"33 0 LINE",
"674 0 LINE",
"708.73 197 LINE",
"401.73 197 LINE",
"767.26 529 LINE",
"803.93 737 LINE",
"177.93 737 LINE",
"143.2 540 LINE",
"438.2 540 LINE",
"69.67 208 LINE"
);
}
);
width = 707;
}
);
leftKerningGroup = Z;
note = Z;
rightKerningGroup = Z;
unicode = 005A;
},
{
glyphname = Zacute;
layers = (
{
hints = (
{
horizontal = 1;
place = "{0, 197}";
type = Stem;
},
{
horizontal = 1;
place = "{540, 197}";
type = Stem;
},
{
horizontal = 1;
place = "{789, 163}";
type = Stem;
},
{
place = "{33, 771}";
type = Stem;
}
);
layerId = "04043E30-D2B9-406E-ABC7-C215F4DFD662";
paths = (
{
closed = 1;
nodes = (
"426.11 789 LINE",
"584.11 789 LINE",
"774.85 952 LINE",
"533.85 952 LINE"
);
},
{
closed = 1;
nodes = (
"33 0 LINE",
"674 0 LINE",
"708.73 197 LINE",
"401.73 197 LINE",
"767.26 529 LINE",
"803.93 737 LINE",
"177.93 737 LINE",
"143.2 540 LINE",
"438.2 540 LINE",
"69.67 208 LINE"
);
}
);
width = 707;
}
);
leftKerningGroup = Z;
note = Zacute;
rightKerningGroup = Z;
unicode = 0179;
},
{
glyphname = Zcaron;
layers = (
{
hints = (
{
horizontal = 1;
place = "{0, 197}";
type = Stem;
},
{
horizontal = 1;
place = "{540, 197}";
type = Stem;
},
{
horizontal = 1;
place = "{789, 163}";
type = Stem;
},
{
place = "{33, 771}";
type = Stem;
}
);
layerId = "04043E30-D2B9-406E-ABC7-C215F4DFD662";
paths = (
{
closed = 1;
nodes = (
"364.11 789 LINE",
"649.11 789 LINE",
"800.85 952 LINE",
"608.85 952 LINE",
"519.45 876 LINE",
"456.86 952 LINE",
"269.86 952 LINE"
);
},
{
closed = 1;
nodes = (
"33.01 0 LINE",
"674.01 0 LINE",
"708.74 197 LINE",
"401.74 197 LINE",
"767.27 529 LINE",
"803.94 737 LINE",
"177.94 737 LINE",
"143.21 540 LINE",
"438.21 540 LINE",
"69.68 208 LINE"
);
}
);
width = 707;
}
);
leftKerningGroup = Z;
note = Zcaron;
rightKerningGroup = Z;
unicode = 017D;
},
{
glyphname = Zdotaccent;
layers = (
{
hints = (
{
horizontal = 1;
place = "{0, 197}";
type = Stem;
},
{
horizontal = 1;
place = "{540, 197}";
type = Stem;
},
{
horizontal = 1;
place = "{789, 158}";
type = Stem;
},
{
place = "{33, 771}";
type = Stem;
}
);
layerId = "04043E30-D2B9-406E-ABC7-C215F4DFD662";
paths = (
{
closed = 1;
nodes = (
"367.61 789 LINE",
"640.61 789 LINE",
"668.46 947 LINE",
"395.46 947 LINE"
);
},
{
closed = 1;
nodes = (
"32.99 0 LINE",
"673.99 0 LINE",
"708.72 197 LINE",
"401.72 197 LINE",
"767.25 529 LINE",
"803.92 737 LINE",
"177.92 737 LINE",
"143.19 540 LINE",
"438.19 540 LINE",
"69.66 208 LINE"
);
}
);
width = 707;
}
);
leftKerningGroup = Z;
note = Zdotaccent;
rightKerningGroup = Z;
unicode = 017B;
},
{
glyphname = a;
layers = (
{
hints = (
{
horizontal = 1;
place = "{0, 107}";
type = Stem;
},
{
horizontal = 1;
place = "{242, 84}";
type = Stem;
},
{
horizontal = 1;
place = "{382, 141}";
type = Stem;
},
{
place = "{32, 658}";
type = Stem;
}
);
layerId = "04043E30-D2B9-406E-ABC7-C215F4DFD662";
paths = (
{
closed = 1;
nodes = (
"107 0 LINE",
"289 0 LINE",
"358 62.36 LINE",
"347 0 LINE",
"615 0 LINE",
"690.46 428 LINE",
"596.21 523 LINE",
"167.21 523 LINE",
"142.36 382 LINE",
"414.36 382 LINE",
"404.48 326 LINE",
"164.48 326 LINE",
"49.91 215 LINE",
"31.58 111 LINE"
);
},
{
closed = 1;
nodes = (
"273.88 107 LINE",
"297.68 242 LINE",
"389.68 242 LINE",
"376.47 167 LINE",
"305.89 107 LINE"
);
}
);
width = 654;
}
);
leftKerningGroup = a;
note = a;
rightKerningGroup = a;
unicode = 0061;
},
{
glyphname = aacute;
layers = (
{
hints = (
{
horizontal = 1;
place = "{0, 107}";
type = Stem;
},
{
horizontal = 1;
place = "{242, 84}";
type = Stem;
},
{
horizontal = 1;
place = "{382, 141}";
type = Stem;
},
{
horizontal = 1;
place = "{575, 163}";
type = Stem;
},
{
place = "{32, 671}";
type = Stem;
}
);
layerId = "04043E30-D2B9-406E-ABC7-C215F4DFD662";
paths = (
{
closed = 1;
nodes = (
"354.38 575 LINE",
"512.38 575 LINE",
"703.12 738 LINE",
"462.12 738 LINE"
);
},
{
closed = 1;
nodes = (
"107 0 LINE",
"289 0 LINE",
"358 62.36 LINE",
"347 0 LINE",
"615 0 LINE",
"690.46 428 LINE",
"596.21 523 LINE",
"167.21 523 LINE",
"142.36 382 LINE",
"414.36 382 LINE",
"404.48 326 LINE",
"164.48 326 LINE",
"49.91 215 LINE",
"31.58 111 LINE"
);
},
{
closed = 1;
nodes = (
"273.88 107 LINE",
"297.68 242 LINE",
"389.68 242 LINE",
"376.47 167 LINE",
"305.89 107 LINE"
);
}
);
width = 654;
}
);
leftKerningGroup = a;
note = aacute;
rightKerningGroup = a;
unicode = 00E1;
},
{
glyphname = abreve;
layers = (
{
hints = (
{
horizontal = 1;
place = "{0, 107}";
type = Stem;
},
{
horizontal = 1;
place = "{242, 84}";
type = Stem;
},
{
horizontal = 1;
place = "{382, 141}";
type = Stem;
},
{
horizontal = 1;
place = "{575, 163}";
type = Stem;
},
{
place = "{32, 673}";
type = Stem;
},
{
horizontal = 1;
place = "{575, 111}";
type = Stem;
}
);
layerId = "04043E30-D2B9-406E-ABC7-C215F4DFD662";
paths = (
{
closed = 1;
nodes = (
"295.38 575 LINE",
"573.38 575 LINE",
"691.89 663 LINE",
"705.11 738 LINE",
"509.11 738 LINE",
"499.94 686 LINE",
"397.94 686 LINE",
"407.11 738 LINE",
"221.11 738 LINE",
"207.89 663 LINE"
);
},
{
closed = 1;
nodes = (
"106.99 0 LINE",
"288.99 0 LINE",
"357.99 62.36 LINE",
"346.99 0 LINE",
"614.99 0 LINE",
"690.45 428 LINE",
"596.2 523 LINE",
"167.2 523 LINE",
"142.35 382 LINE",
"414.35 382 LINE",
"404.47 326 LINE",
"164.47 326 LINE",
"49.9 215 LINE",
"31.57 111 LINE"
);
},
{
closed = 1;
nodes = (
"273.87 107 LINE",
"297.67 242 LINE",
"389.67 242 LINE",
"376.46 167 LINE",
"305.88 107 LINE"
);
}
);
width = 654;
}
);
leftKerningGroup = a;
note = abreve;
rightKerningGroup = a;
unicode = 0103;
},
{
glyphname = uni1EAF;
layers = (
{
hints = (
{
horizontal = 1;
place = "{0, 107}";
type = Stem;
},
{
horizontal = 1;
place = "{242, 84}";
type = Stem;
},
{
horizontal = 1;
place = "{382, 141}";
type = Stem;
},
{
horizontal = 1;
place = "{575, 163}";
type = Stem;
},
{
horizontal = 1;
place = "{785, 163}";
type = Stem;
},
{
place = "{32, 701}";
type = Stem;
},
{
horizontal = 1;
place = "{575, 111}";
type = Stem;
}
);
layerId = "04043E30-D2B9-406E-ABC7-C215F4DFD662";
paths = (
{
closed = 1;
nodes = (
"384.38 785 LINE",
"542.38 785 LINE",
"733.12 948 LINE",
"492.12 948 LINE"
);
},
{
closed = 1;
nodes = (
"295.38 575 LINE",
"573.38 575 LINE",
"691.89 663 LINE",
"705.11 738 LINE",
"509.11 738 LINE",
"499.94 686 LINE",
"397.94 686 LINE",
"407.11 738 LINE",
"221.11 738 LINE",
"207.89 663 LINE"
);
},
{
closed = 1;
nodes = (
"106.99 0 LINE",
"288.99 0 LINE",
"357.99 62.36 LINE",
"346.99 0 LINE",
"614.99 0 LINE",
"690.45 428 LINE",
"596.2 523 LINE",
"167.2 523 LINE",
"142.35 382 LINE",
"414.35 382 LINE",
"404.47 326 LINE",
"164.47 326 LINE",
"49.9 215 LINE",
"31.57 111 LINE"
);
},
{
closed = 1;
nodes = (
"273.87 107 LINE",
"297.67 242 LINE",
"389.67 242 LINE",
"376.46 167 LINE",
"305.88 107 LINE"
);
}
);
width = 654;
}
);
leftKerningGroup = a;
note = uni1EAF;
rightKerningGroup = a;
unicode = 1EAF;
},
{
glyphname = uni1EB7;
layers = (
{
hints = (
{
horizontal = 1;
place = "{-209, 158}";
type = Stem;
},
{
horizontal = 1;
place = "{0, 107}";
type = Stem;
},
{
horizontal = 1;
place = "{242, 84}";
type = Stem;
},
{
horizontal = 1;
place = "{382, 141}";
type = Stem;
},
{
horizontal = 1;
place = "{575, 163}";
type = Stem;
},
{
place = "{32, 673}";
type = Stem;
},
{
horizontal = 1;
place = "{575, 111}";
type = Stem;
}
);
layerId = "04043E30-D2B9-406E-ABC7-C215F4DFD662";
paths = (
{
closed = 1;
nodes = (
"295.38 575 LINE",
"573.38 575 LINE",
"691.89 663 LINE",
"705.11 738 LINE",
"509.11 738 LINE",
"499.94 686 LINE",
"397.94 686 LINE",
"407.11 738 LINE",
"221.11 738 LINE",
"207.89 663 LINE"
);
},
{
closed = 1;
nodes = (
"106.99 0 LINE",
"288.99 0 LINE",
"357.99 62.36 LINE",
"346.99 0 LINE",
"614.99 0 LINE",
"690.45 428 LINE",
"596.2 523 LINE",
"167.2 523 LINE",
"142.35 382 LINE",
"414.35 382 LINE",
"404.47 326 LINE",
"164.47 326 LINE",
"49.9 215 LINE",
"31.57 111 LINE"
);
},
{
closed = 1;
nodes = (
"273.87 107 LINE",
"297.67 242 LINE",
"389.67 242 LINE",
"376.46 167 LINE",
"305.88 107 LINE"
);
},
{
closed = 1;
nodes = (
"160.67 -209 LINE",
"433.67 -209 LINE",
"461.52 -51 LINE",
"188.52 -51 LINE"
);
}
);
width = 654;
}
);
leftKerningGroup = a;
note = uni1EB7;
rightKerningGroup = a;
unicode = 1EB7;
},
{
glyphname = uni1EB1;
layers = (
{
hints = (
{
horizontal = 1;
place = "{0, 107}";
type = Stem;
},
{
horizontal = 1;
place = "{242, 84}";
type = Stem;
},
{
horizontal = 1;
place = "{382, 141}";
type = Stem;
},
{
horizontal = 1;
place = "{575, 163}";
type = Stem;
},
{
horizontal = 1;
place = "{771, 163}";
type = Stem;
},
{
place = "{32, 673}";
type = Stem;
},
{
horizontal = 1;
place = "{575, 111}";
type = Stem;
}
);
layerId = "04043E30-D2B9-406E-ABC7-C215F4DFD662";
paths = (
{
closed = 1;
nodes = (
"380.2 771 LINE",
"542.2 771 LINE",
"461.95 934 LINE",
"246.95 934 LINE"
);
},
{
closed = 1;
nodes = (
"295.38 575 LINE",
"573.38 575 LINE",
"691.89 663 LINE",
"705.11 738 LINE",
"509.11 738 LINE",
"499.94 686 LINE",
"397.94 686 LINE",
"407.11 738 LINE",
"221.11 738 LINE",
"207.89 663 LINE"
);
},
{
closed = 1;
nodes = (
"106.99 0 LINE",
"288.99 0 LINE",
"357.99 62.36 LINE",
"346.99 0 LINE",
"614.99 0 LINE",
"690.45 428 LINE",
"596.2 523 LINE",
"167.2 523 LINE",
"142.35 382 LINE",
"414.35 382 LINE",
"404.47 326 LINE",
"164.47 326 LINE",
"49.9 215 LINE",
"31.57 111 LINE"
);
},
{
closed = 1;
nodes = (
"273.87 107 LINE",
"297.67 242 LINE",
"389.67 242 LINE",
"376.46 167 LINE",
"305.88 107 LINE"
);
}
);
width = 654;
}
);
leftKerningGroup = a;
note = uni1EB1;
rightKerningGroup = a;
unicode = 1EB1;
},
{
glyphname = uni1EB3;
layers = (
{
hints = (
{
horizontal = 1;
place = "{0, 107}";
type = Stem;
},
{
horizontal = 1;
place = "{242, 84}";
type = Stem;
},
{
horizontal = 1;
place = "{382, 141}";
type = Stem;
},
{
horizontal = 1;
place = "{575, 163}";
type = Stem;
},
{
horizontal = 1;
place = "{770.99, 106}";
type = Stem;
},
{
horizontal = 1;
place = "{901.99, 107}";
type = Stem;
},
{
place = "{32, 673}";
type = Stem;
},
{
horizontal = 1;
place = "{809.99, 67}";
type = Stem;
},
{
horizontal = 1;
place = "{966.99, 42}";
type = Stem;
},
{
horizontal = 1;
place = "{942.99, 66}";
type = Stem;
},
{
horizontal = 1;
place = "{575, 111}";
type = Stem;
}
);
layerId = "04043E30-D2B9-406E-ABC7-C215F4DFD662";
paths = (
{
closed = 1;
nodes = (
"377.6 770.98 LINE",
"545.6 770.98 LINE",
"552.47 809.98 LINE",
"594.47 809.98 LINE",
"649.16 847.98 LINE",
"670.14 966.98 LINE",
"628.56 1008.98 LINE",
"395.56 1008.98 LINE",
"333.15 966.98 LINE",
"321.69 901.98 LINE",
"471.69 901.98 LINE",
"478.92 942.98 LINE",
"510.92 942.98 LINE",
"499.28 876.98 LINE",
"435.28 876.98 LINE",
"391.18 847.98 LINE"
);
},
{
closed = 1;
nodes = (
"295.38 575 LINE",
"573.38 575 LINE",
"691.89 663 LINE",
"705.11 738 LINE",
"509.11 738 LINE",
"499.94 686 LINE",
"397.94 686 LINE",
"407.11 738 LINE",
"221.11 738 LINE",
"207.89 663 LINE"
);
},
{
closed = 1;
nodes = (
"106.99 0 LINE",
"288.99 0 LINE",
"357.99 62.36 LINE",
"346.99 0 LINE",
"614.99 0 LINE",
"690.45 428 LINE",
"596.2 523 LINE",
"167.2 523 LINE",
"142.35 382 LINE",
"414.35 382 LINE",
"404.47 326 LINE",
"164.47 326 LINE",
"49.9 215 LINE",
"31.57 111 LINE"
);
},
{
closed = 1;
nodes = (
"273.87 107 LINE",
"297.67 242 LINE",
"389.67 242 LINE",
"376.46 167 LINE",
"305.88 107 LINE"
);
}
);
width = 654;
}
);
leftKerningGroup = a;
note = uni1EB3;
rightKerningGroup = a;
unicode = 1EB3;
},
{
glyphname = uni1EB5;
layers = (
{
hints = (
{
horizontal = 1;
place = "{0, 107}";
type = Stem;
},
{
horizontal = 1;
place = "{242, 84}";
type = Stem;
},
{
horizontal = 1;
place = "{382, 141}";
type = Stem;
},
{
horizontal = 1;
place = "{575, 163}";
type = Stem;
},
{
horizontal = 1;
place = "{769, 161}";
type = Stem;
},
{
place = "{32, 720}";
type = Stem;
},
{
horizontal = 1;
place = "{769, 113}";
type = Stem;
},
{
horizontal = 1;
place = "{775, 162}";
type = Stem;
},
{
horizontal = 1;
place = "{823, 114}";
type = Stem;
},
{
horizontal = 1;
place = "{575, 111}";
type = Stem;
}
);
layerId = "04043E30-D2B9-406E-ABC7-C215F4DFD662";
paths = (
{
closed = 1;
nodes = (
"442.73 769 LINE",
"639.73 769 LINE",
"736.42 841 LINE",
"752.11 930 LINE",
"600.11 930 LINE",
"594.29 897 LINE",
"575.65 882 LINE",
"557.65 882 LINE",
"518.35 937 LINE",
"320.35 937 LINE",
"224.3 863 LINE",
"208.79 775 LINE",
"360.79 775 LINE",
"366.43 807 LINE",
"385.25 823 LINE",
"402.25 823 LINE"
);
},
{
closed = 1;
nodes = (
"295.38 575 LINE",
"573.38 575 LINE",
"691.89 663 LINE",
"705.11 738 LINE",
"509.11 738 LINE",
"499.94 686 LINE",
"397.94 686 LINE",
"407.11 738 LINE",
"221.11 738 LINE",
"207.89 663 LINE"
);
},
{
closed = 1;
nodes = (
"106.99 0 LINE",
"288.99 0 LINE",
"357.99 62.36 LINE",
"346.99 0 LINE",
"614.99 0 LINE",
"690.45 428 LINE",
"596.2 523 LINE",
"167.2 523 LINE",
"142.35 382 LINE",
"414.35 382 LINE",
"404.47 326 LINE",
"164.47 326 LINE",
"49.9 215 LINE",
"31.57 111 LINE"
);
},
{
closed = 1;
nodes = (
"273.87 107 LINE",
"297.67 242 LINE",
"389.67 242 LINE",
"376.46 167 LINE",
"305.88 107 LINE"
);
}
);
width = 654;
}
);
leftKerningGroup = a;
note = uni1EB5;
rightKerningGroup = a;
unicode = 1EB5;
},
{
glyphname = acircumflex;
layers = (
{
hints = (
{
horizontal = 1;
place = "{0, 107}";
type = Stem;
},
{
horizontal = 1;
place = "{242, 84}";
type = Stem;
},
{
horizontal = 1;
place = "{382, 141}";
type = Stem;
},
{
horizontal = 1;
place = "{575, 163}";
type = Stem;
},
{
place = "{32, 663}";
type = Stem;
},
{
horizontal = 1;
place = "{651, 87}";
type = Stem;
}
);
layerId = "04043E30-D2B9-406E-ABC7-C215F4DFD662";
paths = (
{
closed = 1;
nodes = (
"164.38 575 LINE",
"356.38 575 LINE",
"445.78 651 LINE",
"508.37 575 LINE",
"695.37 575 LINE",
"601.12 738 LINE",
"316.12 738 LINE"
);
},
{
closed = 1;
nodes = (
"107 0 LINE",
"289 0 LINE",
"358 62.36 LINE",
"347 0 LINE",
"615 0 LINE",
"690.46 428 LINE",
"596.21 523 LINE",
"167.21 523 LINE",
"142.36 382 LINE",
"414.36 382 LINE",
"404.48 326 LINE",
"164.48 326 LINE",
"49.91 215 LINE",
"31.58 111 LINE"
);
},
{
closed = 1;
nodes = (
"273.88 107 LINE",
"297.68 242 LINE",
"389.68 242 LINE",
"376.47 167 LINE",
"305.89 107 LINE"
);
}
);
width = 654;
}
);
leftKerningGroup = a;
note = acircumflex;
rightKerningGroup = a;
unicode = 00E2;
},
{
glyphname = uni1EA5;
layers = (
{
hints = (
{
horizontal = 1;
place = "{0, 107}";
type = Stem;
},
{
horizontal = 1;
place = "{242, 84}";
type = Stem;
},
{
horizontal = 1;
place = "{382, 141}";
type = Stem;
},
{
horizontal = 1;
place = "{662.72, 163}";
type = Stem;
},
{
place = "{32, 1047}";
type = Stem;
},
{
horizontal = 1;
place = "{575, 163}";
type = Stem;
},
{
horizontal = 1;
place = "{651, 87}";
type = Stem;
}
);
layerId = "04043E30-D2B9-406E-ABC7-C215F4DFD662";
paths = (
{
closed = 1;
nodes = (
"729.97 662.71 LINE",
"887.97 662.71 LINE",
"1078.71 825.71 LINE",
"837.71 825.71 LINE"
);
},
{
closed = 1;
nodes = (
"164.38 575 LINE",
"356.38 575 LINE",
"445.78 651 LINE",
"508.37 575 LINE",
"695.37 575 LINE",
"601.12 738 LINE",
"316.12 738 LINE"
);
},
{
closed = 1;
nodes = (
"107 0 LINE",
"289 0 LINE",
"358 62.36 LINE",
"347 0 LINE",
"615 0 LINE",
"690.46 428 LINE",
"596.21 523 LINE",
"167.21 523 LINE",
"142.36 382 LINE",
"414.36 382 LINE",
"404.48 326 LINE",
"164.48 326 LINE",
"49.91 215 LINE",
"31.58 111 LINE"
);
},
{
closed = 1;
nodes = (
"273.88 107 LINE",
"297.68 242 LINE",
"389.68 242 LINE",
"376.47 167 LINE",
"305.89 107 LINE"
);
}
);
width = 654;
}
);
leftKerningGroup = a;
note = uni1EA5;
rightKerningGroup = a;
unicode = 1EA5;
},
{
glyphname = uni1EAD;
layers = (
{
hints = (
{
horizontal = 1;
place = "{-209, 158}";
type = Stem;
},
{
horizontal = 1;
place = "{0, 107}";
type = Stem;
},
{
horizontal = 1;
place = "{242, 84}";
type = Stem;
},
{
horizontal = 1;
place = "{382, 141}";
type = Stem;
},
{
horizontal = 1;
place = "{575, 163}";
type = Stem;
},
{
place = "{32, 663}";
type = Stem;
},
{
horizontal = 1;
place = "{651, 87}";
type = Stem;
}
);
layerId = "04043E30-D2B9-406E-ABC7-C215F4DFD662";
paths = (
{
closed = 1;
nodes = (
"164.38 575 LINE",
"356.38 575 LINE",
"445.78 651 LINE",
"508.37 575 LINE",
"695.37 575 LINE",
"601.12 738 LINE",
"316.12 738 LINE"
);
},
{
closed = 1;
nodes = (
"107 0 LINE",
"289 0 LINE",
"358 62.36 LINE",
"347 0 LINE",
"615 0 LINE",
"690.46 428 LINE",
"596.21 523 LINE",
"167.21 523 LINE",
"142.36 382 LINE",
"414.36 382 LINE",
"404.48 326 LINE",
"164.48 326 LINE",
"49.91 215 LINE",
"31.58 111 LINE"
);
},
{
closed = 1;
nodes = (
"273.88 107 LINE",
"297.68 242 LINE",
"389.68 242 LINE",
"376.47 167 LINE",
"305.89 107 LINE"
);
},
{
closed = 1;
nodes = (
"160.68 -209 LINE",
"433.68 -209 LINE",
"461.53 -51 LINE",
"188.53 -51 LINE"
);
}
);
width = 654;
}
);
leftKerningGroup = a;
note = uni1EAD;
rightKerningGroup = a;
unicode = 1EAD;
},
{
glyphname = uni1EA7;
layers = (
{
hints = (
{
horizontal = 1;
place = "{0, 107}";
type = Stem;
},
{
horizontal = 1;
place = "{242, 84}";
type = Stem;
},
{
horizontal = 1;
place = "{382, 141}";
type = Stem;
},
{
horizontal = 1;
place = "{662.53, 163}";
type = Stem;
},
{
place = "{-97, 792}";
type = Stem;
},
{
horizontal = 1;
place = "{575, 163}";
type = Stem;
},
{
horizontal = 1;
place = "{651, 87}";
type = Stem;
}
);
layerId = "04043E30-D2B9-406E-ABC7-C215F4DFD662";
paths = (
{
closed = 1;
nodes = (
"36.38 662.52 LINE",
"198.38 662.52 LINE",
"118.13 825.52 LINE",
"-96.86 825.52 LINE"
);
},
{
closed = 1;
nodes = (
"164.39 575 LINE",
"356.39 575 LINE",
"445.79 651 LINE",
"508.38 575 LINE",
"695.38 575 LINE",
"601.13 738 LINE",
"316.13 738 LINE"
);
},
{
closed = 1;
nodes = (
"107.01 0 LINE",
"289.01 0 LINE",
"358.01 62.36 LINE",
"347.01 0 LINE",
"615.01 0 LINE",
"690.47 428 LINE",
"596.22 523 LINE",
"167.22 523 LINE",
"142.37 382 LINE",
"414.37 382 LINE",
"404.49 326 LINE",
"164.49 326 LINE",
"49.92 215 LINE",
"31.59 111 LINE"
);
},
{
closed = 1;
nodes = (
"273.89 107 LINE",
"297.69 242 LINE",
"389.69 242 LINE",
"376.48 167 LINE",
"305.9 107 LINE"
);
}
);
width = 654;
}
);
leftKerningGroup = a;
note = uni1EA7;
rightKerningGroup = a;
unicode = 1EA7;
},
{
glyphname = uni1EA9;
layers = (
{
hints = (
{
horizontal = 1;
place = "{0, 107}";
type = Stem;
},
{
horizontal = 1;
place = "{242, 84}";
type = Stem;
},
{
horizontal = 1;
place = "{382, 141}";
type = Stem;
},
{
horizontal = 1;
place = "{662.65, 106}";
type = Stem;
},
{
horizontal = 1;
place = "{793.65, 107}";
type = Stem;
},
{
place = "{32, 953}";
type = Stem;
},
{
horizontal = 1;
place = "{701.65, 67}";
type = Stem;
},
{
horizontal = 1;
place = "{858.65, 42}";
type = Stem;
},
{
horizontal = 1;
place = "{575, 163}";
type = Stem;
},
{
horizontal = 1;
place = "{834.65, 66}";
type = Stem;
},
{
horizontal = 1;
place = "{651, 87}";
type = Stem;
}
);
layerId = "04043E30-D2B9-406E-ABC7-C215F4DFD662";
paths = (
{
closed = 1;
nodes = (
"692.83 662.64 LINE",
"860.83 662.64 LINE",
"867.7 701.64 LINE",
"909.7 701.64 LINE",
"964.39 739.64 LINE",
"985.37 858.64 LINE",
"943.79 900.64 LINE",
"710.79 900.64 LINE",
"648.38 858.64 LINE",
"636.92 793.64 LINE",
"786.92 793.64 LINE",
"794.15 834.64 LINE",
"826.15 834.64 LINE",
"814.51 768.64 LINE",
"750.51 768.64 LINE",
"706.41 739.64 LINE"
);
},
{
closed = 1;
nodes = (
"164.38 575 LINE",
"356.38 575 LINE",
"445.78 651 LINE",
"508.37 575 LINE",
"695.37 575 LINE",
"601.12 738 LINE",
"316.12 738 LINE"
);
},
{
closed = 1;
nodes = (
"107 0 LINE",
"289 0 LINE",
"358 62.36 LINE",
"347 0 LINE",
"615 0 LINE",
"690.46 428 LINE",
"596.21 523 LINE",
"167.21 523 LINE",
"142.36 382 LINE",
"414.36 382 LINE",
"404.48 326 LINE",
"164.48 326 LINE",
"49.91 215 LINE",
"31.58 111 LINE"
);
},
{
closed = 1;
nodes = (
"273.88 107 LINE",
"297.68 242 LINE",
"389.68 242 LINE",
"376.47 167 LINE",
"305.89 107 LINE"
);
}
);
width = 654;
}
);
leftKerningGroup = a;
note = uni1EA9;
rightKerningGroup = a;
unicode = 1EA9;
},
{
glyphname = uni1EAB;
layers = (
{
hints = (
{
horizontal = 1;
place = "{0, 107}";
type = Stem;
},
{
horizontal = 1;
place = "{242, 84}";
type = Stem;
},
{
horizontal = 1;
place = "{382, 141}";
type = Stem;
},
{
horizontal = 1;
place = "{575, 163}";
type = Stem;
},
{
horizontal = 1;
place = "{769, 161}";
type = Stem;
},
{
place = "{32, 721}";
type = Stem;
},
{
horizontal = 1;
place = "{769, 113}";
type = Stem;
},
{
horizontal = 1;
place = "{775, 162}";
type = Stem;
},
{
horizontal = 1;
place = "{823, 114}";
type = Stem;
},
{
horizontal = 1;
place = "{651, 87}";
type = Stem;
}
);
layerId = "04043E30-D2B9-406E-ABC7-C215F4DFD662";
paths = (
{
closed = 1;
nodes = (
"443.59 769 LINE",
"640.58 769 LINE",
"737.27 841 LINE",
"752.95 930 LINE",
"600.95 930 LINE",
"595.13 897 LINE",
"576.5 882 LINE",
"558.5 882 LINE",
"519.2 937 LINE",
"321.2 937 LINE",
"225.15 863 LINE",
"209.64 775 LINE",
"361.64 775 LINE",
"367.28 807 LINE",
"386.1 823 LINE",
"403.1 823 LINE"
);
},
{
closed = 1;
nodes = (
"164.37 575 LINE",
"356.37 575 LINE",
"445.77 651 LINE",
"508.36 575 LINE",
"695.36 575 LINE",
"601.11 738 LINE",
"316.11 738 LINE"
);
},
{
closed = 1;
nodes = (
"106.99 0 LINE",
"288.99 0 LINE",
"357.99 62.36 LINE",
"346.99 0 LINE",
"614.99 0 LINE",
"690.45 428 LINE",
"596.2 523 LINE",
"167.2 523 LINE",
"142.35 382 LINE",
"414.35 382 LINE",
"404.47 326 LINE",
"164.47 326 LINE",
"49.9 215 LINE",
"31.57 111 LINE"
);
},
{
closed = 1;
nodes = (
"273.87 107 LINE",
"297.67 242 LINE",
"389.67 242 LINE",
"376.46 167 LINE",
"305.88 107 LINE"
);
}
);
width = 654;
}
);
leftKerningGroup = a;
note = uni1EAB;
rightKerningGroup = a;
unicode = 1EAB;
},
{
glyphname = uni0201;
layers = (
{
hints = (
{
horizontal = 1;
place = "{0, 107}";
type = Stem;
},
{
horizontal = 1;
place = "{242, 84}";
type = Stem;
},
{
horizontal = 1;
place = "{382, 141}";
type = Stem;
},
{
horizontal = 1;
place = "{575, 163}";
type = Stem;
},
{
place = "{32, 658}";
type = Stem;
}
);
layerId = "04043E30-D2B9-406E-ABC7-C215F4DFD662";
paths = (
{
closed = 1;
nodes = (
"199.38 575 LINE",
"361.38 575 LINE",
"281.13 738 LINE",
"66.13 738 LINE"
);
},
{
closed = 1;
nodes = (
"486.38 575 LINE",
"648.38 575 LINE",
"568.13 738 LINE",
"353.13 738 LINE"
);
},
{
closed = 1;
nodes = (
"107.01 0 LINE",
"289.01 0 LINE",
"358.01 62.36 LINE",
"347.01 0 LINE",
"615.01 0 LINE",
"690.47 428 LINE",
"596.22 523 LINE",
"167.22 523 LINE",
"142.37 382 LINE",
"414.37 382 LINE",
"404.49 326 LINE",
"164.49 326 LINE",
"49.92 215 LINE",
"31.59 111 LINE"
);
},
{
closed = 1;
nodes = (
"273.89 107 LINE",
"297.69 242 LINE",
"389.69 242 LINE",
"376.48 167 LINE",
"305.9 107 LINE"
);
}
);
width = 654;
}
);
leftKerningGroup = a;
note = uni0201;
rightKerningGroup = a;
unicode = 0201;
},
{
glyphname = adieresis;
layers = (
{
hints = (
{
horizontal = 1;
place = "{0, 107}";
type = Stem;
},
{
horizontal = 1;
place = "{242, 84}";
type = Stem;
},
{
horizontal = 1;
place = "{382, 141}";
type = Stem;
},
{
horizontal = 1;
place = "{575, 158}";
type = Stem;
},
{
place = "{32, 706}";
type = Stem;
}
);
layerId = "04043E30-D2B9-406E-ABC7-C215F4DFD662";
paths = (
{
closed = 1;
nodes = (
"155.33 575 LINE",
"403.33 575 LINE",
"431.18 733 LINE",
"183.18 733 LINE"
);
},
{
closed = 1;
nodes = (
"461.73 575 LINE",
"709.73 575 LINE",
"737.58 733 LINE",
"489.58 733 LINE"
);
},
{
closed = 1;
nodes = (
"106.98 0 LINE",
"288.98 0 LINE",
"357.98 62.36 LINE",
"346.98 0 LINE",
"614.98 0 LINE",
"690.44 428 LINE",
"596.19 523 LINE",
"167.19 523 LINE",
"142.34 382 LINE",
"414.34 382 LINE",
"404.46 326 LINE",
"164.46 326 LINE",
"49.89 215 LINE",
"31.56 111 LINE"
);
},
{
closed = 1;
nodes = (
"273.86 107 LINE",
"297.66 242 LINE",
"389.66 242 LINE",
"376.45 167 LINE",
"305.87 107 LINE"
);
}
);
width = 654;
}
);
leftKerningGroup = a;
note = adieresis;
rightKerningGroup = a;
unicode = 00E4;
},
{
glyphname = uni1EA1;
layers = (
{
hints = (
{
horizontal = 1;
place = "{-209, 158}";
type = Stem;
},
{
horizontal = 1;
place = "{0, 107}";
type = Stem;
},
{
horizontal = 1;
place = "{242, 84}";
type = Stem;
},
{
horizontal = 1;
place = "{382, 141}";
type = Stem;
},
{
place = "{32, 658}";
type = Stem;
}
);
layerId = "04043E30-D2B9-406E-ABC7-C215F4DFD662";
paths = (
{
closed = 1;
nodes = (
"107 0 LINE",
"289 0 LINE",
"358 62.36 LINE",
"347 0 LINE",
"615 0 LINE",
"690.46 428 LINE",
"596.21 523 LINE",
"167.21 523 LINE",
"142.36 382 LINE",
"414.36 382 LINE",
"404.48 326 LINE",
"164.48 326 LINE",
"49.91 215 LINE",
"31.58 111 LINE"
);
},
{
closed = 1;
nodes = (
"273.88 107 LINE",
"297.68 242 LINE",
"389.68 242 LINE",
"376.47 167 LINE",
"305.89 107 LINE"
);
},
{
closed = 1;
nodes = (
"160.68 -209 LINE",
"433.68 -209 LINE",
"461.53 -51 LINE",
"188.53 -51 LINE"
);
}
);
width = 654;
}
);
leftKerningGroup = a;
note = uni1EA1;
rightKerningGroup = a;
unicode = 1EA1;
},
{
glyphname = agrave;
layers = (
{
hints = (
{
horizontal = 1;
place = "{0, 107}";
type = Stem;
},
{
horizontal = 1;
place = "{242, 84}";
type = Stem;
},
{
horizontal = 1;
place = "{382, 141}";
type = Stem;
},
{
horizontal = 1;
place = "{575, 163}";
type = Stem;
},
{
place = "{32, 658}";
type = Stem;
}
);
layerId = "04043E30-D2B9-406E-ABC7-C215F4DFD662";
paths = (
{
closed = 1;
nodes = (
"354.38 575 LINE",
"516.38 575 LINE",
"436.13 738 LINE",
"221.13 738 LINE"
);
},
{
closed = 1;
nodes = (
"107.01 0 LINE",
"289.01 0 LINE",
"358.01 62.36 LINE",
"347.01 0 LINE",
"615.01 0 LINE",
"690.47 428 LINE",
"596.22 523 LINE",
"167.22 523 LINE",
"142.37 382 LINE",
"414.37 382 LINE",
"404.49 326 LINE",
"164.49 326 LINE",
"49.92 215 LINE",
"31.59 111 LINE"
);
},
{
closed = 1;
nodes = (
"273.89 107 LINE",
"297.69 242 LINE",
"389.69 242 LINE",
"376.48 167 LINE",
"305.9 107 LINE"
);
}
);
width = 654;
}
);
leftKerningGroup = a;
note = agrave;
rightKerningGroup = a;
unicode = 00E0;
},
